<?xml version="1.0" standalone="no"?>
<!DOCTYPE svg PUBLIC "-//W3C//DTD SVG 1.1//EN" "http://www.w3.org/Graphics/SVG/1.1/DTD/svg11.dtd" >
<svg xmlns="http://www.w3.org/2000/svg" xmlns:xlink="http://www.w3.org/1999/xlink" version="1.1">
<metadata>
Created by FontForge 20170731 at Thu Jan 21 04:18:26 2016
 By Aleksey,,,
Copyright (c) 2012, Sorkin Type Co (www.sorkintype.com) with Reserved Font Name 'Fruktur'
</metadata>
<defs>
<font id="Fruktur-Regular" horiz-adv-x="0" >
  <font-face 
    font-family="Fruktur"
    font-weight="400"
    font-stretch="normal"
    units-per-em="2048"
    panose-1="0 0 5 0 0 0 0 0 0 0"
    ascent="1638"
    descent="-410"
    x-height="1191"
    cap-height="1529"
    bbox="-429 -537 2774 2020"
    underline-thickness="262"
    underline-position="-373"
    unicode-range="U+0001-FB02"
  />
<missing-glyph horiz-adv-x="1703" 
d="M240 20.5q-18 20.5 -18 57.5v1376q0 37 17.5 58t48.5 21h1117q38 0 57 -20t19 -56v-1381q0 -36 -19 -56t-57 -20h-1114q-33 0 -51 20.5zM1278 448q0 20 -17 35l-284 284l275 276q21 21 21 40q0 13 -12 25l-67 69q-14 15 -32 15q-19 0 -32 -15l-281 -282l-287 288
q-14 14 -32 14q-16 0 -29 -13l-61 -58q-15 -15 -15 -32t15 -32l287 -289l-285 -285q-14 -12 -14 -31t17 -36l55 -55q18 -19 38 -19q22 0 41 21l276 277l281 -279q20 -20 40 -20q18 0 33 15l52 52q17 17 17 35z" />
    <glyph glyph-name="fi" unicode="fi" horiz-adv-x="1359" 
d="M163 178q-24 177 -65 454q-41 284 -59.5 425.5t-19.5 204.5q38 86 121.5 191.5t244.5 170.5q191 -36 446 -36q218 0 418 25q13 -26 13 -80q0 -81 -27 -175t-65 -129q-48 -5 -130 -5q-175 0 -357 28t-277 79l19 -310l260 77q29 -44 29 -126q0 -69 -18 -141.5t-37 -99.5
q-55 -2 -112 17t-104 44q29 -555 29 -839q0 -92 -3 -167q-9 -55 -55.5 -105.5t-110.5 -82.5t-122 -36q-78 14 -129 56t-88 94q-1 51 6.5 85t27.5 91l203 -31q-14 144 -38 321zM811 246q4 15 27 77q37 99 63 174l-131 521q31 37 83 70.5t114.5 54t122.5 20.5q99 0 165 -58
q-5 -30 -13 -107q-20 -188 -41 -343.5t-47 -262.5l-19 -78l150 67l79 -125q-44 -102 -116 -189t-159 -87q-47 0 -115 36.5t-117.5 90.5t-49.5 105q0 19 4 34z" />
    <glyph glyph-name="fl" unicode="fl" horiz-adv-x="1370" 
d="M1376 254q-20 -62 -63 -125.5t-100 -106t-116 -42.5q-62 0 -128 47t-120 111q-14 16 -21.5 33.5t-7.5 42.5q0 9 4 35l69 357q-44 229 -84 571q-86 0 -171 24.5t-147.5 59.5t-84.5 65l19 -305l260 77q29 -44 29 -126q0 -69 -18 -141.5t-37 -99.5q-55 -2 -112 17t-104 44
q29 -555 29 -839q0 -92 -3 -167q-9 -55 -55.5 -105.5t-110.5 -82.5t-122 -36q-78 14 -129 56t-88 94q-1 51 6.5 85t27.5 91l203 -31q-14 144 -38 321t-65 454q-41 284 -59.5 425.5t-19.5 204.5q38 85 117.5 185.5t240.5 165.5q25 -5 152 -35q116 -28 181.5 -42t121.5 -21
q56 43 132.5 70.5t135.5 27.5q92 0 149 -47q-8 -234 -29.5 -513t-66.5 -739l143 67z" />
    <glyph glyph-name="f_f" unicode="ff" horiz-adv-x="1488" 
d="M1429 1098q29 -44 29 -126q0 -69 -18 -141.5t-37 -99.5q-55 -2 -112 17t-104 44q29 -555 29 -839q0 -92 -3 -167q-9 -55 -55.5 -105.5t-110.5 -82.5t-122 -36q-78 14 -129 56t-88 94q-1 51 6.5 85t27.5 91l203 -31q-23 236 -102 771q-24 161 -45 313.5t-29 234.5
q-74 22 -140 47q-50 19 -96.5 51t-80 63.5t-46.5 49.5l19 -366l260 77q29 -44 29 -126q0 -69 -18 -141.5t-37 -99.5q-55 -2 -112 17t-104 44q29 -555 29 -839q0 -92 -3 -167q-9 -55 -55.5 -105.5t-110.5 -82.5t-122 -36q-78 14 -129 56t-88 94q-1 51 6.5 85t27.5 91l203 -31
q-14 144 -38 321t-65 454q-41 284 -59.5 425.5t-19.5 204.5q38 85 117.5 185.5t240.5 165.5q114 -26 292.5 -56t289.5 -39q71 58 162 95q110 -25 181 -36.5t133 -11.5q31 0 61 3q11 -22 11 -62q0 -69 -31 -154t-72 -123q-81 6 -129.5 26t-71 43.5t-54.5 67.5l20 -345z" />
    <glyph glyph-name="f_f_i" unicode="ffi" horiz-adv-x="2103" 
d="M1429 1098q29 -44 29 -126q0 -69 -18 -141.5t-37 -99.5q-55 -2 -112 17t-104 44q29 -555 29 -839q0 -92 -3 -167q-9 -55 -55.5 -105.5t-110.5 -82.5t-122 -36q-78 14 -129 56t-88 94q-1 51 6.5 85t27.5 91l203 -31q-23 236 -102 771q-24 161 -45 313.5t-29 234.5
q-121 35 -231 85t-132 81l19 -321l260 77q29 -44 29 -126q0 -69 -18 -141.5t-37 -99.5q-55 -2 -112 17t-104 44q29 -555 29 -839q0 -92 -3 -167q-9 -55 -55.5 -105.5t-110.5 -82.5t-122 -36q-78 14 -129 56t-88 94q-1 51 6.5 85t27.5 91l203 -31q-14 144 -38 321t-65 454
q-41 284 -59.5 425.5t-19.5 204.5q38 85 117.5 185.5t240.5 165.5q111 -25 281.5 -54t282.5 -39q85 78 188 120q121 -23 260.5 -34t277.5 -11q179 0 326 18q13 -26 13 -80q0 -81 -27 -175t-65 -129q-40 -4 -101 -4q-109 0 -237.5 15t-243.5 42.5t-182 64.5l19 -326z
M2108 256q-44 -102 -116 -189t-159 -87q-47 0 -115 36.5t-117.5 90.5t-49.5 105q0 19 4 34t27 77q37 99 63 174l-131 521q31 37 83 70.5t114.5 54t122.5 20.5q99 0 165 -58q-5 -30 -13 -107q-20 -188 -41 -343.5t-47 -262.5l-19 -78l150 67z" />
    <glyph glyph-name="f_f_i_trk" unicode="ffi" horiz-adv-x="2103" 
d="M1678 1247.5q64 -39.5 101 -40.5q35 6 94 50.5t113 103t75 103.5q-27 116 -125.5 166.5t-219.5 50.5q-63 -182 -138 -351q36 -43 100 -82.5zM163 178q-24 177 -65 454q-41 284 -59.5 425.5t-19.5 204.5q38 85 117.5 185.5t240.5 165.5q110 -25 181 -36.5t133 -11.5
q31 0 61 3q11 -22 11 -62q0 -69 -31 -154t-72 -123q-81 6 -129.5 26t-71 43.5t-54.5 67.5l20 -345l260 77q29 -44 29 -126q0 -69 -18 -141.5t-37 -99.5q-55 -2 -112 17t-104 44q29 -555 29 -839q0 -92 -3 -167q-9 -55 -55.5 -105.5t-110.5 -82.5t-122 -36q-78 14 -129 56
t-88 94q-1 51 6.5 85t27.5 91l203 -31q-14 144 -38 321zM907 178q-24 177 -65 454q-41 284 -59.5 425.5t-19.5 204.5q38 85 117.5 185.5t240.5 165.5q110 -25 181 -36.5t133 -11.5q31 0 61 3q11 -22 11 -62q0 -69 -31 -154t-72 -123q-81 6 -129.5 26t-71 43.5t-54.5 67.5
l20 -345l260 77q29 -44 29 -126q0 -69 -18 -141.5t-37 -99.5q-55 -2 -112 17t-104 44q29 -555 29 -839q0 -92 -3 -167q-9 -55 -55.5 -105.5t-110.5 -82.5t-122 -36q-78 14 -129 56t-88 94q-1 51 6.5 85t27.5 91l203 -31q-14 144 -38 321zM1555 246q4 15 27 77q37 99 63 174
l-131 521q31 37 83 70.5t114.5 54t122.5 20.5q99 0 165 -58q-5 -30 -13 -107q-20 -188 -41 -343.5t-47 -262.5l-19 -78l150 67l79 -125q-44 -102 -116 -189t-159 -87q-47 0 -115 36.5t-117.5 90.5t-49.5 105q0 19 4 34z" />
    <glyph glyph-name="f_f_l" unicode="ffl" horiz-adv-x="2114" 
d="M2120 254q-20 -62 -63 -125.5t-100 -106t-116 -42.5q-62 0 -128 47t-120 111q-14 16 -21.5 33.5t-7.5 42.5q0 9 4 35l69 357q-44 229 -84 571q-123 0 -252 52q-50 20 -90.5 54t-60.5 62l19 -292l260 45q29 -44 29 -121q0 -64 -18 -131.5t-37 -94.5q-60 -2 -120 10t-96 31
q29 -555 29 -839q0 -92 -3 -167q-9 -55 -55.5 -105.5t-110.5 -82.5t-122 -36q-78 14 -129 56t-88 94q-1 51 6.5 85t27.5 91l203 -31q-23 236 -102 771q-24 161 -45 313.5t-29 234.5q-74 22 -140 47q-50 19 -96.5 51t-80 63.5t-46.5 49.5l19 -366l260 77q29 -44 29 -126
q0 -69 -18 -141.5t-37 -99.5q-55 -2 -112 17t-104 44q29 -555 29 -839q0 -92 -3 -167q-9 -55 -55.5 -105.5t-110.5 -82.5t-122 -36q-78 14 -129 56t-88 94q-1 51 6.5 85t27.5 91l203 -31q-14 144 -38 321t-65 454q-41 284 -59.5 425.5t-19.5 204.5q38 85 117.5 185.5
t240.5 165.5q114 -26 292.5 -56t289.5 -39q71 58 162 95q22 -4 151 -35q103 -25 173.5 -40.5t128.5 -22.5q55 44 127.5 71t142.5 27q92 0 149 -47q-8 -234 -29.5 -513t-66.5 -739l143 67z" />
    <glyph glyph-name="f_i_trk" unicode="fi" horiz-adv-x="1359" 
d="M163 178q-24 177 -65 454q-41 284 -59.5 425.5t-19.5 204.5q38 85 117.5 185.5t240.5 165.5q110 -25 181 -36.5t133 -11.5q31 0 61 3q11 -22 11 -62q0 -69 -31 -154t-72 -123q-81 6 -129.5 26t-71 43.5t-54.5 67.5l20 -345l260 77q29 -44 29 -126q0 -69 -18 -141.5
t-37 -99.5q-55 -2 -112 17t-104 44q29 -555 29 -839q0 -92 -3 -167q-9 -55 -55.5 -105.5t-110.5 -82.5t-122 -36q-78 14 -129 56t-88 94q-1 51 6.5 85t27.5 91l203 -31q-14 144 -38 321zM934 1247.5q64 -39.5 101 -40.5q35 6 94 50.5t113 103t75 103.5q-27 116 -125.5 166.5
t-219.5 50.5q-63 -182 -138 -351q36 -43 100 -82.5zM811 246q4 15 27 77q37 99 63 174l-131 521q31 37 83 70.5t114.5 54t122.5 20.5q99 0 165 -58q-5 -30 -13 -107q-20 -188 -41 -343.5t-47 -262.5l-19 -78l150 67l79 -125q-44 -102 -116 -189t-159 -87q-47 0 -115 36.5
t-117.5 90.5t-49.5 105q0 19 4 34z" />
    <glyph glyph-name=".notdef" horiz-adv-x="1703" 
d="M240 20.5q-18 20.5 -18 57.5v1376q0 37 17.5 58t48.5 21h1117q38 0 57 -20t19 -56v-1381q0 -36 -19 -56t-57 -20h-1114q-33 0 -51 20.5zM1278 448q0 20 -17 35l-284 284l275 276q21 21 21 40q0 13 -12 25l-67 69q-14 15 -32 15q-19 0 -32 -15l-281 -282l-287 288
q-14 14 -32 14q-16 0 -29 -13l-61 -58q-15 -15 -15 -32t15 -32l287 -289l-285 -285q-14 -12 -14 -31t17 -36l55 -55q18 -19 38 -19q22 0 41 21l276 277l281 -279q20 -20 40 -20q18 0 33 15l52 52q17 17 17 35z" />
    <glyph glyph-name=".null" 
 />
    <glyph glyph-name="nonmarkingreturn" unicode="&#xd;" horiz-adv-x="329" 
 />
    <glyph glyph-name="NULL" 
 />
    <glyph glyph-name="NULL" 
 />
    <glyph glyph-name="uni0001" 
 />
    <glyph glyph-name="uni0002" 
 />
    <glyph glyph-name="uni0003" 
 />
    <glyph glyph-name="uni0004" 
 />
    <glyph glyph-name="uni0005" 
 />
    <glyph glyph-name="uni0006" 
 />
    <glyph glyph-name="uni0007" 
 />
    <glyph glyph-name="uni0008" 
 />
    <glyph glyph-name="HT" unicode="&#x9;" 
 />
    <glyph glyph-name="LF" unicode="&#xa;" 
 />
    <glyph glyph-name="DLE" 
 />
    <glyph glyph-name="DC1" 
 />
    <glyph glyph-name="DC2" 
 />
    <glyph glyph-name="DC3" 
 />
    <glyph glyph-name="DC4" 
 />
    <glyph glyph-name="uni0015" 
 />
    <glyph glyph-name="uni0016" 
 />
    <glyph glyph-name="uni0017" 
 />
    <glyph glyph-name="uni0018" 
 />
    <glyph glyph-name="uni0019" 
 />
    <glyph glyph-name="RS" 
 />
    <glyph glyph-name="US" 
 />
    <glyph glyph-name="space" unicode=" " horiz-adv-x="400" 
 />
    <glyph glyph-name="exclam" unicode="!" horiz-adv-x="691" 
d="M521 687q-18 -39 -78 -65t-128 -26q-47 0 -86.5 14.5t-63.5 44.5q17 138 52 258q-20 78 -48 171q-34 116 -51.5 192.5t-32.5 190.5q49 65 145.5 105.5t200.5 40.5q40 0 78 -12.5t64 -34.5l-116 -602zM233 400q-52 -59 -98 -120.5t-54 -84.5q52 -149 237 -229
q49 16 112.5 60t115.5 103.5t66 121.5q-55 77 -133 138t-169 86q-25 -16 -77 -75z" />
    <glyph glyph-name="quotedbl" unicode="&#x22;" horiz-adv-x="905" 
d="M110 1586q-52 -9 -88 -25l86 -621h172q48 123 79.5 286.5t38.5 304.5q-29 32 -80 48t-108 16q-48 0 -100 -9zM562 1586q-52 -9 -88 -25l86 -621h172q48 123 79.5 286.5t38.5 304.5q-29 32 -80 48t-108 16q-48 0 -100 -9z" />
    <glyph glyph-name="numbersign" unicode="#" horiz-adv-x="1444" 
d="M1020 1169q64 0 120.5 -19.5t111.5 -60.5l-49 -230h199q11 -49 11 -92q0 -73 -33 -146h-224l-56 -312h230q14 -39 14 -90q0 -87 -40 -174l-266 13l-65 -313q-74 -1 -139.5 17t-137.5 56l50 246l-215 8l-57 -328q-156 7 -286 74l43 264l-208 19q-4 33 -4 69q0 40 8 72.5
t26 66.5h211l41 305l-229 12q-16 60 -16 101q0 28 7.5 58t23.5 74h246l46 303q31 5 71 5q70 0 132.5 -20.5t124.5 -57.5l-48 -230h222l47 302q50 8 88 8zM794 309l50 302h-208l-56 -302h214z" />
    <glyph glyph-name="dollar" unicode="$" horiz-adv-x="980" 
d="M574.5 800q93.5 -60 179 -125t120.5 -110q1 -12 1 -38q0 -65 -9 -135.5t-24 -113.5q-65 -63 -130 -110t-139 -78q24 -107 37 -270q-60 -41 -138 -41q-54 0 -103.5 20.5t-80.5 56.5l58 251q-90 9 -216 28q-48 87 -48 165q0 43 11.5 75t23.5 52t15 27q195 -6 377 -139
l49 24q7 38 7 116q0 32 -1 43q-45 13 -110 37q-116 43 -217.5 96t-138.5 101q-13 50 -17.5 171.5t-4.5 211.5q0 27 32.5 64t74.5 70.5t71 50.5q38 22 89.5 45.5t97.5 36.5l-31 235q33 52 89 79.5t128 27.5q88 0 125 -36l-64 -311q29 -6 50 -15l161 -54q10 -37 10 -75
q0 -92 -42 -193.5t-107 -157.5q-67 28 -157.5 96t-138.5 134l-26 -9l-9 -215q52 -28 145.5 -88z" />
    <glyph glyph-name="percent" unicode="%" horiz-adv-x="1990" 
d="M368.5 -54.5q-46.5 40.5 -56.5 89.5l1066 1541q56 -3 129.5 -54t116.5 -110l-1149 -1524q-60 17 -106.5 57.5zM728 1437.5q90 -111.5 90 -303.5q0 -126 -43.5 -225.5t-133 -157.5t-221.5 -58q-197 0 -288.5 116t-91.5 311q2 126 44.5 222.5t130.5 151.5t220 55
q203 0 293 -111.5zM314 1131q0 -95 25 -202q46 -31 128 -50l45 32q19 89 19 170q0 95 -25 197l-119 42l-50 -24q-23 -78 -23 -165zM1840 723.5q90 -111.5 90 -303.5q0 -126 -43.5 -225.5t-133 -157.5t-221.5 -58q-197 0 -288.5 116t-91.5 311q2 126 44.5 222.5t130.5 151.5
t220 55q203 0 293 -111.5zM1426 417q0 -95 25 -202q46 -31 128 -50l45 32q19 89 19 170q0 95 -25 197l-119 42l-50 -24q-23 -78 -23 -165z" />
    <glyph glyph-name="ampersand" unicode="&#x26;" horiz-adv-x="1444" 
d="M1410 766q0 -64 -16.5 -120.5t-40 -94.5t-42.5 -48q-94 38 -188 102l-13 -12q28 -175 28 -392q-39 -50 -106.5 -97.5t-148 -80.5t-156.5 -43q-89 5 -208 31t-222 63t-149 73q-16 51 -24.5 110t-8.5 116q0 58 9 107t26 81q40 47 101 92.5t121 71.5q-71 95 -116 170
t-78 148.5t-77 188.5q10 53 69.5 123t138 125.5t139.5 68.5q56 -8 189.5 -42.5t175.5 -56.5l343 31q13 -62 13 -122q0 -88 -24.5 -163.5t-58 -124.5t-59.5 -61q-45 2 -137.5 36t-184.5 85.5t-142 103.5l-62 -48l82 -336q23 10 53 16.5t57 8.5q33 -53 33 -126
q0 -50 -15 -99.5t-40 -85.5t-53 -48q-21 4 -55 18t-65 31l-33 -33q-3 -48 -3 -101q0 -65 4 -101q57 -30 169 -56t196 -26q23 0 33 1l-8 29q-36 144 -57 237t-32 186q13 72 51.5 144t93.5 99l188 -70l263 70q47 -82 47 -179z" />
    <glyph glyph-name="quotesingle" unicode="'" horiz-adv-x="453" 
d="M110 1586q-52 -9 -88 -25l86 -621h172q48 123 79.5 286.5t38.5 304.5q-29 32 -80 48t-108 16q-48 0 -100 -9z" />
    <glyph glyph-name="parenleft" unicode="(" horiz-adv-x="694" 
d="M525 1403.5q-46 -193.5 -70 -337t-26 -211.5q13 -243 82 -490t182 -544q-108 -83 -280 -112q-143 302 -209.5 567.5t-85.5 523.5q0 172 59.5 395t145 408.5t157.5 248.5l156 -50q-65 -205 -111 -398.5z" />
    <glyph glyph-name="parenright" unicode=")" horiz-adv-x="694" 
d="M169 157.5q46 193.5 70 337t26 211.5q-13 243 -82 490t-182 544q108 83 280 112q143 -302 209.5 -567.5t85.5 -523.5q0 -172 -59.5 -395t-145 -408.5t-157.5 -248.5l-156 50q65 205 111 398.5z" />
    <glyph glyph-name="asterisk" unicode="*" horiz-adv-x="1081" 
d="M385 596q-81 0 -153.5 52.5t-112.5 121.5q127 154 308 257l-2 11l-49 -1q-90 0 -180 10.5t-159 32.5q7 95 50 185.5t112 137.5l275 -241l13 8q-26 63 -46.5 188.5t-26.5 211.5q40 37 93.5 58t111.5 21q38 0 82 -8t75 -23l-138 -456q4 -3 6.5 -6t5.5 -5l317 225
q37 -35 57 -93t20 -124t-19 -122q-67 -15 -151 -15q-78 0 -213 19l-5 -10l308 -244q-45 -74 -119 -119t-167 -56q-39 65 -78.5 159t-71.5 192l-8 2z" />
    <glyph glyph-name="plus" unicode="+" horiz-adv-x="1069" 
d="M982 695q0 -52 -19 -107t-56 -127h-250v-347q-60 -70 -145 -70q-48 0 -110 24l19 392h-330q-3 30 -3 55q0 50 13 84t46 90l269 21l-59 324q33 52 89 79.5t128 27.5q88 0 125 -36l-40 -376l316 25q7 -28 7 -59z" />
    <glyph glyph-name="comma" unicode="," horiz-adv-x="651" 
d="M110 -244q43 24 137.5 103t182 174t119.5 171q-11 44 -45 98.5t-112.5 101t-203.5 47.5l-199 -627z" />
    <glyph glyph-name="hyphen" unicode="-" horiz-adv-x="967" 
d="M861 738q7 -28 7 -62q0 -106 -75 -253q-34 -3 -97 -3q-79 0 -236.5 5t-348.5 12q-3 30 -3 57q0 56 14 99.5t45 95.5z" />
    <glyph glyph-name="period" unicode="." horiz-adv-x="590" 
d="M167 400q-52 -59 -98 -120.5t-54 -84.5q52 -149 237 -229q49 16 112.5 60t115.5 103.5t66 121.5q-55 77 -133 138t-169 86q-25 -16 -77 -75z" />
    <glyph glyph-name="slash" unicode="/" horiz-adv-x="788" 
d="M221.5 -223.5q-61.5 17.5 -118.5 57.5l272 1826q27 9 73 9q68 0 149 -18.5t124 -45.5l-361 -1844q-77 -2 -138.5 15.5z" />
    <glyph glyph-name="zero" unicode="0" horiz-adv-x="1158" 
d="M980.5 1023q111.5 -162 106.5 -442q-3 -172 -57.5 -307t-170 -214.5t-292.5 -79.5q-262 0 -379 158.5t-117 423.5q0 281 123 452t394 171q281 0 392.5 -162zM425 588q0 -146 30 -298q65 -44 177 -68l62 43q24 134 24 248q0 78 -8.5 161.5t-24.5 151.5l-163 57l-69 -33
q-28 -130 -28 -262z" />
    <glyph glyph-name="one" unicode="1" horiz-adv-x="748" 
d="M600 720.5q-24 -198.5 -58 -349.5q31 -99 51 -173t33 -176q-29 -22 -74.5 -32t-98.5 -10q-63 0 -136 11.5t-101 30.5l77 543l-30 203l-191 -33l-69 149q77 98 203.5 182.5t257.5 113.5q90 -53 166 -122q-6 -139 -30 -337.5z" />
    <glyph glyph-name="two" unicode="2" horiz-adv-x="1135" 
d="M1071 263q0 -104 -57 -183q-75 -100 -185 -100q-79 0 -177.5 47t-163.5 105l-1 -2l-3 6l-15 14q-22 -37 -27 -45q-78 -117 -209 -122q-42 26 -78.5 99.5t-56.5 163t-17 157.5q69 61 151 88q31 -9 61.5 -26.5t71.5 -51.5q73 72 169 183t133 166l-3 53l-209 75l-31 -12
l-37 -277q-59 -21 -112 -21q-37 0 -90 15q-29 58 -55.5 151.5t-26.5 171.5q0 69 24 110q37 37 115.5 79.5t163.5 71.5t142 29q64 -4 154.5 -28.5t178 -67.5t141.5 -100q22 -90 22 -165q0 -48 -9 -104q-44 -57 -133 -132t-185.5 -142.5t-157.5 -101.5l1 -10l238 -30l90 142
l148 -28q35 -95 35 -178z" />
    <glyph glyph-name="three" unicode="3" horiz-adv-x="1075" 
d="M820.5 451.5q96.5 -40.5 157.5 -92.5t61 -100q0 -173 -60 -293t-169 -183q-59 -34 -149 -54t-167 -20q-146 0 -257 58t-177 154q-6 30 -6 55q0 42 16.5 72t50.5 59q114 -57 209 -89t193 -33q47 0 110 12q16 32 29 87t21 107q-29 47 -78 81.5t-115 65.5
q-31 -52 -91.5 -95.5t-112.5 -53.5q-34 7 -65.5 40.5t-51 82t-19.5 99.5q0 66 33 119l92 36l125 -38q58 70 115 144.5t83 114.5l-3 23l-216 80l-31 -16l-28 -183q-64 -22 -121 -22t-112 23l-12 36q-21 59 -32.5 102.5t-11.5 86.5q0 61 29 111q37 44 112.5 80.5t163.5 63.5
q48 16 87.5 26t57.5 10q45 0 137 -30.5t181 -76.5t131 -89q23 -74 23 -150q0 -57 -13 -122q-122 -142 -316 -234q100 -14 196.5 -54.5z" />
    <glyph glyph-name="four" unicode="4" horiz-adv-x="1198" 
d="M1079 905q0 -107 -24.5 -323.5t-63.5 -387.5q15 -47 42.5 -189.5t41.5 -255.5q-29 -22 -74.5 -32t-98.5 -10q-61 0 -130 11.5t-97 30.5l47 329l-381 66q-36 -39 -83 -68t-87 -37q-34 7 -65.5 43t-51 89t-19.5 107q0 69 33 122l111 -14l66 680q44 58 118.5 86.5
t157.5 28.5q49 0 103 -12t78 -43l-267 -760l306 -22l-89 433q-16 -1 34.5 48t133.5 89.5t183 40.5q41 0 75 -15q1 -8 1 -35z" />
    <glyph glyph-name="five" unicode="5" horiz-adv-x="1049" 
d="M831 600q81 -56 122.5 -152t41.5 -211q0 -154 -55 -273t-167 -187t-276 -68q-146 0 -258 58t-182 154q-8 26 -8 62q0 39 15 67.5t46 56.5q94 -46 148.5 -70t121 -42t132.5 -18q44 0 83 6q16 9 29 62t13 115t-11 116.5t-27 69.5l-169 -5q-20 -39 -56.5 -82.5t-77.5 -76
t-76 -39.5q-35 10 -71.5 50t-61.5 94t-26 103q-3 64 31 111l140 -8l-149 469q2 43 21.5 92.5t52 90.5t71.5 60q24 -5 54.5 -12t61.5 -14q153 -37 198 -44l375 70q47 -82 47 -179q0 -63 -19.5 -123t-46 -101t-45.5 -51q-39 2 -120.5 18.5t-166 42t-137.5 53.5l-29 -365l6 -5
q135 133 232 159q112 2 193 -54z" />
    <glyph glyph-name="six" unicode="6" horiz-adv-x="1158" 
d="M590.5 847q101.5 78 200.5 79q114 2 179 -38t91.5 -115t26.5 -190l-1 -42q-9 -261 -137.5 -411t-392.5 -150q-249 0 -368 165t-119 449q0 43 3 88q103 437 696 867q58 -29 91.5 -68.5t69.5 -115.5q-180 -196 -323 -367t-237 -324l22 -12q97 107 198.5 185zM425.5 408
q4.5 -28 19.5 -80l6 -21q29 -26 83 -49.5t93 -28.5l63 43q17 82 17 165q0 99 -27 217q-68 -17 -130 -55.5t-130 -97.5q1 -65 5.5 -93z" />
    <glyph glyph-name="seven" unicode="7" horiz-adv-x="1050" 
d="M715 284l-163 -559q-25 -8 -45 -11.5t-46 -3.5q-96 0 -181 34t-109 94l287 527l153 458l-239 35l-27 -327l-175 -20q-32 34 -61.5 100.5t-48 147.5t-18.5 155q0 45 7 81q10 52 69.5 100t128.5 78.5t93 29.5q86 -17 150.5 -41t158.5 -67l40 -18q58 46 111 76.5t113 49.5
q63 -35 97.5 -105.5t34.5 -154.5q0 -93 -38 -173l-122 20z" />
    <glyph glyph-name="eight" unicode="8" horiz-adv-x="1087" 
d="M1033 381q0 -105 -38 -196q-112 -127 -425 -219q-64 1 -155.5 20.5t-181 58.5t-146.5 93q-31 99 -31 195q0 38 4 73q16 94 87.5 179t175.5 166l-199 169v1q-24 44 -42 124t-18 157q0 93 27 144q35 39 111 85.5t159.5 79.5t140.5 36q64 -1 155.5 -20.5t181 -58.5
t146.5 -93q31 -99 31 -195q0 -38 -4 -73q-33 -70 -114.5 -167.5t-166.5 -163.5l284 -238q18 -85 18 -157zM507 980q27 -29 82 -84q26 65 38 121.5t22 151.5q-106 66 -224 67l-39 -18l-10 -103q58 -56 131 -135zM696 418l-215 213q-36 -42 -119 -174q-13 -21 -15 -24l8 -92
q127 -65 251 -65q13 0 41 2l40 18z" />
    <glyph glyph-name="nine" unicode="9" horiz-adv-x="1153" 
d="M561 361.5q-102 -77.5 -202 -77.5q-71 0 -135 47t-106 134.5t-52 203.5q-3 32 -3 62q0 148 62 261t182 175.5t289 62.5q249 0 368 -165t119 -449q0 -43 -3 -88q-42 -178 -152 -329t-235 -258.5t-296 -231.5q-58 29 -91.5 68.5t-69.5 115.5q69 75 114 121
q158 168 258.5 284.5t174.5 237.5l-22 12q-98 -109 -200 -186.5zM726 798.5q-6 42.5 -24 104.5q-29 26 -83 49.5t-93 28.5l-63 -43q-17 -82 -17 -177q0 -115 27 -234l260 153q-1 76 -7 118.5z" />
    <glyph glyph-name="colon" unicode=":" horiz-adv-x="691" 
d="M222 400q-52 -59 -98 -120.5t-54 -84.5q52 -149 237 -229q49 16 112.5 60t115.5 103.5t66 121.5q-55 77 -133 138t-169 86q-25 -16 -77 -75zM222 1167q-52 -59 -98 -120.5t-54 -84.5q52 -149 237 -229q49 16 112.5 60t115.5 103.5t66 121.5q-55 77 -133 138t-169 86
q-25 -16 -77 -75z" />
    <glyph glyph-name="semicolon" unicode=";" horiz-adv-x="691" 
d="M222 1167q-52 -59 -98 -120.5t-54 -84.5q52 -149 237 -229q49 16 112.5 60t115.5 103.5t66 121.5q-55 77 -133 138t-169 86q-25 -16 -77 -75zM133 -244q43 24 137.5 103t182 174t119.5 171q-11 44 -45 98.5t-112.5 101t-203.5 47.5l-199 -627z" />
    <glyph glyph-name="less" unicode="&#x3c;" horiz-adv-x="881" 
d="M858 211q-12 -54 -56 -115t-86 -86l-580 333q-24 28 -42 116.5t-18 166.5q0 36 4 56l591 425q26 -11 62 -53t66 -93t38 -84l-405 -357z" />
    <glyph glyph-name="equal" unicode="=" horiz-adv-x="1093" 
d="M98 658q0 52 13.5 90.5t45.5 92.5l832 65q7 -28 7 -60q0 -55 -19.5 -114t-55.5 -129l-820 -1q-3 30 -3 56zM98 266q0 52 13.5 90.5t45.5 92.5l832 65q7 -28 7 -60q0 -55 -19.5 -114t-55.5 -129l-820 -1q-3 30 -3 56z" />
    <glyph glyph-name="greater" unicode="&#x3e;" horiz-adv-x="881" 
d="M23 906q12 54 56 115t86 86l580 -333q24 -28 42 -116.5t18 -166.5q0 -36 -4 -56l-591 -425q-26 11 -62 53t-66 93t-38 84l405 357z" />
    <glyph glyph-name="question" unicode="?" horiz-adv-x="955" 
d="M525 813q10 -1 29 -1q65 0 126.5 14t106.5 30.5t45 17.5q33 115 33 266q0 69 -7.5 131t-20.5 106q-61 87 -164.5 139.5t-205.5 73.5t-168 21q-39 -17 -79.5 -66.5t-70.5 -114t-39 -124.5l116 -24q149 -29 239 -52.5t155 -59.5l-303 -182q-54 -33 -76.5 -64.5t-22.5 -67.5
q0 -23 7.5 -48.5t23.5 -71.5q27 -71 41 -131l187 -10zM312 400q-52 -59 -98 -120.5t-54 -84.5q52 -149 237 -229q49 16 112.5 60t115.5 103.5t66 121.5q-55 77 -133 138t-169 86q-25 -16 -77 -75z" />
    <glyph glyph-name="at" unicode="@" horiz-adv-x="1704" 
d="M1362 -199.5q-174 -35.5 -370 -35.5q-197 0 -372 39t-290 120q-56 66 -102 174t-72.5 229t-26.5 224q0 102 18 226.5t47.5 232.5t60.5 165q58 60 161 107.5t229 73.5t248 26q175 0 334.5 -89t256 -250t90.5 -365q-27 -113 -63.5 -191t-98.5 -170l-268 4q37 87 70.5 219
t53 247.5t16.5 143.5q-44 51 -97.5 74.5t-127.5 23.5q-44 0 -83 -7t-53 -16l2 -49q4 -145 4 -150q-47 79 -93.5 139.5t-105.5 100.5q-65 -10 -148.5 -44.5t-144.5 -116.5q-11 -16 -15.5 -25.5t-4.5 -19.5q0 -14 10 -44q28 -92 44.5 -234t16.5 -248q0 -33 -2 -85
q-1 -17 -1 -40q1 -21 18.5 -36t54.5 -37q22 -12 35 -21q27 -20 47 -30t39 -10q26 0 49 20q48 40 96 143t100 240l8 20l21 -5q-18 -107 -29 -224q-1 -9 -1 -24q0 -24 6 -40.5t12 -24t23 -25.5q34 -36 76.5 -58.5t80.5 -22.5q72 0 178.5 37t251.5 141q35 -68 59 -143.5
t24 -138.5q0 -31 -6 -56q-92 -59 -266 -94.5zM743 649l-1 105l203 -43l-1 -61q-32 -70 -92 -174.5t-104 -147.5l-36 20q34 169 31 301z" />
    <glyph glyph-name="A" unicode="A" horiz-adv-x="1272" 
d="M1203.5 434.5q43.5 -262.5 43.5 -352.5q0 -18 -2 -48q-87 -54 -209 -54q-76 0 -142.5 22t-101.5 59l81 272l-19 87h-54q-124 7 -254 18q-18 -149 -40 -240t-77.5 -154.5t-156.5 -63.5q-88 0 -163 43t-103 117l45 163l132 -11l174 875q-159 22 -230 49q3 87 36.5 184
t91.5 149q369 -61 770 -183q135 -669 178.5 -931.5zM802 655l-104 476l-86 7q-5 -87 -16.5 -227t-26.5 -278z" />
    <glyph glyph-name="B" unicode="B" horiz-adv-x="1316" 
d="M1289 497q0 -110 -45 -214t-125 -183.5t-183 -116.5q-54 -6 -109 -6q-122 0 -283 19t-276.5 52.5t-115.5 74.5q0 16 7 40q24 88 60 207q-24 48 -54.5 262.5t-54 450.5t-23.5 298q0 10 1 12q45 61 120.5 98.5t156.5 37.5q93 0 165 -49l-95 -497l29 -14l227 562
q71 17 130 17q42 0 103.5 -15.5t129.5 -48t125 -80.5q-3 -134 -28.5 -313t-63.5 -354l-13 -58q169 -27 202 -68q13 -55 13 -114zM548 746q62 -2 218 -9q8 109 14 229t7 177l-47 8q-74 -149 -192 -405zM877 274q12 55 16.5 86.5t4.5 66.5q0 27 -3 63l-401 83
q-20 -120 -29 -229q87 -50 196 -83t205 -39q11 51 11 52z" />
    <glyph glyph-name="C" unicode="C" horiz-adv-x="1011" 
d="M515 1032q0 -155 -14.5 -366t-30.5 -346q38 5 91 24t177 67q106 41 160 61l75 -167q-37 -63 -114 -134t-180.5 -125t-213.5 -66q-47 0 -110.5 35t-121.5 80q-33 26 -48 48.5t-19 48.5q-12 241 -24 421q-27 422 -53 558q-6 34 -6 115q12 46 57.5 99t107.5 97.5t121 66.5
q47 -9 130.5 -38t128.5 -52l316 22q13 -62 13 -122q0 -88 -24.5 -163.5t-58 -124.5t-59.5 -61q-144 60 -281 182l-24 -22q5 -62 5 -138z" />
    <glyph glyph-name="D" unicode="D" horiz-adv-x="1334" 
d="M1251.5 1126.5q2.5 -39.5 2.5 -130.5q0 -78 -14 -249t-35 -332.5t-39 -224.5q-10 -36 -84 -83t-168.5 -84t-158.5 -44q-73 40 -135 104t-86 117q-55 -94 -112 -154.5t-134 -65.5q-41 20 -87 75t-79 122t-37 122l89 124q38 14 97 14h33q-32 188 -49.5 341.5t-33.5 340.5
l-8 91l-183 16q8 111 36.5 193t98.5 130l712 -60q94 -44 195.5 -115.5t169.5 -147.5q7 -60 9.5 -99.5zM838 1129l-242 51l-36 -783l17 -3l271 -82q7 142 7 274q0 363 -17 543z" />
    <glyph glyph-name="E" unicode="E" horiz-adv-x="1110" 
d="M974 1463q24 -59 24 -132q0 -82 -28.5 -157t-76.5 -112q-74 7 -159.5 27.5t-265.5 69.5l-44 12l39 -320q114 13 189 26t185 36q3 1 79 17q40 -61 40 -152q0 -61 -16 -117.5t-35 -76.5q-30 -3 -60 -3q-103 0 -200.5 20t-173.5 63l-14 -355l287 -10l82 190l180 -15
q15 -41 26.5 -126.5t11.5 -154.5q-40 -81 -104.5 -136.5t-146.5 -76.5q-130 4 -319.5 31.5t-300.5 56.5q-79 94 -93 196l158 417l-243 584q0 65 49 141.5t114 121.5l333 -73l412 94q47 -27 71 -86z" />
    <glyph glyph-name="F" unicode="F" horiz-adv-x="1075" 
d="M701 855.5q68 12.5 173 34.5q6 1 68 14q21 -31 31 -73t10 -85q0 -61 -16 -117.5t-35 -76.5q-30 -5 -74 -5q-78 0 -157 22t-151 63l-5 -5q40 -111 61 -198t21 -176q0 -29 -3 -59q-5 -61 -57.5 -110t-125.5 -76.5t-136 -27.5q-58 0 -113 31t-96.5 76t-63.5 87l65 137h233
l-308 942q-1 7 -1 22q0 64 30 141.5t76 124.5l449 -94l354 102q46 -24 70 -84t24 -135q0 -80 -27 -151t-76 -104q-197 28 -468 106l79 -353q101 15 169 27.5z" />
    <glyph glyph-name="G" unicode="G" horiz-adv-x="1171" 
d="M1050 499l64 -476q-24 -17 -66.5 -30t-82.5 -13q-69 1 -127 17t-93 51q4 52 19 159l17 129l-24 11q-58 -133 -142.5 -250t-168.5 -117q-42 0 -87 32q-55 29 -126 83q-33 26 -48 48.5t-19 48.5q-12 241 -24 421q-19 294 -49 558q-3 30 -6 62.5t-4 52.5q12 46 57.5 99
t107.5 97.5t121 66.5q49 -7 163.5 -41.5t158.5 -57.5l343 31q13 -62 13 -122q0 -88 -24.5 -163.5t-58 -124.5t-59.5 -61q-78 16 -190 68t-181 114l-24 -22q5 -62 5 -138q0 -155 -14.5 -366t-30.5 -346l-1 -37l3 -1q28 -1 94 49.5t161 133.5l37 32q-35 103 -48 187t-13 131
q19 10 66.5 18.5t101.5 8.5q92 0 158.5 -29.5t118.5 -92.5z" />
    <glyph glyph-name="H" unicode="H" horiz-adv-x="1335" 
d="M1309 177q-18 -43 -56.5 -89t-93.5 -77t-116 -31q-70 0 -124.5 30t-85.5 86t-32 132q-1 67 6 131.5t23 166.5l9 55q-259 16 -348 28v-2q24 -114 41 -271.5t26 -316.5q-32 -21 -72.5 -30t-94.5 -9q-87 0 -152 21.5t-106 60.5q8 153 34.5 321.5t62.5 272.5
q-37 111 -64.5 253.5t-60.5 347.5l-23 142q19 30 67 60t114.5 50t136.5 20q100 0 166 -40l-59 -689q70 11 168 24t163 20q-35 144 -64 292.5t-44 263.5q20 30 68 60t113.5 50t135.5 20q104 0 169 -40l-78 -1174l136 3z" />
    <glyph glyph-name="I" unicode="I" horiz-adv-x="666" 
d="M149 1459q48 30 114.5 50t136.5 20q100 0 166 -40l-78 -906q25 -119 43.5 -269t26.5 -295q-32 -21 -72.5 -30t-94.5 -9q-87 0 -152 21.5t-106 60.5q8 153 34.5 321.5t62.5 272.5q-37 111 -64.5 253.5t-60.5 347.5l-23 142q19 30 67 60z" />
    <glyph glyph-name="J" unicode="J" horiz-adv-x="999" 
d="M777 1153l-62 -335l161 -602q-33 -127 -124.5 -228t-220.5 -145q-21 -3 -43 -3q-73 0 -156.5 18t-148.5 46t-87 56q-2 26 -2 37q0 32 13 90t35 111.5t48 77.5q45 -27 130 -84q76 -50 121.5 -78t64.5 -35l-65 647l3 434l-132 16v-216l-166 -36q-31 32 -63.5 92.5t-54 132
t-21.5 135.5q0 77 29.5 132.5t79.5 84t111 28.5q53 0 130 -20.5t151 -52t120 -61.5q38 57 95.5 104t124.5 50q55 -41 90 -125t35 -171q0 -59 -16 -103q-14 -8 -37.5 -12.5t-48.5 -4.5q-62 0 -89 20h-5z" />
    <glyph glyph-name="K" unicode="K" horiz-adv-x="1324" 
d="M1324 350q0 -73 -28 -149.5t-66 -131.5q-30 -44 -76 -66t-103 -22t-122 21q-56 17 -95 69t-69 130q-39 105 -62 261q-116 9 -194 17q47 -261 59 -460q-60 -39 -177 -39q-88 0 -157.5 22t-110.5 60q7 144 38 314t69 280q-37 111 -64.5 253.5t-60.5 347.5l-23 142
q19 30 67 60t114.5 50t136.5 20q100 0 166 -40l-72 -834l106 12q63 119 128.5 274.5t84.5 241.5l-141 50q12 111 56.5 197.5t113.5 118.5q49 0 121 -18t144.5 -58t120.5 -101q-16 -137 -117.5 -329.5t-232.5 -377.5q115 -222 193 -299q57 20 135 86z" />
    <glyph glyph-name="L" unicode="L" horiz-adv-x="1142" 
d="M1101.5 517.5q9.5 -71.5 9.5 -148.5q0 -168 -55.5 -278.5t-193.5 -110.5q-144 0 -358 170q-94 -161 -246 -170q-41 20 -87 75t-79 122t-37 122l89 124q38 14 97 14h33q-32 185 -49.5 338t-33.5 339q-7 81 -14.5 157t-16.5 128q19 30 67 60t114.5 50t136.5 20
q48 0 87 -9.5t74 -30.5l-105 -1080l13 -1l253 -48l95 289l184 -24q13 -36 22.5 -107.5z" />
    <glyph glyph-name="M" unicode="M" horiz-adv-x="1859" 
d="M1829 168q-4 -7 -31.5 -57t-86.5 -90.5t-136 -40.5q-60 0 -111.5 22t-85.5 66t-42 106q-10 75 -21 320q-11 206 -11 467q0 128 3 210l-19 3l-194 -851q26 -55 40 -113t28 -143l6 -32q-38 -27 -89 -40.5t-109 -13.5q-75 0 -146.5 22t-116.5 59q0 51 9.5 121t31.5 103
l-289 889l-19 -7q12 -56 37 -235t45.5 -372.5t22.5 -312.5q2 -120 -53 -194t-178 -74h-6h-13q-86 2 -158 45.5t-100 116.5l45 163l111 -9v9l69 870l-169 51q8 106 49.5 190t137.5 133q53 -7 154 -36.5t204.5 -73.5t167.5 -93l172 -790l8 1l26 220q36 212 78 423
q-66 28 -98 47q9 97 64 180.5t151 121.5q53 -7 156 -50.5t200.5 -99.5t138.5 -100q-11 -266 -30 -519.5t-61 -472.5l186 27z" />
    <glyph glyph-name="N" unicode="N" horiz-adv-x="1371" 
d="M1034 395q-152 882 -152 1035q12 26 50 49t90 36.5t104 13.5q43 0 91 -11.5t77 -31.5l-86 -1138q46 -56 71 -103t37 -114q-32 -77 -102.5 -114.5t-164.5 -37.5q-75 0 -156.5 18.5t-122.5 51.5q-3 17 -3 44q0 40 6.5 82.5t19.5 69.5l-437 925l-5 -2q20 -66 65 -243.5
t86.5 -368.5t53.5 -308q2 -30 2 -45q0 -101 -51.5 -162t-160.5 -61q-90 0 -167 44t-112 118l31 163l111 -9l-8 879q-47 3 -92.5 15.5t-80.5 35.5q0 108 33.5 191t125.5 132q98 -12 227 -53t228 -111l388 -994z" />
    <glyph glyph-name="O" unicode="O" horiz-adv-x="1291" 
d="M1185.5 1192q3.5 -50 3.5 -132q0 -107 -14 -290t-35 -349t-39 -231q-9 -34 -47 -61t-104 -61q-7 -3 -12 -5.5l-9 -4.5q-72 -37 -125 -55.5t-105 -23.5q-75 5 -180 30t-198.5 62.5t-135.5 75.5q-29 184 -56 491.5t-27 454.5q0 85 6.5 149.5t29.5 94.5q34 45 135.5 94
t209.5 83.5t145 34.5q52 0 167.5 -34.5t224.5 -87.5t153 -106q9 -79 12.5 -129zM486 786q0 -297 14 -455q46 -27 111 -55t114 -38l61 42q11 102 11 306q0 146 -5.5 291t-14.5 241l-211 91l-69 -35q-11 -140 -11 -388z" />
    <glyph glyph-name="P" unicode="P" horiz-adv-x="1264" 
d="M1223 1286q0 -176 -28.5 -376t-78.5 -340q-26 -30 -73.5 -72.5t-99 -74.5t-88.5 -32q-51 -1 -169.5 21t-205.5 49l36 -179l206 -13l28 -124q-19 -39 -71.5 -77.5t-124.5 -63.5t-148 -25q-62 0 -110.5 24.5t-76 62.5t-27.5 77q0 45 7.5 170.5t19.5 174.5q-24 48 -54.5 238
t-54 395.5t-23.5 260.5l1 11q45 61 121 98.5t157 37.5q92 0 164 -49l-95 -497l29 -14l267 562q21 6 57.5 11.5t75.5 5.5q42 0 103.5 -16t128.5 -48.5t123 -79.5q4 -48 4 -118zM833 1018q0 64 -6 125l-47 8q-73 -111 -159.5 -251.5t-116.5 -204.5q17 -7 49 -22
q66 -31 113 -49.5t82 -18.5q42 0 47 33q38 215 38 380z" />
    <glyph glyph-name="Q" unicode="Q" horiz-adv-x="1291" 
d="M1177 -76q12 -30 12 -71q0 -50 -16.5 -106t-44.5 -102.5t-60 -68.5q-8 -16 -28 -22q-95 11 -250.5 46.5t-276.5 81.5q-66 -85 -160 -92q-64 40 -100.5 134.5t-31.5 198.5q45 25 77 38.5t68 18.5l55 -49l146 99q-127 17 -232 46.5t-150 70.5q-29 184 -56 491.5t-27 454.5
q0 85 6.5 149.5t29.5 94.5q34 45 135.5 94t209.5 83.5t145 34.5q52 0 167.5 -34.5t224.5 -87.5t153 -106q9 -79 12.5 -129t3.5 -132q0 -107 -14 -290t-35 -349t-39 -231q-11 -44 -93 -91q-45 -30 -115 -64t-169 -79q-40 -18 -70 -32.5t-31 -17.5l4 -29q406 28 550 47z
M500 331q46 -27 111 -55t114 -38l61 42q11 102 11 306q0 146 -5.5 291t-14.5 241l-211 91l-69 -35q-11 -140 -11 -388q0 -297 14 -455z" />
    <glyph glyph-name="R" unicode="R" horiz-adv-x="1364" 
d="M1355 350q-3 -73 -33.5 -149.5t-70.5 -131.5q-32 -44 -78 -66.5t-103 -22.5q-54 0 -122 22q-166 53 -207 463l-268 36q28 -66 54.5 -214t35.5 -260q-34 -23 -80 -35t-96 -12q-76 0 -145 24t-105 65q23 112 40 173t42 128q-24 49 -54.5 263.5t-54 450t-23.5 297.5l1 12
q45 61 121 98.5t157 37.5q92 0 164 -49l-95 -497l29 -14l267 562q21 6 57.5 11.5t75.5 5.5q42 0 103.5 -16t128.5 -48.5t123 -79.5q2 -150 -22.5 -334.5t-73.5 -346.5q-58 -86 -152 -165q31 -58 62.5 -105.5t70.5 -86.5q54 19 137 86zM618 894q-94 -153 -128 -222l316 22
q26 169 26 339q0 63 -5 110l-47 8q-68 -104 -162 -257z" />
    <glyph glyph-name="S" unicode="S" horiz-adv-x="1050" 
d="M667 381q0 43 -9 73q-68 19 -187.5 76.5t-223 126t-134.5 122.5q-11 40 -18 115t-15 199q-5 90 -11 151q69 111 158 182.5t209 122.5q56 -17 188 -87l42 -22l320 15q17 -65 17 -130q0 -85 -25.5 -157t-60.5 -118.5t-61 -59.5q-49 10 -117 39.5t-140.5 76t-129.5 102.5
h-13l-38 -210q67 -39 183 -120.5t227.5 -176.5t164.5 -173q1 -8 1 -24q0 -67 -21.5 -164.5t-44.5 -171.5q-65 -65 -126.5 -111.5t-134.5 -76.5q-75 8 -290 32t-208 25q-64 111 -64 217q0 50 11 87t20.5 56.5t11.5 24.5q206 -15 446 -179l60 25q13 67 13 113z" />
    <glyph glyph-name="T" unicode="T" horiz-adv-x="1103" 
d="M934.5 1102q-73.5 18 -125.5 43l-60 -561l9 -270l220 101l78 -132q-11 -50 -60.5 -123t-115.5 -127t-127 -54q-73 0 -150 30.5t-130.5 87.5t-60.5 130q-2 26 -2 39q0 46 7 90t23 118q15 63 22 106h2l-60 639l-111 28l-41 -281q-64 -22 -121 -22t-112 23q-21 64 -37.5 144
t-16.5 150q0 84 27 132q52 64 131.5 106.5t152.5 49.5l439 -111l348 111q46 -24 70.5 -83t24.5 -132q0 -77 -27.5 -146.5t-76.5 -103.5q-46 0 -119.5 18z" />
    <glyph glyph-name="U" unicode="U" horiz-adv-x="1272" 
d="M1199 1060q0 -107 -14 -290t-35 -349t-39 -231q-9 -33 -47.5 -59.5t-103.5 -58.5q-6 -3 -13.5 -6.5t-15.5 -7.5q-73 -37 -126 -55.5t-105 -23.5q-74 4 -173 29.5t-186.5 63t-130.5 75.5q-28 178 -52.5 479.5t-24.5 454.5q0 62 2 98l-140 47q8 106 49.5 190t137.5 133
q121 -15 367 -203l-3 -2l3 1l-25 -171l-1 -388q0 -321 15 -475q113 -66 250 -83q6 52 9 156t3 202q0 151 -6 336.5t-15 278.5l-164 46q9 97 64 180.5t151 121.5q51 -7 149 -48t189 -92l12 -87v-1l3 -26l5 -38q11 -99 11 -197z" />
    <glyph glyph-name="V" unicode="V" horiz-adv-x="1211" 
d="M814 1082l-19 16q-63 54 -101 95.5t-71 108.5q28 73 89 126t137.5 83t153.5 40q81 -65 132.5 -184.5t60.5 -239.5l-369 -868q39 -91 61 -218q-39 -31 -107.5 -47t-149.5 -16q-90 0 -171 18.5t-120 49.5q9 122 51 236l-267 783l-175 222q8 76 48 130.5t100.5 83
t127.5 28.5q102 0 178 -57q16 -32 72 -254.5t107 -473.5t63 -401z" />
    <glyph glyph-name="W" unicode="W" horiz-adv-x="1839" 
d="M1745.5 1383q44.5 -101 49.5 -218l-303 -896q38 -82 57 -193q-43 -36 -119.5 -54.5t-164.5 -18.5q-92 0 -171.5 20.5t-117.5 56.5q7 63 23.5 115t40.5 103l-142 492l-130 -518q39 -82 58 -196q-43 -36 -119.5 -54.5t-164.5 -18.5q-92 0 -171.5 20.5t-117.5 56.5
q12 108 61 211l-207 795l-3 11l-173 230q25 52 78 103.5t119 85t126 34.5q48 2 90.5 -15.5t73.5 -54.5h1q13 -28 50 -246.5t71 -471.5t42 -389h7l159 687q-58 51 -98 100.5t-74 125.5q67 111 178.5 179t226.5 82q62 -56 103.5 -173.5t45.5 -236.5l-1 -2q3 -18 32 -113
q57 -193 96.5 -352t47.5 -297h17l99 683l-40 33q-61 51 -98.5 91.5t-64.5 99.5q31 74 98 132t148.5 93.5t156.5 44.5q80 -66 124.5 -167z" />
    <glyph glyph-name="X" unicode="X" horiz-adv-x="1345" 
d="M606 527q-23 -89 -38.5 -143t-36.5 -113q-104 -290 -238 -290q-55 0 -111 72t-96.5 176.5t-53.5 191.5q39 57 89 93t119 61l141 -142l124 313l-187 374l-155 -97l-137 134q9 61 34 132t63.5 130.5t85.5 85.5q81 22 147 22q86 0 145 -40.5t98 -124.5q52 -112 74 -218
t29 -208q23 179 53 315t49 157q38 44 119 80.5t165 40.5q88 -79 150 -198t64 -234q-84 -120 -252 -157l-113 186l-159 -340l235 -407l142 126l135 -100q-30 -178 -106 -316q-30 -54 -87.5 -81.5t-137.5 -27.5q-64 0 -120 26.5t-84 77.5q-57 103 -90.5 234.5t-43.5 241.5
l-6 2z" />
    <glyph glyph-name="Y" unicode="Y" horiz-adv-x="1168" 
d="M452 1480l133 -840h45l153 438q-56 49 -96.5 101t-75.5 129q45 107 154 166t235 75q79 -65 119.5 -165t45.5 -219q-52 -134 -145.5 -307t-191.5 -284l-136 -76l31 -191q40 6 117.5 30t128.5 45l75 -146q-25 -58 -89 -118t-141.5 -99t-140.5 -39q-72 0 -141 30.5t-113 87
t-45 130.5q-1 50 5 93t17 100q12 60 15 84l-149 116l-142 510l-120 138q4 106 55.5 164t112 77t105.5 19q110 0 179 -49z" />
    <glyph glyph-name="Z" unicode="Z" horiz-adv-x="1208" 
d="M1129 625q13 -36 22.5 -107.5t9.5 -148.5q0 -168 -55.5 -278.5t-193.5 -110.5q-99 0 -222 69t-242 169q-31 -99 -95 -168.5t-147 -69.5q-44 28 -85 93.5t-66.5 144t-25.5 142.5q0 14 1 21q31 42 69 77.5t69 52.5q70 -15 120 -42l365 685l-237 36l-45 -303l-185 -40
q-31 34 -61 104t-48.5 155.5t-18.5 162.5q0 46 7 82q10 52 69.5 97.5t128 73.5t93.5 27q103 -14 228 -48.5t242 -77.5q47 48 95 80t109 46q71 -17 107.5 -85.5t36.5 -161.5q0 -100 -40 -186l-123 4q-68 -110 -223 -344t-247 -357l309 -59l95 289z" />
    <glyph glyph-name="bracketleft" unicode="[" horiz-adv-x="710" 
d="M639 -95l-38 -196l-394 46l-58 1969l151 125l383 -46q1 -17 1 -49q0 -113 -26 -210q-22 -2 -32 -2q-35 0 -69 9t-73 27l-22 -1606z" />
    <glyph glyph-name="backslash" unicode="\" horiz-adv-x="788" 
d="M47 1605q43 27 124 45.5t149 18.5q46 0 73 -9l272 -1826q-57 -40 -118.5 -57.5t-138.5 -15.5z" />
    <glyph glyph-name="bracketright" unicode="]" horiz-adv-x="710" 
d="M11 1633l49 216l447 -47l-3 -1969l-151 -125l-322 46q-1 17 -1 46q0 47 6 88t20 94q22 2 33 2q87 0 163 -36l-73 1617q-112 26 -168 68z" />
    <glyph glyph-name="asciicircum" unicode="^" horiz-adv-x="1209" 
d="M268 332q-37 3 -79 23.5t-76.5 49t-50.5 55.5q20 62 104 276.5t167.5 412t109.5 240.5q28 24 116.5 42t166.5 18q36 0 56 -4l362 -975q-11 -27 -45.5 -57.5t-77.5 -53.5t-79 -27l-367 685z" />
    <glyph glyph-name="underscore" unicode="_" horiz-adv-x="1698" 
d="M-47 -319q0 51 17 105t45 103l1700 -1q7 -22 7 -52q0 -52 -21.5 -107.5t-53.5 -99.5l-1688 -2q-6 25 -6 54z" />
    <glyph glyph-name="grave" unicode="`" horiz-adv-x="692" 
d="M269.5 1327.5q128.5 -60.5 229.5 -80.5q25 21 53.5 64.5t45.5 90.5q-70 59 -121.5 114.5t-133.5 152.5l-53 63q-58 -20 -107 -66.5t-78.5 -105t-29.5 -114.5q66 -58 194.5 -118.5z" />
    <glyph glyph-name="a" unicode="a" horiz-adv-x="1201" 
d="M1201 278q-58 -133 -131.5 -216t-155.5 -83q-46 0 -99 28t-94 72q-4 4 -19 20t-23.5 39t-8.5 54q0 18 1 28q14 139 34 269l-15 7q-157 -402 -260 -492q-31 -24 -60 -24q-24 0 -48 12.5t-59 37.5q-13 9 -45 27q-44 25 -65.5 44t-22.5 45q0 28 1 50q2 64 2 104
q0 131 -20.5 305.5t-55.5 288.5q-12 41 -12 55q0 12 5.5 24t19.5 31q55 71 129 114.5t135 61.5t98 23q73 -50 132 -125.5t114 -170.5q-1 61 -6 179l-2 67q17 11 65 19.5t103 8.5q91 0 157.5 -29t119.5 -92q4 -34 -20 -176.5t-65 -305.5t-87 -271l173 92zM573.5 498
q64.5 112 103.5 195q2 24 2 27v53q-56 13 -129 28l-85 18l1 -107v-33q0 -152 -35 -327l30 -14q48 48 112.5 160z" />
    <glyph glyph-name="b" unicode="b" horiz-adv-x="1140" 
d="M852.5 1166q61.5 -16 128.5 -48.5t123 -79.5q-3 -149 -32 -341t-71.5 -373t-85.5 -301q-32 -23 -105.5 -33t-148.5 -10q-123 0 -264 24.5t-230 72.5q-23 12 -31.5 21t-8.5 27q0 14 6 38l35 144l16 61h-2l1 2q-24 52 -55.5 282.5t-56 483t-24.5 317.5q0 11 1 13
q51 63 142.5 105t180.5 42q94 0 152 -47q-9 -165 -28.5 -336.5t-53.5 -423.5q-13 -95 -37 -285l10 -4l222 648q29 8 51.5 12.5t61.5 4.5q42 0 103.5 -16zM697.5 514.5q13.5 174.5 14.5 262.5l-27 8q-48 -98 -127 -265t-101 -220q37 -32 105.5 -57t108.5 -28
q13 125 26.5 299.5z" />
    <glyph glyph-name="c" unicode="c" horiz-adv-x="902" 
d="M52.5 896q-7.5 22 -7.5 34q0 38 61.5 93.5t117.5 88.5q52 31 123.5 61.5t113.5 30.5q29 0 72 -18.5t110 -53.5l48 -25l186 -48q5 -37 5 -64q0 -91 -34.5 -171t-79.5 -131.5t-72 -59.5q-58 34 -103.5 86t-102.5 131l-28 39q9 -75 9 -187q0 -106 -9 -213t-26 -189l19 -16
q36 15 135 64.5t183 94.5l101 -153q-25 -47 -105.5 -122t-175.5 -131.5t-167 -56.5q-39 0 -92 29t-86.5 54.5t-80.5 63.5q-32 28 -43.5 47t-11.5 41q0 10 1 19t2 16q6 36 6 69q0 150 -16 309.5t-44 240.5q-1 5 -8.5 27z" />
    <glyph glyph-name="d" unicode="d" horiz-adv-x="1200" 
d="M1206 279q-56 -133 -128 -216t-154 -83q-46 0 -99.5 28t-95.5 72q-3 3 -19 19.5t-25 40.5t-9 56q0 16 1 25q4 45 16 235l3 39l-5 2q-55 -146 -127 -292t-135 -200q-29 -25 -59 -25q-23 0 -46.5 12.5t-60.5 38.5q-17 12 -44 27q-43 24 -65.5 43.5t-23.5 45.5l-1 83
q-2 145 -6.5 240.5t-19.5 207t-46 217.5q-12 41 -12 55q0 12 5.5 24t19.5 31q54 71 128 114.5t135 61.5t98 23q71 -49 123.5 -118.5t117.5 -177.5l5 2q-9 114 -32.5 294.5t-27.5 212.5q-16 122 -18 142q18 22 75.5 38t127.5 16q76 0 146 -21.5t120 -67.5q1 -5 1 -33
q0 -104 -15.5 -344t-43 -479t-63.5 -360l171 92zM572.5 500.5q64.5 113.5 101.5 193.5l2 24l-1 56q-39 10 -128 28l-83 18l2 -107q3 -165 -36 -360l30 -14q48 48 112.5 161.5z" />
    <glyph glyph-name="e" unicode="e" horiz-adv-x="949" 
d="M472 284q30 6 74.5 27t124.5 62q62 33 127 65l85 -139q-44 -59 -133.5 -134.5t-192 -130t-185.5 -54.5q-26 0 -51 13.5t-55 44.5q-26 26 -39 37q-21 19 -39.5 33.5t-23.5 18.5q-31 28 -42.5 51.5t-11.5 50.5q0 18 3 40q4 38 4 69q0 140 -19.5 300t-40.5 230
q-12 41 -12 54q0 40 59.5 96t115.5 91q55 34 131 64.5t126 30.5q35 -2 78 -30q96 -65 150.5 -91.5t133.5 -54.5l28 -10q12 -5 17 -10t9.5 -18.5t9.5 -43.5q6 -36 6 -77q0 -80 -21 -119q-9 -16 -86 -101.5t-177 -188t-182 -176.5h29zM449 831q0 -55 -7 -199t-16 -212l-1 -3
l28 40q66 96 112.5 169.5t77.5 147.5q-54 12 -194 57z" />
    <glyph glyph-name="f" unicode="f" horiz-adv-x="744" 
d="M163 178q-24 177 -65 454q-41 284 -59.5 425.5t-19.5 204.5q38 85 117.5 185.5t240.5 165.5q110 -25 181 -36.5t133 -11.5q31 0 61 3q11 -22 11 -62q0 -69 -31 -154t-72 -123q-81 6 -129.5 26t-71 43.5t-54.5 67.5l20 -345l260 77q29 -44 29 -126q0 -69 -18 -141.5
t-37 -99.5q-55 -2 -112 17t-104 44q29 -555 29 -839q0 -92 -3 -167q-9 -55 -55.5 -105.5t-110.5 -82.5t-122 -36q-78 14 -129 56t-88 94q-1 51 6.5 85t27.5 91l203 -31q-14 144 -38 321z" />
    <glyph glyph-name="g" unicode="g" horiz-adv-x="1143" 
d="M1108 1060l-4 -20q-11 -51 -22.5 -92t-38.5 -104t-76 -148l132 -758q-21 -81 -76 -155.5t-133 -131t-166 -86.5q-21 -3 -43 -3q-70 0 -149 27t-141.5 65t-85.5 68q-1 13 -1 35q0 36 5.5 62t20.5 75q75 -17 201.5 -32.5t194.5 -15.5q2 60 2 96q0 94 -8 296q-9 195 -8 290
l-13 9q-62 -178 -139.5 -325.5t-146.5 -206.5q-31 -24 -60 -24q-24 0 -48 12.5t-58 37.5q-17 12 -44 27q-44 25 -65.5 44t-21.5 45l2 61q4 74 4 112q0 135 -17 300.5t-49 274.5q-11 37 -11 55q0 12 6 24t20 31q56 71 130.5 114.5t136 61.5t98.5 23q70 -49 121 -118.5
t114 -177.5q-1 61 -6 179l-2 67q17 11 65 19.5t103 8.5q91 0 157.5 -29t119.5 -92l-1 -1h1zM566 501q67 114 104 193q2 24 2 27v53q-43 11 -128 28l-82 18v-107q0 -165 -42 -360l30 -14q49 48 116 162z" />
    <glyph glyph-name="h" unicode="h" horiz-adv-x="1198" 
d="M669 781q-64 -139 -108 -231t-95 -190q34 -100 54 -173.5t30 -162.5q-60 -44 -172 -44q-79 0 -154.5 22.5t-111.5 63.5q19 115 33.5 176.5t36.5 125.5l1 2q-26 53 -66.5 289.5t-73.5 491.5t-33 307l1 8q47 61 135.5 104.5t176.5 43.5q95 0 158 -48q-3 -165 -16.5 -334
t-39.5 -433q-5 -48 -12 -118.5t-15 -162.5l13 -3l4 -1q21 66 63 220q44 158 72 248t67 183q71 17 130 17q67 0 164 -35t189 -109q0 -85 -21.5 -214.5t-59 -267t-81.5 -245.5l170 89l89 -121q-23 -68 -67 -137.5t-99 -115.5t-109 -46q-46 0 -99.5 26t-90.5 66q-35 37 -49 71
t-12 78l25 551z" />
    <glyph glyph-name="i" unicode="i" horiz-adv-x="615" 
d="M190 1247.5q64 -39.5 101 -40.5q35 6 94 50.5t113 103t75 103.5q-27 116 -125.5 166.5t-219.5 50.5q-63 -182 -138 -351q36 -43 100 -82.5zM67 246q4 15 27 77q37 99 63 174l-131 521q31 37 83 70.5t114.5 54t122.5 20.5q99 0 165 -58q-5 -30 -13 -107
q-20 -188 -41 -343.5t-47 -262.5l-19 -78l150 67l79 -125q-44 -102 -116 -189t-159 -87q-47 0 -115 36.5t-117.5 90.5t-49.5 105q0 19 4 34z" />
    <glyph glyph-name="j" unicode="j" horiz-adv-x="564" 
d="M161 1238.5q64 -39.5 101 -40.5q36 6 95 48t112.5 98.5t74.5 100.5q-27 116 -125.5 166.5t-219.5 50.5q-47 -137 -138 -341q36 -43 100 -82.5zM406 373q83 -363 83 -565q0 -43 -2 -62q-4 -29 -46 -73.5t-101.5 -77.5t-116.5 -33q-56 10 -112 38t-99 61t-62 58
q-3 37 -3 62q0 28 4 51t13 55q20 -1 59.5 -7t58.5 -8l38 -6l33 699l-127 453q31 37 83 70.5t114.5 54t122.5 20.5q99 0 165 -58l-4 -39q-49 -449 -93 -638l-8 -35l-4 -22z" />
    <glyph glyph-name="k" unicode="k" horiz-adv-x="1112" 
d="M647 760q-98 80 -151 205q30 63 92 117t135.5 87t137.5 35q45 -43 84.5 -111t62.5 -144t23 -142q-36 -62 -104 -158t-149 -189q14 -20 44.5 -54.5t56.5 -60.5q59 30 118 93l118 -91q0 -81 -8.5 -129.5t-32.5 -100.5q-31 -69 -84 -103t-120 -34q-48 0 -104 17
q-65 20 -109.5 88.5t-71.5 164.5l-20 -22q-90 -96 -146.5 -150.5t-120.5 -97.5q-23 3 -65 22t-83 47t-62 56q4 143 27.5 291t58.5 266q-61 197 -97.5 369.5t-78.5 434.5q50 62 144 104.5t186 42.5q94 0 152 -47q2 -39 2 -126q0 -250 -28 -586.5t-63 -588.5l11 -5
q121 202 245 500z" />
    <glyph glyph-name="l" unicode="l" horiz-adv-x="626" 
d="M83.5 171.5q-7.5 17.5 -7.5 42.5q0 9 4 35l69 357q-28 145 -54.5 339.5t-43.5 350t-14 170.5q49 62 139.5 104.5t179.5 42.5q92 0 149 -47q-8 -234 -29.5 -513t-66.5 -739l143 67l80 -127q-20 -62 -63 -125.5t-100 -106t-116 -42.5q-62 0 -128 47t-120 111
q-14 16 -21.5 33.5z" />
    <glyph glyph-name="m" unicode="m" horiz-adv-x="1704" 
d="M1200 769q-8 -15 -89 -164q-39 -71 -76 -139.5t-51 -102.5q30 -87 40.5 -153.5t18.5 -178.5q-33 -25 -79 -38t-97 -13q-69 0 -132 23t-98 62q8 83 18 130.5t25 102.5q12 37 18 68l-31 408l-24 4l-40 -82q-124 -258 -160 -336q35 -103 54.5 -173.5t29.5 -159.5
q-32 -23 -78.5 -35t-98.5 -12q-79 0 -151.5 24t-109.5 65q17 95 28 140.5t30 115.5l12 43q-28 62 -64.5 219t-63 306t-22.5 168q23 38 72.5 66.5t110.5 43.5t117 15q99 0 146 -41l-73 -628l26 -3l165 656q35 14 97 14l59 -1q61 0 136.5 -19.5t135.5 -57.5q3 -36 3 -72
q0 -78 -11 -151t-35 -199q-17 -82 -26 -135l29 -6l190 623q5 1 21 6t38 8t50 3q77 0 173.5 -27t182.5 -97q-6 -154 -43.5 -345t-118.5 -403l170 89l89 -121q-23 -68 -67 -137.5t-99 -115.5t-109 -46q-46 0 -99.5 26t-90.5 66q-36 38 -50.5 71.5t-11.5 80.5q16 276 38 540z
" />
    <glyph glyph-name="n" unicode="n" horiz-adv-x="1192" 
d="M461 360q51 -151 84 -336q-62 -44 -187 -44q-69 0 -142 23t-109 63q20 115 34.5 176.5t35.5 125.5q-23 54 -59 204t-64 298t-28 184l1 7q33 56 121.5 87.5t178.5 31.5q104 0 145 -37l-73 -626l16 -3q16 53 34.5 121t26.5 99q37 142 66 239.5t69 191.5q47 15 133 15
q105 0 196 -33.5t155 -108.5q0 -85 -21.5 -214.5t-59 -267t-81.5 -245.5l170 89l89 -121q-23 -68 -67 -137.5t-99 -115.5t-109 -46q-46 0 -99.5 26t-90.5 66q-36 38 -49.5 70t-11.5 79l25 551l-29 9q-117 -258 -201 -421z" />
    <glyph glyph-name="o" unicode="o" horiz-adv-x="1083" 
d="M1019.5 894.5q3.5 -48.5 3.5 -135.5q0 -140 -24.5 -318.5t-52.5 -280.5q-17 -21 -66 -52t-98 -56q-66 -33 -114 -50t-96 -22q-68 6 -160 30t-171.5 57.5t-114.5 68.5q-31 198 -47.5 342t-16.5 280q0 125 18 248q28 35 114 78.5t183 78t149 41.5q83 -8 179 -40t177.5 -79
t124.5 -98q9 -44 12.5 -92.5zM414 593q0 -160 14 -301q82 -54 166 -72l55 38q8 83 8 222q0 157 -17 320l-154 63l-60 -29q-12 -120 -12 -241z" />
    <glyph glyph-name="p" unicode="p" horiz-adv-x="1125" 
d="M619 -132l38 -163q-23 -35 -67 -68t-95 -54t-94 -21q-36 0 -77 17.5t-78 43.5q-31 22 -48 38t-28 42.5t-13 69.5l-26 739q-35 140 -69 316t-36 223v10q34 57 118.5 90t171.5 33q101 0 146 -41l-73 -619l3 -1l231 642q8 2 25 7t37.5 8.5t46.5 3.5q42 0 103.5 -16
t129.5 -49t124 -81q-5 -241 -48 -489t-137 -554q-52 -15 -98 -15q-97 0 -194 25t-151 54q-11 -90 -34 -191h192zM546 523.5q-71 -149.5 -94 -203.5q39 -33 108 -61t108 -30q11 106 20 274.5t11 273.5l-27 8q-55 -112 -126 -261.5z" />
    <glyph glyph-name="q" unicode="q" horiz-adv-x="1134" 
d="M994 -97l124 70l88 -100q-65 -176 -138 -249q-59 -60 -118 -62q-107 -4 -221 78q-43 30 -64 63t-21 73q0 11 1 16l58 703l-20 2q-56 -144 -131 -291t-139 -201q-32 -25 -60 -25q-23 0 -45.5 12t-60.5 39q-17 12 -44 27q-44 25 -65.5 44t-21.5 45l2 61q4 74 4 112
q0 135 -17 300.5t-49 274.5q-11 37 -11 55q0 12 6 24t20 31q79 100 184.5 141.5t180.5 51.5q71 -50 123.5 -119.5t111.5 -170.5q-1 61 -6 179l-2 67q17 11 65 19.5t103 8.5q91 0 157.5 -29t119.5 -92q4 -34 -19.5 -174.5t-64.5 -303t-86 -270.5zM566 501q67 114 104 193
q2 24 2 27v53q-43 11 -128 28l-82 18v-107q0 -165 -42 -360l30 -14q49 48 116 162z" />
    <glyph glyph-name="r" unicode="r" horiz-adv-x="1027" 
d="M425.5 617.5q8.5 48.5 13.5 77.5q27 167 51.5 283.5t56.5 187.5q63 14 128 14q91 0 168.5 -25t126.5 -59q9 -63 9 -132q0 -113 -18.5 -231.5t-42.5 -215.5q-75 -42 -158 -42q-50 0 -112 15q1 35 1 166q0 96 -1 132l-49 8q-37 -109 -110 -391l-35 -131l183 24l57 -134
q-59 -93 -143 -138.5t-182 -45.5q-56 0 -99 10t-73 38q-17 15 -39.5 46t-40 69.5t-17.5 73.5q0 22 7 40l80 198l-179 608q39 56 108 86.5t147 30.5q82 0 145 -31l-7 -602l11 -2q5 24 13.5 72.5z" />
    <glyph glyph-name="s" unicode="s" horiz-adv-x="900" 
d="M396 727q104 -55 249 -150.5t196 -159.5q1 -12 1 -36q0 -56 -8.5 -112t-24.5 -101q-65 -63 -130 -110t-140 -78q-84 3 -164.5 17.5t-183.5 37.5q-62 15 -94 20q-48 87 -48 165q0 43 11.5 75t23.5 52t15 27q95 -3 183.5 -47.5t193.5 -121.5l49 24q7 38 7 94q0 26 -1 37
q-45 13 -110 37q-116 43 -217.5 96t-138.5 101q-13 50 -17.5 151.5t-4.5 179.5q0 27 32.5 64t74.5 70.5t71 50.5q57 34 133 64t128 30q27 0 60 -13.5t81 -38.5q49 -25 62 -30l161 -54q10 -34 10 -73q0 -76 -39 -156.5t-110 -154.5q-61 25 -142.5 96t-133.5 142l-26 -9z" />
    <glyph glyph-name="t" unicode="t" horiz-adv-x="827" 
d="M827 349q-21 -54 -86.5 -144t-143 -157.5t-137.5 -67.5q-61 0 -139.5 40t-135 101t-58.5 119q0 22 13 76.5t52 179.5l-50 358l-96 6q-11 30 -16 70t-5 78q0 21 1 29l112 39l61 363q16 8 47.5 13.5t68.5 5.5q51 0 101 -10t87 -30l-11 -281l222 45q41 -70 41 -152
q0 -49 -10.5 -86.5t-29.5 -88.5q-114 -9 -233 -14l2 -529l216 178z" />
    <glyph glyph-name="u" unicode="u" horiz-adv-x="1164" 
d="M458.5 639.5q-11.5 -134.5 -39.5 -264.5l30 -14q35 34 80.5 114t83.5 164.5t49 124.5q-29 346 -29 390q17 11 65 19.5t103 8.5q91 0 157.5 -29t119.5 -92v-11q0 -50 -24.5 -190t-64.5 -294.5t-83 -257.5l173 92l85 -121q-57 -132 -130.5 -215.5t-154.5 -83.5
q-47 0 -100.5 27.5t-94.5 72.5q-4 4 -19.5 20t-24 39t-8.5 54q0 8 2 28q14 139 34 269l-15 7q-76 -193 -165.5 -355t-160.5 -162q-25 0 -49.5 12.5t-60.5 38.5l-35 23q-51 33 -77.5 56.5t-26.5 51.5l84 411l-155 431q26 64 84 106t128 61.5t137 19.5q68 0 104 -17
q10 -106 10 -243q0 -157 -11.5 -291.5z" />
    <glyph glyph-name="v" unicode="v" horiz-adv-x="1062" 
d="M165 693l-165 196q25 163 101 220q39 29 84 44.5t89 15.5q53 0 95 -22.5t64 -67.5h1q12 -26 41.5 -170t55.5 -315.5t33 -288.5l13 -1q37 94 71 220t50 215q-7 6 -44.5 38t-67 71t-49.5 84q28 66 86.5 126t129.5 99t135 47q69 -57 111 -162.5t46 -211.5q-15 -30 -31 -66
q-70 -148 -139.5 -284t-143.5 -261q35 -71 53 -175q-38 -32 -110.5 -48.5t-156.5 -16.5q-88 0 -163.5 18t-108.5 50q11 97 22.5 147.5t29.5 88.5z" />
    <glyph glyph-name="w" unicode="w" horiz-adv-x="1636" 
d="M1547.5 1041q47.5 -106 56.5 -211q-158 -373 -291 -611q40 -73 62 -175q-36 -32 -104.5 -48.5t-148.5 -16.5q-82 0 -152 18t-106 50q5 78 14 125t23 84l-65 233q-33 -113 -58 -192t-53 -147q15 -42 15 -107q-19 -30 -78.5 -46.5t-135.5 -16.5q-78 0 -148 17.5t-105 49.5
q7 103 15 150.5t24 85.5l-153 410l-154 275q0 53 41 102t102 79t117 30q58 0 105 -21.5t70 -64.5q1 -5 28 -151q88 -443 111 -637l13 -1q35 100 66.5 228t41.5 207q-7 6 -46.5 38.5t-70.5 71t-53 83.5q23 66 78 126t124.5 99t133.5 47q71 -57 118.5 -163t56.5 -211l-2 -1
q34 -143 61.5 -283t37.5 -240h15q36 99 68 226t42 207q-7 6 -46.5 38.5t-70.5 71t-53 83.5q23 66 78 126t124.5 99t133.5 47q71 -57 118.5 -163z" />
    <glyph glyph-name="x" unicode="x" horiz-adv-x="1139" 
d="M620 729q22 131 32 197q14 88 21 124t14 48q40 62 105.5 84t162.5 22q41 -35 81 -114t66 -170t26 -157q-22 -32 -67.5 -57.5t-81.5 -35.5q-21 18 -52.5 72.5t-53.5 105.5l-161 -189l188 -301l133 71l82 -98q-27 -116 -76 -213t-142 -129q-39 -10 -80 -10q-76 0 -127.5 32
t-68.5 89q-32 105 -49 188.5t-34 186.5h-21q-19 -180 -32.5 -277.5t-26.5 -112.5q-39 -47 -92 -76.5t-150 -29.5l-28 1q-41 35 -82.5 113.5t-68.5 168t-27 155.5q23 32 68.5 57.5t81.5 35.5q21 -18 53 -73t52 -105l160 221l-156 251l-143 -66l-91 113q27 116 76 214t141 130
q39 10 81 10q78 0 138 -34t76 -89q22 -75 32 -134.5t19 -140.5q5 -52 10 -81z" />
    <glyph glyph-name="y" unicode="y" horiz-adv-x="1115" 
d="M1080 1049l-4 -20q-13 -67 -35 -129.5t-80 -168.5l138 -793q-21 -81 -76 -155.5t-133 -131t-166 -86.5q-21 -3 -43 -3q-70 0 -149 27t-141.5 65t-85.5 68q-1 13 -1 35q0 36 5.5 62t20.5 75q75 -17 201.5 -32.5t194.5 -15.5q2 33 2 108q0 119 -7 290q-6 186 -6 258v30
l-10 3q-29 -75 -86 -186.5t-119 -208.5t-107 -135q-32 -25 -60 -25q-44 0 -116 51l-35 23q-51 33 -77.5 56.5t-26.5 51.5l84 411l-155 431q26 64 84 106t128 61.5t137 19.5q68 0 104 -17q10 -106 10 -243q0 -108 -6 -218q-5 -93 -15.5 -171t-29.5 -167l30 -14q35 34 81 109
t84 153t48 116q-29 346 -29 415q17 11 65 19.5t103 8.5q91 0 157.5 -29t119.5 -92q0 -7 -3 -16z" />
    <glyph glyph-name="z" unicode="z" horiz-adv-x="1027" 
d="M751 1159q48 44 114 47q56 -39 90.5 -124.5t34.5 -173.5q0 -59 -16 -103q-28 -18 -56 -18q-14 0 -49 7l-340 -436l184 -31l100 234l148 -28q13 -35 21.5 -90t8.5 -115q0 -74 -15 -139t-47 -109q-75 -100 -185 -100q-58 0 -128.5 27t-133 66.5t-98.5 76.5
q-37 -64 -61 -96.5t-56 -51t-79 -19.5q-41 25 -76 98.5t-56 164t-21 160.5q23 30 68 56.5t83 39.5q29 -8 60.5 -30t84.5 -68l185 406l-187 23v-216l-166 -36q-31 32 -63.5 92.5t-54 132t-21.5 135.5q0 77 29.5 131t79 81t110.5 27q56 0 136.5 -19.5t157.5 -49.5t123 -60
q43 64 91 108z" />
    <glyph glyph-name="braceleft" unicode="{" horiz-adv-x="852" 
d="M562.5 864.5q-37.5 -38.5 -91.5 -84.5v-15q74 -57 120 -104t61 -88l-55 -602l179 -67l-38 -186q-69 -9 -127 -9q-75 0 -143.5 14.5t-150.5 44.5l55 779l-46 45q-52 -26 -107 -26q-40 0 -79 13q-22 33 -34 74.5t-12 86.5q0 77 33 139t97 86q37 -27 109 -84l48 58l-83 758
q17 34 51.5 67t73.5 56.5t65 28.5q99 -24 183 -35t181 -11q1 -17 1 -49q0 -113 -26 -210q-27 -6 -55 -6q-70 0 -131 40v-618h-1v-1q-40 -56 -77.5 -94.5z" />
    <glyph glyph-name="bar" unicode="|" horiz-adv-x="649" 
d="M324 -314q-62 0 -124 21l-58 2089q34 23 104 38t139 15q54 0 95 -11l-10 -2127q-81 -25 -146 -25z" />
    <glyph glyph-name="braceright" unicode="}" horiz-adv-x="852" 
d="M219 598q29 46 71 88.5t98 90.5v15q-134 103 -169 180l10 614l-202 67l38 186q69 9 141 9q95 0 188 -15.5t170 -43.5l-77 -779l46 -45q52 26 107 26q39 0 79 -13q22 -33 34 -74.5t12 -86.5q0 -77 -33 -139t-97 -86l-109 84l-48 -59l61 -757q-17 -34 -51.5 -67
t-73.5 -56.5t-65 -28.5l-291 47q-1 17 -1 48q0 48 6 89.5t20 94.5q24 2 35 2q75 0 145 -37l-45 645h1v1z" />
    <glyph glyph-name="asciitilde" unicode="~" horiz-adv-x="1160" 
d="M37 488q13 61 70.5 142.5t134.5 140t148 58.5q56 0 195 -47t242 -90l175 129l121 -112q-14 -62 -68.5 -142t-129.5 -136.5t-146 -56.5q-37 0 -125.5 22.5t-179 54.5t-134.5 58l-182 -132z" />
    <glyph glyph-name="DEL" 
 />
    <glyph glyph-name="uni00A0" unicode="&#xa0;" horiz-adv-x="400" 
 />
    <glyph glyph-name="exclamdown" unicode="&#xa1;" horiz-adv-x="691" 
d="M460 777q52 59 98 120.5t54 84.5q-52 149 -237 229q-49 -16 -112.5 -60t-115.5 -103.5t-66 -121.5q55 -77 133 -138t169 -86q25 16 77 75zM172 490q18 39 78 65t128 26q47 0 86.5 -14.5t63.5 -44.5q-17 -138 -52 -258q20 -78 48 -171q34 -116 51.5 -192.5t32.5 -190.5
q-49 -65 -145.5 -105.5t-200.5 -40.5q-40 0 -78 12.5t-64 34.5l116 602z" />
    <glyph glyph-name="cent" unicode="&#xa2;" horiz-adv-x="962" 
d="M807 443l101 -153q-19 -35 -79 -91t-138.5 -110t-149.5 -83q14 -64 22.5 -137.5t17.5 -168.5q-60 -41 -141 -41q-57 0 -108.5 20.5t-82.5 56.5l51 292q-64 38 -139 99q-32 28 -43.5 47t-11.5 41q0 10 1 19t2 16q6 36 6 69q0 150 -16 309.5t-44 240.5q-1 5 -8.5 27
t-7.5 34q0 38 61.5 93.5t117.5 88.5q42 25 103 52.5t106 36.5l-26 246q33 52 79 74.5t118 22.5q44 0 85.5 -9t59.5 -27l-84 -362q22 -8 46 -19l206 -48q5 -37 5 -64q0 -91 -34.5 -171t-79.5 -131.5t-72 -59.5q-82 48 -166 117t-128 129q23 -205 23 -366q0 -142 -19 -233
l19 -16q230 96 348 159z" />
    <glyph glyph-name="sterling" unicode="&#xa3;" horiz-adv-x="1082" 
d="M1043.5 443q8.5 -55 8.5 -115q0 -74 -15 -139t-47 -109q-75 -100 -185 -100q-58 0 -128.5 27t-133 66.5t-98.5 76.5q-40 -68 -115.5 -115t-160.5 -52q-34 20 -61.5 68t-43 109.5t-15.5 122.5q0 52 12 95q57 24 116 24q61 0 110 -26l-41 266l-197 -1q-2 15 -2 43
q0 85 41 156l127 8l-64 423q2 40 51 86t107 85q52 36 124 71.5t109 35.5q29 0 50.5 -8.5t54.5 -27.5q19 -12 41 -22l295 -20q7 -41 7 -82q0 -94 -35 -165t-80 -112q-85 17 -152.5 49t-161.5 104q1 -22 1 -98q0 -129 -3 -297l240 15q5 -23 5 -46q0 -45 -14.5 -98t-37.5 -98
l-198 -1q-5 -172 -11 -284l231 -31l100 234l148 -28q13 -35 21.5 -90z" />
    <glyph glyph-name="currency" unicode="&#xa4;" horiz-adv-x="1183" 
d="M1083 320q46 -42 61 -73q-2 -40 -45 -91.5t-100.5 -88t-97.5 -36.5l-129 174q-85 -45 -181 -45q-44 0 -103 14t-98 35q-91 -141 -153 -171q-40 2 -91.5 45t-88 100.5t-36.5 97.5l182 133q-16 32 -25 80.5t-9 87.5q0 106 48 196q-159 101 -190 166q2 40 45 91.5t100.5 88
t97.5 36.5l144 -196q86 38 177 38q51 0 94.5 -7.5t83.5 -30.5q43 75 87.5 125t77.5 66q40 -2 91.5 -45t88 -100.5t36.5 -97.5l-179 -133q18 -47 29 -101.5t11 -95.5q0 -91 -43 -179q69 -41 115 -83zM725 568q0 44 -18 100q-25 20 -70.5 33.5t-87.5 13.5q-37 0 -58 -11
q-35 -66 -35 -127q0 -47 20 -101q23 -20 70.5 -34t90.5 -14q34 0 54 10l2 3q32 64 32 127z" />
    <glyph glyph-name="yen" unicode="&#xa5;" horiz-adv-x="1268" 
d="M775 613l9 -97l358 16q7 -35 7 -72q0 -42 -11 -83t-33 -68l-304 -1l21 -289q-32 -21 -70 -30t-87 -9q-85 0 -142 21t-100 61l17 246l-323 -1q-3 23 -3 41q0 80 42 141l298 13l7 111l-355 -1q-3 23 -3 41q0 41 11 77.5t31 63.5l217 5l-192 289l-168 146q5 94 47.5 161
t109 101.5t141.5 34.5q73 0 141 -33l201 -746h17l168 326q-56 49 -91 92t-69 113q30 76 89 137t132.5 95t147.5 34q80 -65 122.5 -165t49.5 -219q-54 -129 -279 -345l242 12q6 -27 6 -62q0 -42 -10.5 -84t-32.5 -73h-359z" />
    <glyph glyph-name="brokenbar" unicode="&#xa6;" horiz-adv-x="636" 
d="M309 776q-70 0 -139 15l-28 1005q34 23 104 38t139 15q54 0 95 -11l-5 -1040q-82 -22 -166 -22zM298 525q89 0 176 -26l-4 -788q-81 -25 -146 -25q-62 0 -124 21l-22 806q62 12 120 12z" />
    <glyph glyph-name="section" unicode="&#xa7;" horiz-adv-x="900" 
d="M738 442q45 -32 67 -49t36 -35q1 -12 1 -36q0 -56 -8.5 -112t-24.5 -101q-65 -63 -130 -110t-140 -78q-84 3 -164.5 17.5t-183.5 37.5q-62 15 -94 20q-48 87 -48 165q0 43 11.5 75t23.5 52t15 27q95 -3 183.5 -47.5t193.5 -121.5l49 24q7 38 7 109q0 31 -1 42
q-70 20 -163 59.5t-176.5 86t-126.5 88.5q-26 98 -26 169q0 35 52 85t108 88q-98 53 -134 99q-13 50 -17.5 155.5t-4.5 185.5q0 27 32.5 64t74.5 70.5t71 50.5q57 34 133 64t128 30q27 0 60 -13.5t81 -38.5q49 -25 62 -30l161 -54q10 -34 10 -73q0 -76 -39 -156.5
t-110 -154.5q-61 25 -142.5 96t-133.5 142l-26 -9l-9 -216q149 -79 272.5 -153.5t172.5 -136.5q1 -12 1 -36q0 -56 -8.5 -112t-24.5 -101l-113 -98zM386 658l95 -60l53 27q8 41 8 100q0 22 -2 44l-146 49z" />
    <glyph glyph-name="dieresis" unicode="&#xa8;" horiz-adv-x="1010" 
d="M132.5 1328.5q33.5 -32.5 80.5 -55.5t94 -26q62 27 117.5 87t85.5 130q-25 116 -113.5 166.5t-197.5 50.5q-15 -50 -32 -95t-29.5 -76.5t-18.5 -45.5l-29 -72q9 -31 42.5 -63.5zM600.5 1328.5q33.5 -32.5 80.5 -55.5t94 -26q62 27 117.5 87t85.5 130
q-25 116 -113.5 166.5t-197.5 50.5q-15 -50 -32 -95t-29.5 -76.5t-18.5 -45.5l-29 -72q9 -31 42.5 -63.5z" />
    <glyph glyph-name="copyright" unicode="&#xa9;" horiz-adv-x="1433" 
d="M1305.5 1258q9.5 -61 9.5 -164q0 -155 -24 -369.5t-52 -314.5q-14 -48 -111 -99t-211 -89t-163 -46q-80 7 -215.5 42.5t-242 85.5t-113.5 101q-28 178 -46 378.5t-18 342.5q0 82 6.5 143.5t28.5 90.5q33 43 148.5 90t240.5 80.5t162 33.5q52 0 172 -30.5t232 -78
t155 -98.5q32 -38 41.5 -99zM733 1029q44 -61 80 -102t81 -68q22 6 58.5 47.5t64.5 106t28 138.5q0 29 -4 53l-150 39l-39 20q-51 27 -87 43t-60 16q-35 0 -92.5 -24.5t-100.5 -50.5q-45 -27 -95 -72t-50 -75q0 -7 4 -20.5t10 -29.5q48 -142 48 -355q0 -26 -4 -56
q-3 -16 -3 -28q0 -18 9.5 -33.5t34.5 -38.5q4 -3 75.5 -61t134.5 -58q59 0 136 46t141.5 107t84.5 98l-81 124q-70 -37 -149.5 -76.5t-108.5 -51.5l-15 12q19 90 19 188q0 72 -11 175l24 10z" />
    <glyph glyph-name="ordfeminine" unicode="&#xaa;" horiz-adv-x="1033" 
d="M1033 239q-49 -114 -113 -185.5t-134 -71.5q-40 0 -85.5 24t-80.5 62q-3 3 -16 16.5t-20.5 34t-7.5 46.5q0 15 1 24q14 134 29 231l-13 6q-134 -345 -223 -423q-27 -20 -52 -20q-20 0 -40 10.5t-52 32.5q-18 13 -38 23q-37 21 -56 37.5t-20 39.5q0 23 1 41l1 86
q0 114 -17.5 265.5t-47.5 249.5q-10 34 -10 48q0 10 4.5 20.5t16.5 26.5q47 61 111 98.5t116.5 53t83.5 19.5q62 -43 113 -107.5t99 -146.5q-1 80 -5 151l-2 60q14 9 55.5 16.5t89.5 7.5q78 0 135 -25t103 -79q4 -29 -17 -151.5t-56.5 -262.5t-74.5 -233l149 79z
M493.5 428.5q55.5 96.5 88.5 167.5q2 20 2 23v45q-38 10 -114 25l-70 15l1 -92q3 -139 -30 -309l25 -12q42 41 97.5 137.5z" />
    <glyph glyph-name="guillemotleft" unicode="&#xab;" horiz-adv-x="1274" 
d="M629.5 82q-45.5 -46 -89.5 -72q-66 65 -209.5 177t-215.5 156q-24 28 -42 116.5t-18 166.5q0 36 4 56l436 425q29 -12 65.5 -40t65.5 -63t37 -66q-25 -72 -122 -199t-182 -213q92 -84 192.5 -185.5t146.5 -164.5q-23 -48 -68.5 -94zM1205.5 82q-45.5 -46 -89.5 -72
q-66 65 -209.5 177t-215.5 156q-24 28 -42 116.5t-18 166.5q0 36 4 56l436 425q29 -12 65.5 -40t65.5 -63t37 -66q-25 -72 -122 -199t-182 -213q92 -84 192.5 -185.5t146.5 -164.5q-23 -48 -68.5 -94z" />
    <glyph glyph-name="logicalnot" unicode="&#xac;" horiz-adv-x="1073" 
d="M703 441l-612 -1q-3 30 -3 56q0 56 14 98.5t45 94.5l717 56l85 -78v-375q-60 -70 -145 -70q-48 0 -110 24z" />
    <glyph glyph-name="uni00AD" unicode="&#xad;" horiz-adv-x="1707" 
 />
    <glyph glyph-name="registered" unicode="&#xae;" horiz-adv-x="1433" 
d="M1325 1271q10 -63 10 -170q0 -163 -25.5 -400t-53.5 -339q-14 -50 -113 -94.5t-213.5 -75t-174.5 -39.5q-92 8 -229 36t-245 72t-116 96q-28 179 -47 402.5t-19 374.5q0 84 6.5 148.5t29.5 94.5q34 44 153 92.5t248.5 83t168.5 34.5q54 0 178 -31.5t240 -80.5t160 -102
q32 -39 42 -102zM789.5 490.5q55.5 -70.5 156.5 -70.5q50 0 86 31.5t55.5 80.5t22.5 100l-72 84l-93 -47l-57 67l143 94q28 58 41.5 129t13.5 144q0 72 -13 137q-32 27 -80.5 46t-95 28.5t-71.5 8.5q-42 -44 -66.5 -81.5t-41.5 -79.5t-41 -116l-37 8l35 230q-41 28 -105 28
q-57 0 -110.5 -21.5t-78.5 -56.5q-3 -13 10.5 -153t32 -273.5t33.5 -163.5q-15 -37 -24.5 -72.5t-23.5 -101.5q20 -22 75.5 -36t104.5 -14q32 0 64.5 6.5t51.5 19.5q-6 61 -21.5 137.5t-31.5 114.5l69 -9q13 -128 68.5 -198.5zM798 961q0 -75 -18 -125l-151 -9q17 33 98 149
l42 61l22 -3q7 -28 7 -73z" />
    <glyph glyph-name="macron" unicode="&#xaf;" horiz-adv-x="749" 
d="M720 1608q8 -31 8 -75q0 -49 -12 -99.5t-36 -96.5q-93 -7 -293 -7q-178 0 -364 7q-3 26 -3 52q0 58 13 111.5t36 93.5z" />
    <glyph glyph-name="degree" unicode="&#xb0;" horiz-adv-x="978" 
d="M736 1451.5q95 -58.5 140 -159t45 -229.5q0 -132 -51 -241t-150.5 -173.5t-240.5 -64.5t-235.5 61t-140.5 165.5t-46 235.5t50.5 236t149.5 166.5t239 61.5q145 0 240 -58.5zM404 1216q-25 -35 -38.5 -79.5t-13.5 -90.5q0 -50 14 -100.5t38 -93.5q15 -11 41.5 -17
t58.5 -6q30 0 60 6q23 39 35.5 85.5t12.5 94.5q0 51 -14 100t-38 87q-59 18 -109 18q-26 0 -47 -4z" />
    <glyph glyph-name="plusminus" unicode="&#xb1;" horiz-adv-x="1069" 
d="M91 584q-3 30 -3 55q0 50 13 84t46 90l263 21l-53 188q33 52 89 79.5t128 27.5q88 0 125 -36l-34 -239l310 24q7 -28 7 -59q0 -52 -19 -107t-56 -127h-250v-206q-60 -70 -145 -70q-48 0 -110 24l17 251h-328zM975 293q7 -28 7 -59q0 -52 -19 -107t-56 -127h-816
q-3 30 -3 55q0 50 12.5 83t46.5 90z" />
    <glyph glyph-name="uni00B2" unicode="&#xb2;" horiz-adv-x="1015" 
d="M923 807q0 -91 -48 -156q-64 -85 -158 -85q-68 0 -152 40t-139 89l-1 -1l-2 3l-14 14q-16 -29 -23 -38q-32 -50 -77.5 -76.5t-100.5 -28.5q-36 22 -67 85.5t-48.5 139.5t-14.5 134q61 53 129 75q26 -7 52 -22t62 -44q60 60 142.5 155t114.5 143l-2 45l-179 64l-26 -10
l-32 -237q-54 -18 -95 -18q-27 0 -77 13q-25 52 -47.5 131t-22.5 146q0 57 20 93q32 31 99 67.5t139.5 61.5t121.5 25q55 -3 132 -24t151.5 -58t120.5 -86q19 -72 19 -139q0 -47 -8 -90q-37 -49 -113.5 -113.5t-159 -122t-133.5 -85.5l1 -9l203 -26l77 122l126 -24
q30 -79 30 -153z" />
    <glyph glyph-name="uni00B3" unicode="&#xb3;" horiz-adv-x="949" 
d="M712 1049.5q67 -25.5 108 -61.5t41 -73q0 -125 -43.5 -210t-122.5 -130q-42 -24 -105.5 -38.5t-119.5 -14.5q-120 0 -226 32.5t-150 96.5q-4 17 -4 73q0 27 10.5 42t38.5 38q3 3 7 6t8 7q61 -30 168.5 -49.5t188.5 -21.5q23 0 61 7q19 45 27 99q-16 25 -64.5 50
t-118.5 53q-27 -35 -69 -63t-78 -36q-28 6 -54 32t-42.5 63.5t-16.5 77.5q0 49 29 97l74 28l99 -30q114 119 155 176l-180 56l-4 -1l-10 -62q-5 -22 -10 -56q-55 -20 -100 -20q-43 0 -93 22l-10 32v-2q-2 7 -11.5 33t-14.5 49.5t-5 45.5q0 44 23 86q50 59 198 106
q33 11 62.5 18t42.5 7q36 0 118.5 -18t159.5 -46t106 -59q8 -25 12.5 -62.5t4.5 -70.5q0 -40 -9 -91q-112 -97 -255 -181l33 -2q74 -9 141 -34.5z" />
    <glyph glyph-name="acute" unicode="&#xb4;" horiz-adv-x="692" 
d="M120.5 1311.5q28.5 -43.5 53.5 -64.5q101 20 229.5 80.5t194.5 118.5q0 56 -29.5 114.5t-78.5 105t-107 66.5l-53 -63q-82 -97 -133.5 -152.5t-121.5 -114.5q17 -47 45.5 -90.5z" />
    <glyph glyph-name="uni00B5" unicode="&#xb5;" horiz-adv-x="1214" 
d="M438 -162q22 -106 35 -241q-45 -36 -143 -36q-79 0 -143 20t-103 54q0 225 19 506.5t77 524.5l-185 338q22 64 77.5 106t125 61.5t136.5 19.5q68 0 105 -17q16 -121 22 -243q6 -100 6 -194q0 -194 -28 -362l31 -14q34 35 88 117.5t99 165.5t55 120q-29 346 -29 390
q17 11 65 19.5t103 8.5q91 0 157.5 -29t119.5 -92v-11q0 -50 -24.5 -190t-64.5 -294.5t-83 -257.5l173 92l85 -121q-57 -132 -130.5 -215.5t-154.5 -83.5q-47 0 -100.5 27.5t-94.5 72.5q-4 4 -19.5 20t-24 39t-8.5 54q0 8 2 28q14 139 34 269l-15 7q-53 -211 -84 -312.5
t-55 -142.5t-54 -42q-12 0 -57 25t-84 52l-9 -7q56 -126 78 -232z" />
    <glyph glyph-name="paragraph" unicode="&#xb6;" horiz-adv-x="1617" 
d="M1455 1503.5q18 -68.5 18 -148.5q0 -82 -16 -151q-188 -60 -420 -60q-92 0 -222 12l-59 4l8 -527l1 -1l-24 -737q-8 -21 -39.5 -40t-76.5 -30.5t-92 -11.5q-86 0 -145 40l142 551l-60 16q-99 27 -154.5 45.5t-82.5 41.5q-40 108 -58.5 278.5t-18.5 346.5q0 107 6 183
l634 164l602 129q39 -36 57 -104.5zM1357 906q0 -50 -18.5 -196.5t-44.5 -285t-51 -187.5q16 -46 29.5 -104t35.5 -166l15 -72q-34 -39 -98.5 -59.5t-134.5 -20.5q-48 0 -89 10t-64 28q9 106 34.5 229.5t54.5 188.5l-55 728q54 22 120 22q58 0 116 -15.5t98.5 -39.5
t50.5 -47q1 -2 1 -13z" />
    <glyph glyph-name="periodcentered" unicode="&#xb7;" horiz-adv-x="691" 
d="M227 809q-52 -59 -98 -120.5t-54 -84.5q52 -149 237 -229q49 16 112.5 60t115.5 103.5t66 121.5q-55 77 -133 138t-169 86q-25 -16 -77 -75z" />
    <glyph glyph-name="cedilla" unicode="&#xb8;" horiz-adv-x="553" 
d="M544 -145q-22 -86 -95.5 -157.5t-167.5 -103.5q-18 -2 -30 -2q-49 0 -99 19t-88.5 45t-55.5 48q-1 7 -1 21q0 34 7 74t16 71q62 -15 135.5 -27t117.5 -12l-137 304l220 -1z" />
    <glyph glyph-name="uni00B9" unicode="&#xb9;" horiz-adv-x="732" 
d="M545 1210q-21 -173 -50 -305l8 -25q22 -69 38.5 -136t26.5 -145q-47 -35 -145 -37q-55 0 -122 10t-92 27l68 475l-27 178l-167 -29l-60 131q68 85 178.5 159t224.5 100q78 -46 146 -107q-6 -123 -27 -296z" />
    <glyph glyph-name="ordmasculine" unicode="&#xba;" horiz-adv-x="929" 
d="M875 767q3 -42 3 -115q0 -120 -21 -273t-45 -242q-15 -17 -57 -44t-84 -48q-56 -28 -98 -43t-82 -19q-58 5 -137 25.5t-147.5 49.5t-98.5 59q-26 166 -40 291.5t-14 241.5q0 119 15 214q23 30 97 67.5t157.5 67t127.5 35.5q72 -7 154 -34.5t152 -68t107 -84.5
q8 -38 11 -80zM355 509q0 -129 12 -258q70 -46 143 -62l47 33q7 72 7 190q0 127 -15 275l-132 54l-52 -25q-10 -115 -10 -207z" />
    <glyph glyph-name="guillemotright" unicode="&#xbb;" horiz-adv-x="1274" 
d="M68.5 1035q45.5 46 89.5 72q66 -65 209.5 -177t215.5 -156q24 -28 42 -116.5t18 -166.5q0 -36 -4 -56l-436 -425q-29 12 -65.5 40t-65.5 63t-37 66q25 72 122 199t182 213q-92 84 -192.5 185.5t-146.5 164.5q23 48 68.5 94zM644.5 1035q45.5 46 89.5 72
q66 -65 209.5 -177t215.5 -156q24 -28 42 -116.5t18 -166.5q0 -36 -4 -56l-436 -425q-29 12 -65.5 40t-65.5 63t-37 66q25 72 122 199t182 213q-92 84 -192.5 185.5t-146.5 164.5q23 48 68.5 94z" />
    <glyph glyph-name="onequarter" unicode="&#xbc;" horiz-adv-x="2198" 
d="M375 1453l-167 -29l-60 131q68 85 178.5 159t224.5 100q78 -46 146 -107q-6 -123 -27 -296t-50 -305l8 -25q22 -69 38.5 -136t26.5 -145q-47 -35 -145 -37q-55 0 -122 10t-92 27l68 475zM1507.5 1615q73.5 -51 116.5 -110l-1149 -1524q-60 17 -106.5 57.5t-56.5 89.5
l1066 1541q56 -3 129.5 -54zM2059 872q0 -71 -19 -210t-52 -281q12 -37 34.5 -154.5t34.5 -212.5q-24 -17 -66 -25.5t-87 -8.5q-50 0 -106.5 9.5t-78.5 24.5l36 253l-311 54q-30 -31 -69 -55t-71 -31q-28 6 -54 35.5t-42 72.5t-16 88q0 57 27 101l92 -11l42 446
q36 48 97 71.5t130 23.5q40 0 84.5 -9.5t64.5 -35.5l-208 -513l255 -18l-71 287q12 25 47.5 57.5t98 57.5t146.5 25q33 0 61 -12q1 -7 1 -29z" />
    <glyph glyph-name="onehalf" unicode="&#xbd;" horiz-adv-x="2156" 
d="M375 1453l-167 -29l-60 131q68 85 178.5 159t224.5 100q78 -46 146 -107q-6 -123 -27 -296t-50 -305l8 -25q22 -69 38.5 -136t26.5 -145q-47 -35 -145 -37q-55 0 -122 10t-92 27l68 475zM1507.5 1615q73.5 -51 116.5 -110l-1149 -1524q-60 17 -106.5 57.5t-56.5 89.5
l1066 1541q56 -3 129.5 -54zM2044 221q0 -91 -48 -156q-64 -85 -158 -85q-68 0 -152 40t-139 89l-1 -1l-2 3l-14 14q-16 -29 -23 -38q-32 -50 -77.5 -76.5t-100.5 -28.5q-36 22 -67 85.5t-48.5 139.5t-14.5 134q61 53 129 75q26 -7 52 -22t62 -44q60 60 142.5 155t114.5 143
l-2 45l-179 64l-26 -10l-32 -237q-54 -18 -95 -18q-27 0 -77 13q-25 52 -47.5 131t-22.5 146q0 57 20 93q32 31 99 67.5t139.5 61.5t121.5 25q55 -3 132 -24t151.5 -58t120.5 -86q19 -72 19 -139q0 -47 -8 -90q-37 -49 -113.5 -113.5t-159 -122t-133.5 -85.5l1 -9l203 -26
l77 122l126 -24q30 -79 30 -153z" />
    <glyph glyph-name="threequarters" unicode="&#xbe;" horiz-adv-x="2478" 
d="M589.5 735.5q-63.5 -14.5 -119.5 -14.5q-120 0 -226 32.5t-150 96.5q-4 17 -4 73q0 27 10.5 42t38.5 38q3 3 7 6t8 7q61 -30 168.5 -49.5t188.5 -21.5q23 0 61 7q19 45 27 99q-16 25 -64.5 50t-118.5 53q-27 -35 -69 -63t-78 -36q-28 6 -54 32t-42.5 63.5t-16.5 77.5
q0 49 29 97l74 28l99 -30q114 119 155 176l-180 56l-4 -1l-10 -62q-5 -22 -10 -56q-55 -20 -100 -20q-43 0 -93 22l-10 32v-2q-2 7 -11.5 33t-14.5 49.5t-5 45.5q0 44 23 86q50 59 198 106q33 11 62.5 18t42.5 7q36 0 118.5 -18t159.5 -46t106 -59q8 -25 12.5 -62.5
t4.5 -70.5q0 -40 -9 -91q-112 -97 -255 -181l33 -2q74 -9 141 -34.5t108 -61.5t41 -73q0 -125 -43.5 -210t-122.5 -130q-42 -24 -105.5 -38.5zM1597.5 1615q73.5 -51 116.5 -110l-1149 -1524q-60 17 -106.5 57.5t-56.5 89.5l1066 1541q56 -3 129.5 -54zM2144 872
q0 -71 -19 -210t-52 -281q12 -37 34.5 -154.5t34.5 -212.5q-24 -17 -66 -25.5t-87 -8.5q-50 0 -106.5 9.5t-78.5 24.5l36 253l-311 54q-30 -31 -69 -55t-71 -31q-28 6 -54 35.5t-42 72.5t-16 88q0 57 27 101l92 -11l42 446q36 48 97 71.5t130 23.5q40 0 84.5 -9.5
t64.5 -35.5l-208 -513l255 -18l-71 287q12 25 47.5 57.5t98 57.5t146.5 25q33 0 61 -12q1 -7 1 -29z" />
    <glyph glyph-name="questiondown" unicode="&#xbf;" horiz-adv-x="955" 
d="M643 771q52 59 98 120.5t54 84.5q-52 149 -237 229q-49 -16 -112.5 -60t-115.5 -103.5t-66 -121.5q55 -77 133 -138t169 -86q25 16 77 75zM430 358q-10 1 -29 1q-65 0 -126.5 -14t-106.5 -30.5t-45 -17.5q-33 -115 -33 -266q0 -69 7.5 -131t20.5 -106
q61 -87 164.5 -139.5t205.5 -73.5t168 -21q39 17 79.5 66.5t70.5 114t39 124.5l-116 24q-149 29 -239 52.5t-155 59.5l303 182q54 33 76.5 64.5t22.5 67.5q0 23 -7.5 48.5t-23.5 71.5q-27 71 -41 131l-187 10z" />
    <glyph glyph-name="Agrave" unicode="&#xc0;" horiz-adv-x="1272" 
d="M1203.5 434.5q43.5 -262.5 43.5 -352.5q0 -18 -2 -48q-87 -54 -209 -54q-76 0 -142.5 22t-101.5 59l81 272l-19 87h-54q-124 7 -254 18q-18 -149 -40 -240t-77.5 -154.5t-156.5 -63.5q-88 0 -163 43t-103 117l45 163l132 -11l174 875q-159 22 -230 49q3 87 36.5 184
t91.5 149q369 -61 770 -183q135 -669 178.5 -931.5zM802 655l-104 476l-86 7q-5 -87 -16.5 -227t-26.5 -278zM538 1656q124 -32 221 -32q33 0 65 5q29 31 48 74.5t16 87.5q-124 62 -205.5 110.5t-182.5 118.5q-77 -47 -124.5 -124.5t-55.5 -157.5q94 -50 218 -82z" />
    <glyph glyph-name="Aacute" unicode="&#xc1;" horiz-adv-x="1272" 
d="M1203.5 434.5q43.5 -262.5 43.5 -352.5q0 -18 -2 -48q-87 -54 -209 -54q-76 0 -142.5 22t-101.5 59l81 272l-19 87h-54q-124 7 -254 18q-18 -149 -40 -240t-77.5 -154.5t-156.5 -63.5q-88 0 -163 43t-103 117l45 163l132 -11l174 875q-159 22 -230 49q3 87 36.5 184
t91.5 149q369 -61 770 -183q135 -669 178.5 -931.5zM802 655l-104 476l-86 7q-5 -87 -16.5 -227t-26.5 -278zM494 1629q32 -5 65 -5q97 0 221 32t218 82q-8 80 -55.5 157.5t-124.5 124.5q-111 -78 -190.5 -126.5t-197.5 -107.5q15 -103 64 -157z" />
    <glyph glyph-name="Acircumflex" unicode="&#xc2;" horiz-adv-x="1272" 
d="M1203.5 434.5q43.5 -262.5 43.5 -352.5q0 -18 -2 -48q-87 -54 -209 -54q-76 0 -142.5 22t-101.5 59l81 272l-19 87h-54q-124 7 -254 18q-18 -149 -40 -240t-77.5 -154.5t-156.5 -63.5q-88 0 -163 43t-103 117l45 163l132 -11l174 875q-159 22 -230 49q3 87 36.5 184
t91.5 149q369 -61 770 -183q135 -669 178.5 -931.5zM802 655l-104 476l-86 7q-5 -87 -16.5 -227t-26.5 -278zM385 1662q-36 32 -57 69q65 61 101 104.5t78 111.5q27 24 113 42t157 18q33 0 53 -4l208 -249q-17 -42 -57.5 -87.5t-85.5 -57.5q-52 19 -102 52.5t-122 89.5
l-31 24q-62 -71 -98.5 -108t-72.5 -58q-48 21 -84 53z" />
    <glyph glyph-name="Atilde" unicode="&#xc3;" horiz-adv-x="1272" 
d="M1203.5 434.5q43.5 -262.5 43.5 -352.5q0 -18 -2 -48q-87 -54 -209 -54q-76 0 -142.5 22t-101.5 59l81 272l-19 87h-54q-124 7 -254 18q-18 -149 -40 -240t-77.5 -154.5t-156.5 -63.5q-88 0 -163 43t-103 117l45 163l132 -11l174 875q-159 22 -230 49q3 87 36.5 184
t91.5 149q369 -61 770 -183q135 -669 178.5 -931.5zM802 655l-104 476l-86 7q-5 -87 -16.5 -227t-26.5 -278zM654 1651.5q93 -46.5 146 -46.5q66 0 128.5 51.5t106.5 124.5t57 132l-107 87l-134 -120q-21 9 -51.5 27t-37.5 22q-73 44 -122.5 67.5t-88.5 23.5q-66 0 -131 -53
t-111 -128t-59 -133l110 -80l140 119q61 -47 154 -93.5z" />
    <glyph glyph-name="Adieresis" unicode="&#xc4;" horiz-adv-x="1272" 
d="M1203.5 434.5q43.5 -262.5 43.5 -352.5q0 -18 -2 -48q-87 -54 -209 -54q-76 0 -142.5 22t-101.5 59l81 272l-19 87h-54q-124 7 -254 18q-18 -149 -40 -240t-77.5 -154.5t-156.5 -63.5q-88 0 -163 43t-103 117l45 163l132 -11l174 875q-159 22 -230 49q3 87 36.5 184
t91.5 149q369 -61 770 -183q135 -669 178.5 -931.5zM802 655l-104 476l-86 7q-5 -87 -16.5 -227t-26.5 -278zM286.5 1667.5q33.5 -32.5 80.5 -55.5t94 -26q62 27 117.5 87t85.5 130q-25 116 -113.5 166.5t-197.5 50.5q-15 -50 -32 -95t-29.5 -76.5t-18.5 -45.5l-29 -72
q9 -31 42.5 -63.5zM754.5 1667.5q33.5 -32.5 80.5 -55.5t94 -26q62 27 117.5 87t85.5 130q-25 116 -113.5 166.5t-197.5 50.5q-15 -50 -32 -95t-29.5 -76.5t-18.5 -45.5l-29 -72q9 -31 42.5 -63.5z" />
    <glyph glyph-name="Aring" unicode="&#xc5;" horiz-adv-x="1272" 
d="M1203.5 434.5q43.5 -262.5 43.5 -352.5q0 -18 -2 -48q-87 -54 -209 -54q-76 0 -142.5 22t-101.5 59l81 272l-19 87h-54q-124 7 -254 18q-18 -149 -40 -240t-77.5 -154.5t-156.5 -63.5q-88 0 -163 43t-103 117l45 163l132 -11l174 875q-159 22 -230 49q3 87 36.5 184
t91.5 149q369 -61 770 -183q135 -669 178.5 -931.5zM802 655l-104 476l-86 7q-5 -87 -16.5 -227t-26.5 -278zM652 1527q-85 0 -148 29.5t-97 85t-34 130.5q0 68 35.5 119.5t88 82t102.5 39.5q42 7 88 7q84 0 147 -29.5t97 -84.5t34 -129q0 -68 -36 -119.5t-88 -82.5
t-102 -40q-48 -8 -87 -8zM596 1819q-7 -24 -7 -44q0 -31 12 -48q33 -18 79 -18q33 0 61 9q6 28 6 45q0 25 -9 42q-24 19 -88 19q-32 0 -54 -5z" />
    <glyph glyph-name="AE" unicode="&#xc6;" horiz-adv-x="1744" 
d="M1667.5 366q10.5 -64 10.5 -128q0 -118 -65.5 -188t-185.5 -70q-114 0 -303 27.5t-288 60.5q-27 27 -44 57t-30 66l49 229h-11q-124 7 -254 18q-18 -149 -40 -240t-77.5 -154.5t-156.5 -63.5q-88 0 -163 43t-103 117l45 163l132 -11l172 866q-162 22 -228 48q2 55 17 121
t43.5 126.5t67.5 95.5l464 -129q45 66 105 109l344 -74l369 94q47 -27 71 -86t24 -132q0 -80 -29 -149.5t-78 -106.5q-167 20 -445 99l17 -323q114 13 189 26t185 36q3 1 79 17q40 -61 40 -152q0 -61 -16 -117.5t-35 -76.5q-30 -3 -60 -3q-103 0 -200.5 20t-173.5 63
l-14 -345l287 -20l82 190l180 -15q17 -44 27.5 -108zM812 656l-102 466l-56 5l-43 3q-4 -84 -15.5 -222t-26.5 -275q86 9 243 23z" />
    <glyph glyph-name="Ccedilla" unicode="&#xc7;" horiz-adv-x="1011" 
d="M849 161q-85 -76 -190 -125l116 -181q-22 -86 -95.5 -157.5t-167.5 -103.5q-18 -2 -30 -2q-49 0 -99 19t-88.5 45t-55.5 48q-1 7 -1 21q0 34 7 74t16 71q62 -15 135.5 -27t117.5 -12l-68 150q-46 7 -103.5 40.5t-109.5 73.5q-33 26 -48 48.5t-19 48.5q-12 241 -24 421
q-27 422 -53 558q-6 34 -6 115q12 46 57.5 99t107.5 97.5t121 66.5q47 -9 130.5 -38t128.5 -52l316 22q13 -62 13 -122q0 -88 -24.5 -163.5t-58 -124.5t-59.5 -61q-144 60 -281 182l-24 -22q5 -62 5 -138q0 -155 -14.5 -366t-30.5 -346q38 5 91 24t177 67q106 41 160 61
l75 -167q-39 -68 -124 -144z" />
    <glyph glyph-name="Egrave" unicode="&#xc8;" horiz-adv-x="1110" 
d="M974 1463q24 -59 24 -132q0 -82 -28.5 -157t-76.5 -112q-74 7 -159.5 27.5t-265.5 69.5l-44 12l39 -320q114 13 189 26t185 36q3 1 79 17q40 -61 40 -152q0 -61 -16 -117.5t-35 -76.5q-30 -3 -60 -3q-103 0 -200.5 20t-173.5 63l-14 -355l287 -10l82 190l180 -15
q15 -41 26.5 -126.5t11.5 -154.5q-40 -81 -104.5 -136.5t-146.5 -76.5q-130 4 -319.5 31.5t-300.5 56.5q-79 94 -93 196l158 417l-243 584q0 65 49 141.5t114 121.5l333 -73l412 94q47 -27 71 -86zM390 1656q124 -32 221 -32q33 0 65 5q29 31 48 74.5t16 87.5
q-124 62 -205.5 110.5t-182.5 118.5q-77 -47 -124.5 -124.5t-55.5 -157.5q94 -50 218 -82z" />
    <glyph glyph-name="Eacute" unicode="&#xc9;" horiz-adv-x="1110" 
d="M974 1463q24 -59 24 -132q0 -82 -28.5 -157t-76.5 -112q-74 7 -159.5 27.5t-265.5 69.5l-44 12l39 -320q114 13 189 26t185 36q3 1 79 17q40 -61 40 -152q0 -61 -16 -117.5t-35 -76.5q-30 -3 -60 -3q-103 0 -200.5 20t-173.5 63l-14 -355l287 -10l82 190l180 -15
q15 -41 26.5 -126.5t11.5 -154.5q-40 -81 -104.5 -136.5t-146.5 -76.5q-130 4 -319.5 31.5t-300.5 56.5q-79 94 -93 196l158 417l-243 584q0 65 49 141.5t114 121.5l333 -73l412 94q47 -27 71 -86zM346 1629q32 -5 65 -5q97 0 221 32t218 82q-8 80 -55.5 157.5t-124.5 124.5
q-111 -78 -190.5 -126.5t-197.5 -107.5q15 -103 64 -157z" />
    <glyph glyph-name="Ecircumflex" unicode="&#xca;" horiz-adv-x="1110" 
d="M974 1463q24 -59 24 -132q0 -82 -28.5 -157t-76.5 -112q-74 7 -159.5 27.5t-265.5 69.5l-44 12l39 -320q114 13 189 26t185 36q3 1 79 17q40 -61 40 -152q0 -61 -16 -117.5t-35 -76.5q-30 -3 -60 -3q-103 0 -200.5 20t-173.5 63l-14 -355l287 -10l82 190l180 -15
q15 -41 26.5 -126.5t11.5 -154.5q-40 -81 -104.5 -136.5t-146.5 -76.5q-130 4 -319.5 31.5t-300.5 56.5q-79 94 -93 196l158 417l-243 584q0 65 49 141.5t114 121.5l333 -73l412 94q47 -27 71 -86zM237 1662q-36 32 -57 69q65 61 101 104.5t78 111.5q27 24 113 42t157 18
q33 0 53 -4l208 -249q-17 -42 -57.5 -87.5t-85.5 -57.5q-52 19 -102 52.5t-122 89.5l-31 24q-62 -71 -98.5 -108t-72.5 -58q-48 21 -84 53z" />
    <glyph glyph-name="Edieresis" unicode="&#xcb;" horiz-adv-x="1110" 
d="M974 1463q24 -59 24 -132q0 -82 -28.5 -157t-76.5 -112q-74 7 -159.5 27.5t-265.5 69.5l-44 12l39 -320q114 13 189 26t185 36q3 1 79 17q40 -61 40 -152q0 -61 -16 -117.5t-35 -76.5q-30 -3 -60 -3q-103 0 -200.5 20t-173.5 63l-14 -355l287 -10l82 190l180 -15
q15 -41 26.5 -126.5t11.5 -154.5q-40 -81 -104.5 -136.5t-146.5 -76.5q-130 4 -319.5 31.5t-300.5 56.5q-79 94 -93 196l158 417l-243 584q0 65 49 141.5t114 121.5l333 -73l412 94q47 -27 71 -86zM138.5 1667.5q33.5 -32.5 80.5 -55.5t94 -26q62 27 117.5 87t85.5 130
q-25 116 -113.5 166.5t-197.5 50.5q-15 -50 -32 -95t-29.5 -76.5t-18.5 -45.5l-29 -72q9 -31 42.5 -63.5zM606.5 1667.5q33.5 -32.5 80.5 -55.5t94 -26q62 27 117.5 87t85.5 130q-25 116 -113.5 166.5t-197.5 50.5q-15 -50 -32 -95t-29.5 -76.5t-18.5 -45.5l-29 -72
q9 -31 42.5 -63.5z" />
    <glyph glyph-name="Igrave" unicode="&#xcc;" horiz-adv-x="666" 
d="M149 1459q48 30 114.5 50t136.5 20q100 0 166 -40l-78 -906q25 -119 43.5 -269t26.5 -295q-32 -21 -72.5 -30t-94.5 -9q-87 0 -152 21.5t-106 60.5q8 153 34.5 321.5t62.5 272.5q-37 111 -64.5 253.5t-60.5 347.5l-23 142q19 30 67 60zM195 1656q124 -32 221 -32
q33 0 65 5q29 31 48 74.5t16 87.5q-124 62 -205.5 110.5t-182.5 118.5q-77 -47 -124.5 -124.5t-55.5 -157.5q94 -50 218 -82z" />
    <glyph glyph-name="Iacute" unicode="&#xcd;" horiz-adv-x="666" 
d="M149 1459q48 30 114.5 50t136.5 20q100 0 166 -40l-78 -906q25 -119 43.5 -269t26.5 -295q-32 -21 -72.5 -30t-94.5 -9q-87 0 -152 21.5t-106 60.5q8 153 34.5 321.5t62.5 272.5q-37 111 -64.5 253.5t-60.5 347.5l-23 142q19 30 67 60zM151 1629q32 -5 65 -5q97 0 221 32
t218 82q-8 80 -55.5 157.5t-124.5 124.5q-111 -78 -190.5 -126.5t-197.5 -107.5q15 -103 64 -157z" />
    <glyph glyph-name="Icircumflex" unicode="&#xce;" horiz-adv-x="666" 
d="M149 1459q48 30 114.5 50t136.5 20q100 0 166 -40l-78 -906q25 -119 43.5 -269t26.5 -295q-32 -21 -72.5 -30t-94.5 -9q-87 0 -152 21.5t-106 60.5q8 153 34.5 321.5t62.5 272.5q-37 111 -64.5 253.5t-60.5 347.5l-23 142q19 30 67 60zM42 1662q-36 32 -57 69
q65 61 101 104.5t78 111.5q27 24 113 42t157 18q33 0 53 -4l208 -249q-17 -42 -57.5 -87.5t-85.5 -57.5q-52 19 -102 52.5t-122 89.5l-31 24q-62 -71 -98.5 -108t-72.5 -58q-48 21 -84 53z" />
    <glyph glyph-name="Idieresis" unicode="&#xcf;" horiz-adv-x="666" 
d="M149 1459q48 30 114.5 50t136.5 20q100 0 166 -40l-78 -906q25 -119 43.5 -269t26.5 -295q-32 -21 -72.5 -30t-94.5 -9q-87 0 -152 21.5t-106 60.5q8 153 34.5 321.5t62.5 272.5q-37 111 -64.5 253.5t-60.5 347.5l-23 142q19 30 67 60zM-56.5 1667.5
q33.5 -32.5 80.5 -55.5t94 -26q62 27 117.5 87t85.5 130q-25 116 -113.5 166.5t-197.5 50.5q-15 -50 -32 -95t-29.5 -76.5t-18.5 -45.5l-29 -72q9 -31 42.5 -63.5zM411.5 1667.5q33.5 -32.5 80.5 -55.5t94 -26q62 27 117.5 87t85.5 130q-25 116 -113.5 166.5t-197.5 50.5
q-15 -50 -32 -95t-29.5 -76.5t-18.5 -45.5l-29 -72q9 -31 42.5 -63.5z" />
    <glyph glyph-name="Eth" unicode="&#xd0;" horiz-adv-x="1334" 
d="M1251.5 1126.5q2.5 -39.5 2.5 -130.5q0 -78 -14 -249t-35 -332.5t-39 -224.5q-10 -36 -84 -83t-168.5 -84t-158.5 -44q-73 40 -135 104t-86 117q-55 -94 -112 -154.5t-134 -65.5q-41 20 -87 75t-79 122t-37 122l89 124q38 14 97 14h33q-19 109 -33 207q-50 1 -182 5
q-22 59 -22 113q0 37 8 72l169 33q-11 103 -22 234l-9 109l-183 16q8 111 36.5 193t98.5 130l712 -60q94 -44 195.5 -115.5t169.5 -147.5q7 -60 9.5 -99.5zM838 1129l-242 51l-12 -272l149 14q25 -47 25 -115q0 -43 -11 -84t-30 -68q-51 -4 -145 -8l-12 -250l17 -3l271 -82
q7 142 7 274q0 363 -17 543z" />
    <glyph glyph-name="Ntilde" unicode="&#xd1;" horiz-adv-x="1371" 
d="M1034 395q-152 882 -152 1035q12 26 50 49t90 36.5t104 13.5q43 0 91 -11.5t77 -31.5l-86 -1138q46 -56 71 -103t37 -114q-32 -77 -102.5 -114.5t-164.5 -37.5q-75 0 -156.5 18.5t-122.5 51.5q-3 17 -3 44q0 40 6.5 82.5t19.5 69.5l-437 925l-5 -2q20 -66 65 -243.5
t86.5 -368.5t53.5 -308q2 -30 2 -45q0 -101 -51.5 -162t-160.5 -61q-90 0 -167 44t-112 118l31 163l111 -9l-8 879q-47 3 -92.5 15.5t-80.5 35.5q0 108 33.5 191t125.5 132q98 -12 227 -53t228 -111l388 -994zM704 1651.5q93 -46.5 146 -46.5q66 0 128.5 51.5t106.5 124.5
t57 132l-107 87l-134 -120q-21 9 -51.5 27t-37.5 22q-73 44 -122.5 67.5t-88.5 23.5q-66 0 -131 -53t-111 -128t-59 -133l110 -80l140 119q61 -47 154 -93.5z" />
    <glyph glyph-name="Ograve" unicode="&#xd2;" horiz-adv-x="1291" 
d="M1185.5 1192q3.5 -50 3.5 -132q0 -107 -14 -290t-35 -349t-39 -231q-9 -34 -47 -61t-104 -61q-7 -3 -12 -5.5l-9 -4.5q-72 -37 -125 -55.5t-105 -23.5q-75 5 -180 30t-198.5 62.5t-135.5 75.5q-29 184 -56 491.5t-27 454.5q0 85 6.5 149.5t29.5 94.5q34 45 135.5 94
t209.5 83.5t145 34.5q52 0 167.5 -34.5t224.5 -87.5t153 -106q9 -79 12.5 -129zM486 786q0 -297 14 -455q46 -27 111 -55t114 -38l61 42q11 102 11 306q0 146 -5.5 291t-14.5 241l-211 91l-69 -35q-11 -140 -11 -388zM510 1656q124 -32 221 -32q33 0 65 5q29 31 48 74.5
t16 87.5q-124 62 -205.5 110.5t-182.5 118.5q-77 -47 -124.5 -124.5t-55.5 -157.5q94 -50 218 -82z" />
    <glyph glyph-name="Oacute" unicode="&#xd3;" horiz-adv-x="1291" 
d="M1185.5 1192q3.5 -50 3.5 -132q0 -107 -14 -290t-35 -349t-39 -231q-9 -34 -47 -61t-104 -61q-7 -3 -12 -5.5l-9 -4.5q-72 -37 -125 -55.5t-105 -23.5q-75 5 -180 30t-198.5 62.5t-135.5 75.5q-29 184 -56 491.5t-27 454.5q0 85 6.5 149.5t29.5 94.5q34 45 135.5 94
t209.5 83.5t145 34.5q52 0 167.5 -34.5t224.5 -87.5t153 -106q9 -79 12.5 -129zM486 786q0 -297 14 -455q46 -27 111 -55t114 -38l61 42q11 102 11 306q0 146 -5.5 291t-14.5 241l-211 91l-69 -35q-11 -140 -11 -388zM466 1629q32 -5 65 -5q97 0 221 32t218 82
q-8 80 -55.5 157.5t-124.5 124.5q-111 -78 -190.5 -126.5t-197.5 -107.5q15 -103 64 -157z" />
    <glyph glyph-name="Ocircumflex" unicode="&#xd4;" horiz-adv-x="1291" 
d="M1185.5 1192q3.5 -50 3.5 -132q0 -107 -14 -290t-35 -349t-39 -231q-9 -34 -47 -61t-104 -61q-7 -3 -12 -5.5l-9 -4.5q-72 -37 -125 -55.5t-105 -23.5q-75 5 -180 30t-198.5 62.5t-135.5 75.5q-29 184 -56 491.5t-27 454.5q0 85 6.5 149.5t29.5 94.5q34 45 135.5 94
t209.5 83.5t145 34.5q52 0 167.5 -34.5t224.5 -87.5t153 -106q9 -79 12.5 -129zM486 786q0 -297 14 -455q46 -27 111 -55t114 -38l61 42q11 102 11 306q0 146 -5.5 291t-14.5 241l-211 91l-69 -35q-11 -140 -11 -388zM357 1662q-36 32 -57 69q65 61 101 104.5t78 111.5
q27 24 113 42t157 18q33 0 53 -4l208 -249q-17 -42 -57.5 -87.5t-85.5 -57.5q-52 19 -102 52.5t-122 89.5l-31 24q-62 -71 -98.5 -108t-72.5 -58q-48 21 -84 53z" />
    <glyph glyph-name="Otilde" unicode="&#xd5;" horiz-adv-x="1291" 
d="M1185.5 1192q3.5 -50 3.5 -132q0 -107 -14 -290t-35 -349t-39 -231q-9 -34 -47 -61t-104 -61q-7 -3 -12 -5.5l-9 -4.5q-72 -37 -125 -55.5t-105 -23.5q-75 5 -180 30t-198.5 62.5t-135.5 75.5q-29 184 -56 491.5t-27 454.5q0 85 6.5 149.5t29.5 94.5q34 45 135.5 94
t209.5 83.5t145 34.5q52 0 167.5 -34.5t224.5 -87.5t153 -106q9 -79 12.5 -129zM486 786q0 -297 14 -455q46 -27 111 -55t114 -38l61 42q11 102 11 306q0 146 -5.5 291t-14.5 241l-211 91l-69 -35q-11 -140 -11 -388zM626 1651.5q93 -46.5 146 -46.5q66 0 128.5 51.5
t106.5 124.5t57 132l-107 87l-134 -120q-21 9 -51.5 27t-37.5 22q-73 44 -122.5 67.5t-88.5 23.5q-66 0 -131 -53t-111 -128t-59 -133l110 -80l140 119q61 -47 154 -93.5z" />
    <glyph glyph-name="Odieresis" unicode="&#xd6;" horiz-adv-x="1291" 
d="M1185.5 1192q3.5 -50 3.5 -132q0 -107 -14 -290t-35 -349t-39 -231q-9 -34 -47 -61t-104 -61q-7 -3 -12 -5.5l-9 -4.5q-72 -37 -125 -55.5t-105 -23.5q-75 5 -180 30t-198.5 62.5t-135.5 75.5q-29 184 -56 491.5t-27 454.5q0 85 6.5 149.5t29.5 94.5q34 45 135.5 94
t209.5 83.5t145 34.5q52 0 167.5 -34.5t224.5 -87.5t153 -106q9 -79 12.5 -129zM486 786q0 -297 14 -455q46 -27 111 -55t114 -38l61 42q11 102 11 306q0 146 -5.5 291t-14.5 241l-211 91l-69 -35q-11 -140 -11 -388zM258.5 1667.5q33.5 -32.5 80.5 -55.5t94 -26
q62 27 117.5 87t85.5 130q-25 116 -113.5 166.5t-197.5 50.5q-15 -50 -32 -95t-29.5 -76.5t-18.5 -45.5l-29 -72q9 -31 42.5 -63.5zM726.5 1667.5q33.5 -32.5 80.5 -55.5t94 -26q62 27 117.5 87t85.5 130q-25 116 -113.5 166.5t-197.5 50.5q-15 -50 -32 -95t-29.5 -76.5
t-18.5 -45.5l-29 -72q9 -31 42.5 -63.5z" />
    <glyph glyph-name="multiply" unicode="&#xd7;" horiz-adv-x="1088" 
d="M719 568l256 -226q-32 -86 -80 -142.5t-103 -82.5l-248 264l-211 -259q-87 31 -142 78t-80 101l250 233l-247 226q31 86 79 141.5t103 82.5l245 -261l216 257q165 -59 222 -179z" />
    <glyph glyph-name="Oslash" unicode="&#xd8;" horiz-adv-x="1297" 
d="M1185.5 1192q3.5 -50 3.5 -132q0 -107 -14 -290t-35 -349t-39 -231q-9 -34 -47 -61t-104 -61q-7 -3 -12 -5.5l-9 -4.5q-72 -37 -125 -55.5t-105 -23.5q-82 4 -201 35l-115 -271q-14 1 -43 1q-42 0 -68 3t-50.5 17.5t-43.5 45.5l103 279q-66 30 -96 58q-29 184 -56 491.5
t-27 454.5q0 85 6.5 149.5t29.5 94.5q34 45 135.5 94t209.5 83.5t145 34.5q29 0 84.5 -12.5t120.5 -34.5l147 315q80 -23 125.5 -56.5t81.5 -105.5l-128 -248q81 -46 114 -86q9 -79 12.5 -129zM797 586q0 146 -5.5 291t-14.5 241l-211 91l-69 -35q-11 -140 -11 -388
q0 -297 14 -455q46 -27 111 -55t114 -38l61 42q11 102 11 306z" />
    <glyph glyph-name="Ugrave" unicode="&#xd9;" horiz-adv-x="1272" 
d="M1199 1060q0 -107 -14 -290t-35 -349t-39 -231q-9 -33 -47.5 -59.5t-103.5 -58.5q-6 -3 -13.5 -6.5t-15.5 -7.5q-73 -37 -126 -55.5t-105 -23.5q-74 4 -173 29.5t-186.5 63t-130.5 75.5q-28 178 -52.5 479.5t-24.5 454.5q0 62 2 98l-140 47q8 106 49.5 190t137.5 133
q121 -15 367 -203l-3 -2l3 1l-25 -171l-1 -388q0 -321 15 -475q113 -66 250 -83q6 52 9 156t3 202q0 151 -6 336.5t-15 278.5l-164 46q9 97 64 180.5t151 121.5q51 -7 149 -48t189 -92l12 -87v-1l3 -26l5 -38q11 -99 11 -197zM503 1656q124 -32 221 -32q33 0 65 5
q29 31 48 74.5t16 87.5q-124 62 -205.5 110.5t-182.5 118.5q-77 -47 -124.5 -124.5t-55.5 -157.5q94 -50 218 -82z" />
    <glyph glyph-name="Uacute" unicode="&#xda;" horiz-adv-x="1272" 
d="M1199 1060q0 -107 -14 -290t-35 -349t-39 -231q-9 -33 -47.5 -59.5t-103.5 -58.5q-6 -3 -13.5 -6.5t-15.5 -7.5q-73 -37 -126 -55.5t-105 -23.5q-74 4 -173 29.5t-186.5 63t-130.5 75.5q-28 178 -52.5 479.5t-24.5 454.5q0 62 2 98l-140 47q8 106 49.5 190t137.5 133
q121 -15 367 -203l-3 -2l3 1l-25 -171l-1 -388q0 -321 15 -475q113 -66 250 -83q6 52 9 156t3 202q0 151 -6 336.5t-15 278.5l-164 46q9 97 64 180.5t151 121.5q51 -7 149 -48t189 -92l12 -87v-1l3 -26l5 -38q11 -99 11 -197zM459 1629q32 -5 65 -5q97 0 221 32t218 82
q-8 80 -55.5 157.5t-124.5 124.5q-111 -78 -190.5 -126.5t-197.5 -107.5q15 -103 64 -157z" />
    <glyph glyph-name="Ucircumflex" unicode="&#xdb;" horiz-adv-x="1272" 
d="M1199 1060q0 -107 -14 -290t-35 -349t-39 -231q-9 -33 -47.5 -59.5t-103.5 -58.5q-6 -3 -13.5 -6.5t-15.5 -7.5q-73 -37 -126 -55.5t-105 -23.5q-74 4 -173 29.5t-186.5 63t-130.5 75.5q-28 178 -52.5 479.5t-24.5 454.5q0 62 2 98l-140 47q8 106 49.5 190t137.5 133
q121 -15 367 -203l-3 -2l3 1l-25 -171l-1 -388q0 -321 15 -475q113 -66 250 -83q6 52 9 156t3 202q0 151 -6 336.5t-15 278.5l-164 46q9 97 64 180.5t151 121.5q51 -7 149 -48t189 -92l12 -87v-1l3 -26l5 -38q11 -99 11 -197zM350 1662q-36 32 -57 69q65 61 101 104.5
t78 111.5q27 24 113 42t157 18q33 0 53 -4l208 -249q-17 -42 -57.5 -87.5t-85.5 -57.5q-52 19 -102 52.5t-122 89.5l-31 24q-62 -71 -98.5 -108t-72.5 -58q-48 21 -84 53z" />
    <glyph glyph-name="Udieresis" unicode="&#xdc;" horiz-adv-x="1272" 
d="M1199 1060q0 -107 -14 -290t-35 -349t-39 -231q-9 -33 -47.5 -59.5t-103.5 -58.5q-6 -3 -13.5 -6.5t-15.5 -7.5q-73 -37 -126 -55.5t-105 -23.5q-74 4 -173 29.5t-186.5 63t-130.5 75.5q-28 178 -52.5 479.5t-24.5 454.5q0 62 2 98l-140 47q8 106 49.5 190t137.5 133
q121 -15 367 -203l-3 -2l3 1l-25 -171l-1 -388q0 -321 15 -475q113 -66 250 -83q6 52 9 156t3 202q0 151 -6 336.5t-15 278.5l-164 46q9 97 64 180.5t151 121.5q51 -7 149 -48t189 -92l12 -87v-1l3 -26l5 -38q11 -99 11 -197zM251.5 1667.5q33.5 -32.5 80.5 -55.5t94 -26
q62 27 117.5 87t85.5 130q-25 116 -113.5 166.5t-197.5 50.5q-15 -50 -32 -95t-29.5 -76.5t-18.5 -45.5l-29 -72q9 -31 42.5 -63.5zM719.5 1667.5q33.5 -32.5 80.5 -55.5t94 -26q62 27 117.5 87t85.5 130q-25 116 -113.5 166.5t-197.5 50.5q-15 -50 -32 -95t-29.5 -76.5
t-18.5 -45.5l-29 -72q9 -31 42.5 -63.5z" />
    <glyph glyph-name="Yacute" unicode="&#xdd;" horiz-adv-x="1168" 
d="M452 1480l133 -840h45l153 438q-56 49 -96.5 101t-75.5 129q45 107 154 166t235 75q79 -65 119.5 -165t45.5 -219q-52 -134 -145.5 -307t-191.5 -284l-136 -76l31 -191q40 6 117.5 30t128.5 45l75 -146q-25 -58 -89 -118t-141.5 -99t-140.5 -39q-72 0 -141 30.5t-113 87
t-45 130.5q-1 50 5 93t17 100q12 60 15 84l-149 116l-142 510l-120 138q4 106 55.5 164t112 77t105.5 19q110 0 179 -49zM423 1629q32 -5 65 -5q97 0 221 32t218 82q-8 80 -55.5 157.5t-124.5 124.5q-111 -78 -190.5 -126.5t-197.5 -107.5q15 -103 64 -157z" />
    <glyph glyph-name="Thorn" unicode="&#xde;" horiz-adv-x="1264" 
d="M1223 1135q0 -176 -28.5 -376t-78.5 -340q-26 -30 -74 -72.5t-100 -74.5t-88 -32t-106 31.5t-183 90.5l-45 23q24 -115 39 -203.5t19 -162.5q-32 -21 -72.5 -30t-94.5 -9q-87 0 -152 21.5t-106 60.5q5 107 20.5 226t37.5 220q-24 71 -53 256.5t-50 374.5t-21 242l1 12
q45 61 119 98.5t153 37.5q92 0 170 -49l-61 -477l31 -9l231 386q21 6 57.5 11.5t75.5 5.5q42 0 103.5 -16t128.5 -48.5t123 -79.5q4 -48 4 -118zM833 867q0 64 -6 125l-47 8l-51 -48q-75 -69 -131.5 -127.5t-93.5 -110.5q12 -7 34.5 -29t60.5 -63q69 -74 112.5 -113.5
t66.5 -39.5q14 0 17 18q38 215 38 380z" />
    <glyph glyph-name="germandbls" unicode="&#xdf;" horiz-adv-x="1249" 
d="M1092 638.5q121 -93.5 162 -152.5q-2 -55 -41 -154.5t-74 -164.5q-60 -59 -135.5 -109t-152.5 -79l-121 34q-91 25 -153 41q-31 69 -31 134q0 61 19.5 106t36 68t19.5 29q52 -7 88.5 -26.5t61 -45.5t56.5 -69l18 -23l23 7q17 44 31 100t19 98q-116 51 -227.5 112
t-149.5 110l144 533q-44 18 -108.5 55t-112.5 69l-16 -14l19 -1511q-4 -30 -30 -67q-22 -33 -67 -70t-99 -62t-103 -25q-55 10 -107.5 38t-91.5 61t-54 58q1 52 10.5 90t31.5 92q69 -15 248 -38q-30 144 -63 428.5t-55.5 566t-22.5 403.5l1 34q83 115 190 199t229 119
q85 -6 201.5 -36t234 -81t202.5 -116q-16 -111 -87 -268t-166 -316q102 -64 223 -157.5z" />
    <glyph glyph-name="agrave" unicode="&#xe0;" horiz-adv-x="1201" 
d="M1201 278q-58 -133 -131.5 -216t-155.5 -83q-46 0 -99 28t-94 72q-4 4 -19 20t-23.5 39t-8.5 54q0 18 1 28q14 139 34 269l-15 7q-157 -402 -260 -492q-31 -24 -60 -24q-24 0 -48 12.5t-59 37.5q-13 9 -45 27q-44 25 -65.5 44t-22.5 45q0 28 1 50q2 64 2 104
q0 131 -20.5 305.5t-55.5 288.5q-12 41 -12 55q0 12 5.5 24t19.5 31q55 71 129 114.5t135 61.5t98 23q73 -50 132 -125.5t114 -170.5q-1 61 -6 179l-2 67q17 11 65 19.5t103 8.5q91 0 157.5 -29t119.5 -92q4 -34 -20 -176.5t-65 -305.5t-87 -271l173 92zM573.5 498
q64.5 112 103.5 195q2 24 2 27v53q-56 13 -129 28l-85 18l1 -107v-33q0 -152 -35 -327l30 -14q48 48 112.5 160zM448.5 1327.5q128.5 -60.5 229.5 -80.5q25 21 53.5 64.5t45.5 90.5q-70 59 -121.5 114.5t-133.5 152.5l-53 63q-58 -20 -107 -66.5t-78.5 -105t-29.5 -114.5
q66 -58 194.5 -118.5z" />
    <glyph glyph-name="aacute" unicode="&#xe1;" horiz-adv-x="1201" 
d="M1201 278q-58 -133 -131.5 -216t-155.5 -83q-46 0 -99 28t-94 72q-4 4 -19 20t-23.5 39t-8.5 54q0 18 1 28q14 139 34 269l-15 7q-157 -402 -260 -492q-31 -24 -60 -24q-24 0 -48 12.5t-59 37.5q-13 9 -45 27q-44 25 -65.5 44t-22.5 45q0 28 1 50q2 64 2 104
q0 131 -20.5 305.5t-55.5 288.5q-12 41 -12 55q0 12 5.5 24t19.5 31q55 71 129 114.5t135 61.5t98 23q73 -50 132 -125.5t114 -170.5q-1 61 -6 179l-2 67q17 11 65 19.5t103 8.5q91 0 157.5 -29t119.5 -92q4 -34 -20 -176.5t-65 -305.5t-87 -271l173 92zM573.5 498
q64.5 112 103.5 195q2 24 2 27v53q-56 13 -129 28l-85 18l1 -107v-33q0 -152 -35 -327l30 -14q48 48 112.5 160zM485.5 1311.5q28.5 -43.5 53.5 -64.5q101 20 229.5 80.5t194.5 118.5q0 56 -29.5 114.5t-78.5 105t-107 66.5l-53 -63q-82 -97 -133.5 -152.5t-121.5 -114.5
q17 -47 45.5 -90.5z" />
    <glyph glyph-name="acircumflex" unicode="&#xe2;" horiz-adv-x="1201" 
d="M1201 278q-58 -133 -131.5 -216t-155.5 -83q-46 0 -99 28t-94 72q-4 4 -19 20t-23.5 39t-8.5 54q0 18 1 28q14 139 34 269l-15 7q-157 -402 -260 -492q-31 -24 -60 -24q-24 0 -48 12.5t-59 37.5q-13 9 -45 27q-44 25 -65.5 44t-22.5 45q0 28 1 50q2 64 2 104
q0 131 -20.5 305.5t-55.5 288.5q-12 41 -12 55q0 12 5.5 24t19.5 31q55 71 129 114.5t135 61.5t98 23q73 -50 132 -125.5t114 -170.5q-1 61 -6 179l-2 67q17 11 65 19.5t103 8.5q91 0 157.5 -29t119.5 -92q4 -34 -20 -176.5t-65 -305.5t-87 -271l173 92zM573.5 498
q64.5 112 103.5 195q2 24 2 27v53q-56 13 -129 28l-85 18l1 -107v-33q0 -152 -35 -327l30 -14q48 48 112.5 160zM291 1299q-36 32 -57 69q52 53 90 107.5t89 136.5l21 35q29 25 103 42.5t143 17.5q33 0 53 -4l231 -312q-17 -42 -57.5 -87.5t-85.5 -57.5q-75 41 -133.5 82.5
t-131.5 106.5q-48 -68 -85.5 -107.5t-95.5 -81.5q-48 21 -84 53z" />
    <glyph glyph-name="atilde" unicode="&#xe3;" horiz-adv-x="1201" 
d="M1201 278q-58 -133 -131.5 -216t-155.5 -83q-46 0 -99 28t-94 72q-4 4 -19 20t-23.5 39t-8.5 54q0 18 1 28q14 139 34 269l-15 7q-157 -402 -260 -492q-31 -24 -60 -24q-24 0 -48 12.5t-59 37.5q-13 9 -45 27q-44 25 -65.5 44t-22.5 45q0 28 1 50q2 64 2 104
q0 131 -20.5 305.5t-55.5 288.5q-12 41 -12 55q0 12 5.5 24t19.5 31q55 71 129 114.5t135 61.5t98 23q73 -50 132 -125.5t114 -170.5q-1 61 -6 179l-2 67q17 11 65 19.5t103 8.5q91 0 157.5 -29t119.5 -92q4 -34 -20 -176.5t-65 -305.5t-87 -271l173 92zM573.5 498
q64.5 112 103.5 195q2 24 2 27v53q-56 13 -129 28l-85 18l1 -107v-33q0 -152 -35 -327l30 -14q48 48 112.5 160zM585 1302.5q93 -46.5 146 -46.5q66 0 128.5 51.5t106.5 124.5t57 132l-99 92l-142 -125q-21 9 -51.5 27t-37.5 22q-73 44 -122.5 67.5t-88.5 23.5
q-66 0 -131 -53t-111 -128t-59 -133l99 -92l151 131q61 -47 154 -93.5z" />
    <glyph glyph-name="adieresis" unicode="&#xe4;" horiz-adv-x="1201" 
d="M1201 278q-58 -133 -131.5 -216t-155.5 -83q-46 0 -99 28t-94 72q-4 4 -19 20t-23.5 39t-8.5 54q0 18 1 28q14 139 34 269l-15 7q-157 -402 -260 -492q-31 -24 -60 -24q-24 0 -48 12.5t-59 37.5q-13 9 -45 27q-44 25 -65.5 44t-22.5 45q0 28 1 50q2 64 2 104
q0 131 -20.5 305.5t-55.5 288.5q-12 41 -12 55q0 12 5.5 24t19.5 31q55 71 129 114.5t135 61.5t98 23q73 -50 132 -125.5t114 -170.5q-1 61 -6 179l-2 67q17 11 65 19.5t103 8.5q91 0 157.5 -29t119.5 -92q4 -34 -20 -176.5t-65 -305.5t-87 -271l173 92zM573.5 498
q64.5 112 103.5 195q2 24 2 27v53q-56 13 -129 28l-85 18l1 -107v-33q0 -152 -35 -327l30 -14q48 48 112.5 160zM227.5 1328.5q33.5 -32.5 80.5 -55.5t94 -26q62 27 117.5 87t85.5 130q-25 116 -113.5 166.5t-197.5 50.5q-15 -50 -32 -95t-29.5 -76.5t-18.5 -45.5l-29 -72
q9 -31 42.5 -63.5zM695.5 1328.5q33.5 -32.5 80.5 -55.5t94 -26q62 27 117.5 87t85.5 130q-25 116 -113.5 166.5t-197.5 50.5q-15 -50 -32 -95t-29.5 -76.5t-18.5 -45.5l-29 -72q9 -31 42.5 -63.5z" />
    <glyph glyph-name="aring" unicode="&#xe5;" horiz-adv-x="1201" 
d="M1201 278q-58 -133 -131.5 -216t-155.5 -83q-46 0 -99 28t-94 72q-4 4 -19 20t-23.5 39t-8.5 54q0 18 1 28q14 139 34 269l-15 7q-157 -402 -260 -492q-31 -24 -60 -24q-24 0 -48 12.5t-59 37.5q-13 9 -45 27q-44 25 -65.5 44t-22.5 45q0 28 1 50q2 64 2 104
q0 131 -20.5 305.5t-55.5 288.5q-12 41 -12 55q0 12 5.5 24t19.5 31q55 71 129 114.5t135 61.5t98 23q73 -50 132 -125.5t114 -170.5q-1 61 -6 179l-2 67q17 11 65 19.5t103 8.5q91 0 157.5 -29t119.5 -92q4 -34 -20 -176.5t-65 -305.5t-87 -271l173 92zM573.5 498
q64.5 112 103.5 195q2 24 2 27v53q-56 13 -129 28l-85 18l1 -107v-33q0 -152 -35 -327l30 -14q48 48 112.5 160zM582 1228q-85 0 -148 29.5t-97 85t-34 130.5q0 68 35.5 119.5t88 82t102.5 39.5q42 7 88 7q84 0 147 -29.5t97 -84.5t34 -129q0 -68 -36 -119.5t-88 -82.5
t-102 -40q-48 -8 -87 -8zM526 1520q-7 -24 -7 -44q0 -31 12 -48q33 -18 79 -18q32 0 61 9q6 28 6 45q0 26 -9 42q-24 19 -88 19q-32 0 -54 -5z" />
    <glyph glyph-name="ae" unicode="&#xe6;" horiz-adv-x="1533" 
d="M1056 284q30 6 74.5 27t124.5 62q62 33 127 65l85 -139q-44 -59 -133.5 -134.5t-192 -130t-185.5 -54.5q-26 0 -51 17t-74 59l-30 26q-47 41 -70.5 66t-31 42.5t-5.5 36.5q9 124 9 178q0 53 -5 87l-15 4q-74 -191 -164 -353.5t-162 -162.5q-25 0 -50 12.5t-60 37.5
q-17 12 -44 27q-44 25 -65.5 44t-21.5 45l2 61q4 74 4 112q0 135 -17 300.5t-49 274.5q-11 37 -11 55q0 12 5.5 24.5t20.5 30.5q55 71 130 114.5t136.5 61.5t98.5 23q56 -40 118.5 -123.5t116.5 -172.5q3 9 7 29q10 42 21 72.5t36.5 63t68.5 57.5q61 35 134.5 65t122.5 30
q24 0 55 -16.5t83 -50.5q70 -43 77 -47q32 -17 59 -28.5t51 -20.5t33 -12q7 -2 32 -11q19 -7 30.5 -36t11.5 -113q0 -77 -21 -119q-9 -17 -87.5 -108.5t-177.5 -198t-180 -179.5h29zM1033 851q0 -57 -7 -210.5t-16 -220.5l-1 -3q155 229 218 377q-54 12 -194 57zM566 500
q67 114 104 193q2 24 2 27v53q-16 4 -28.5 7.5t-21.5 5.5q-56 15 -90 22.5t-70 10.5v-107q0 -165 -42 -360l30 -14q49 48 116 162z" />
    <glyph glyph-name="ccedilla" unicode="&#xe7;" horiz-adv-x="902" 
d="M590 348.5q99 49.5 183 94.5l101 -153q-23 -43 -95 -112t-152 -121l129 -202q-22 -86 -95.5 -157.5t-167.5 -103.5q-18 -2 -30 -2q-49 0 -99 19t-88.5 45t-55.5 48q-1 7 -1 21q0 34 7 74t16 71q62 -15 135.5 -27t117.5 -12l-67 149h-2q-39 0 -92 29t-86.5 54.5
t-80.5 63.5q-32 28 -43.5 47t-11.5 41q0 10 1 19t2 16q6 36 6 69q0 150 -16 309.5t-44 240.5q-1 5 -8.5 27t-7.5 34q0 38 61.5 93.5t117.5 88.5q52 31 123.5 61.5t113.5 30.5q29 0 72 -18.5t110 -53.5l48 -25l186 -48q5 -37 5 -64q0 -91 -34.5 -171t-79.5 -131.5t-72 -59.5
q-58 34 -103.5 86t-102.5 131l-28 39q9 -75 9 -187q0 -106 -9 -213t-26 -189l19 -16q36 15 135 64.5z" />
    <glyph glyph-name="egrave" unicode="&#xe8;" horiz-adv-x="949" 
d="M472 284q30 6 74.5 27t124.5 62q62 33 127 65l85 -139q-44 -59 -133.5 -134.5t-192 -130t-185.5 -54.5q-26 0 -51 13.5t-55 44.5q-26 26 -39 37q-21 19 -39.5 33.5t-23.5 18.5q-31 28 -42.5 51.5t-11.5 50.5q0 18 3 40q4 38 4 69q0 140 -19.5 300t-40.5 230
q-12 41 -12 54q0 40 59.5 96t115.5 91q55 34 131 64.5t126 30.5q35 -2 78 -30q96 -65 150.5 -91.5t133.5 -54.5l28 -10q12 -5 17 -10t9.5 -18.5t9.5 -43.5q6 -36 6 -77q0 -80 -21 -119q-9 -16 -86 -101.5t-177 -188t-182 -176.5h29zM449 831q0 -55 -7 -199t-16 -212l-1 -3
l28 40q66 96 112.5 169.5t77.5 147.5q-54 12 -194 57zM321.5 1327.5q128.5 -60.5 229.5 -80.5q25 21 53.5 64.5t45.5 90.5q-70 59 -121.5 114.5t-133.5 152.5l-53 63q-58 -20 -107 -66.5t-78.5 -105t-29.5 -114.5q66 -58 194.5 -118.5z" />
    <glyph glyph-name="eacute" unicode="&#xe9;" horiz-adv-x="949" 
d="M472 284q30 6 74.5 27t124.5 62q62 33 127 65l85 -139q-44 -59 -133.5 -134.5t-192 -130t-185.5 -54.5q-26 0 -51 13.5t-55 44.5q-26 26 -39 37q-21 19 -39.5 33.5t-23.5 18.5q-31 28 -42.5 51.5t-11.5 50.5q0 18 3 40q4 38 4 69q0 140 -19.5 300t-40.5 230
q-12 41 -12 54q0 40 59.5 96t115.5 91q55 34 131 64.5t126 30.5q35 -2 78 -30q96 -65 150.5 -91.5t133.5 -54.5l28 -10q12 -5 17 -10t9.5 -18.5t9.5 -43.5q6 -36 6 -77q0 -80 -21 -119q-9 -16 -86 -101.5t-177 -188t-182 -176.5h29zM449 831q0 -55 -7 -199t-16 -212l-1 -3
l28 40q66 96 112.5 169.5t77.5 147.5q-54 12 -194 57zM358.5 1311.5q28.5 -43.5 53.5 -64.5q101 20 229.5 80.5t194.5 118.5q0 56 -29.5 114.5t-78.5 105t-107 66.5l-53 -63q-82 -97 -133.5 -152.5t-121.5 -114.5q17 -47 45.5 -90.5z" />
    <glyph glyph-name="ecircumflex" unicode="&#xea;" horiz-adv-x="949" 
d="M472 284q30 6 74.5 27t124.5 62q62 33 127 65l85 -139q-44 -59 -133.5 -134.5t-192 -130t-185.5 -54.5q-26 0 -51 13.5t-55 44.5q-26 26 -39 37q-21 19 -39.5 33.5t-23.5 18.5q-31 28 -42.5 51.5t-11.5 50.5q0 18 3 40q4 38 4 69q0 140 -19.5 300t-40.5 230
q-12 41 -12 54q0 40 59.5 96t115.5 91q55 34 131 64.5t126 30.5q35 -2 78 -30q96 -65 150.5 -91.5t133.5 -54.5l28 -10q12 -5 17 -10t9.5 -18.5t9.5 -43.5q6 -36 6 -77q0 -80 -21 -119q-9 -16 -86 -101.5t-177 -188t-182 -176.5h29zM449 831q0 -55 -7 -199t-16 -212l-1 -3
l28 40q66 96 112.5 169.5t77.5 147.5q-54 12 -194 57zM164 1299q-36 32 -57 69q52 53 90 107.5t89 136.5l21 35q29 25 103 42.5t143 17.5q33 0 53 -4l231 -312q-17 -42 -57.5 -87.5t-85.5 -57.5q-75 41 -133.5 82.5t-131.5 106.5q-48 -68 -85.5 -107.5t-95.5 -81.5
q-48 21 -84 53z" />
    <glyph glyph-name="edieresis" unicode="&#xeb;" horiz-adv-x="949" 
d="M472 284q30 6 74.5 27t124.5 62q62 33 127 65l85 -139q-44 -59 -133.5 -134.5t-192 -130t-185.5 -54.5q-26 0 -51 13.5t-55 44.5q-26 26 -39 37q-21 19 -39.5 33.5t-23.5 18.5q-31 28 -42.5 51.5t-11.5 50.5q0 18 3 40q4 38 4 69q0 140 -19.5 300t-40.5 230
q-12 41 -12 54q0 40 59.5 96t115.5 91q55 34 131 64.5t126 30.5q35 -2 78 -30q96 -65 150.5 -91.5t133.5 -54.5l28 -10q12 -5 17 -10t9.5 -18.5t9.5 -43.5q6 -36 6 -77q0 -80 -21 -119q-9 -16 -86 -101.5t-177 -188t-182 -176.5h29zM449 831q0 -55 -7 -199t-16 -212l-1 -3
l28 40q66 96 112.5 169.5t77.5 147.5q-54 12 -194 57zM100.5 1328.5q33.5 -32.5 80.5 -55.5t94 -26q62 27 117.5 87t85.5 130q-25 116 -113.5 166.5t-197.5 50.5q-15 -50 -32 -95t-29.5 -76.5t-18.5 -45.5l-29 -72q9 -31 42.5 -63.5zM568.5 1328.5q33.5 -32.5 80.5 -55.5
t94 -26q62 27 117.5 87t85.5 130q-25 116 -113.5 166.5t-197.5 50.5q-15 -50 -32 -95t-29.5 -76.5t-18.5 -45.5l-29 -72q9 -31 42.5 -63.5z" />
    <glyph glyph-name="igrave" unicode="&#xec;" horiz-adv-x="615" 
d="M67 246q4 15 27 77q37 99 63 174l-131 521q31 37 83 70.5t114.5 54t122.5 20.5q99 0 165 -58q-5 -30 -13 -107q-20 -188 -41 -343.5t-47 -262.5l-19 -78l150 67l79 -125q-44 -102 -116 -189t-159 -87q-47 0 -115 36.5t-117.5 90.5t-49.5 105q0 19 4 34zM114.5 1327.5
q128.5 -60.5 229.5 -80.5q25 21 53.5 64.5t45.5 90.5q-70 59 -121.5 114.5t-133.5 152.5l-53 63q-58 -20 -107 -66.5t-78.5 -105t-29.5 -114.5q66 -58 194.5 -118.5z" />
    <glyph glyph-name="iacute" unicode="&#xed;" horiz-adv-x="615" 
d="M67 246q4 15 27 77q37 99 63 174l-131 521q31 37 83 70.5t114.5 54t122.5 20.5q99 0 165 -58q-5 -30 -13 -107q-20 -188 -41 -343.5t-47 -262.5l-19 -78l150 67l79 -125q-44 -102 -116 -189t-159 -87q-47 0 -115 36.5t-117.5 90.5t-49.5 105q0 19 4 34zM151.5 1311.5
q28.5 -43.5 53.5 -64.5q101 20 229.5 80.5t194.5 118.5q0 56 -29.5 114.5t-78.5 105t-107 66.5l-53 -63q-82 -97 -133.5 -152.5t-121.5 -114.5q17 -47 45.5 -90.5z" />
    <glyph glyph-name="icircumflex" unicode="&#xee;" horiz-adv-x="615" 
d="M67 246q4 15 27 77q37 99 63 174l-131 521q31 37 83 70.5t114.5 54t122.5 20.5q99 0 165 -58q-5 -30 -13 -107q-20 -188 -41 -343.5t-47 -262.5l-19 -78l150 67l79 -125q-44 -102 -116 -189t-159 -87q-47 0 -115 36.5t-117.5 90.5t-49.5 105q0 19 4 34zM-43 1299
q-36 32 -57 69q52 53 90 107.5t89 136.5l21 35q29 25 103 42.5t143 17.5q33 0 53 -4l231 -312q-17 -42 -57.5 -87.5t-85.5 -57.5q-75 41 -133.5 82.5t-131.5 106.5q-48 -68 -85.5 -107.5t-95.5 -81.5q-48 21 -84 53z" />
    <glyph glyph-name="idieresis" unicode="&#xef;" horiz-adv-x="615" 
d="M67 246q4 15 27 77q37 99 63 174l-131 521q31 37 83 70.5t114.5 54t122.5 20.5q99 0 165 -58q-5 -30 -13 -107q-20 -188 -41 -343.5t-47 -262.5l-19 -78l150 67l79 -125q-44 -102 -116 -189t-159 -87q-47 0 -115 36.5t-117.5 90.5t-49.5 105q0 19 4 34zM-106.5 1328.5
q33.5 -32.5 80.5 -55.5t94 -26q62 27 117.5 87t85.5 130q-25 116 -113.5 166.5t-197.5 50.5q-15 -50 -32 -95t-29.5 -76.5t-18.5 -45.5l-29 -72q9 -31 42.5 -63.5zM361.5 1328.5q33.5 -32.5 80.5 -55.5t94 -26q62 27 117.5 87t85.5 130q-25 116 -113.5 166.5t-197.5 50.5
q-15 -50 -32 -95t-29.5 -76.5t-18.5 -45.5l-29 -72q9 -31 42.5 -63.5z" />
    <glyph glyph-name="eth" unicode="&#xf0;" horiz-adv-x="1073" 
d="M1013 819v-60q0 -140 -24.5 -318.5t-52.5 -280.5q-17 -21 -66 -52t-98 -56q-66 -33 -114 -50t-96 -22q-66 6 -151.5 29.5t-163 57.5t-121.5 69q-30 109 -47 217.5t-17 226.5q0 140 18 256q28 35 104 73.5t162.5 68t139.5 36.5q49 -5 102 -15l4 7q-88 100 -188 184
l-126 -131q-143 23 -173 109l115 140l-181 111q0 25 19 67.5t46.5 79.5t51.5 47q123 -38 236 -96l127 154q62 -7 128.5 -40t91.5 -93l-138 -144q206 -141 393 -336q19 -82 19 -239zM648 489q0 171 -16 347l-17 4l-189 -162q-9 -111 -9 -172q0 -116 11 -204q70 -46 156 -72
l55 38q9 102 9 221z" />
    <glyph glyph-name="ntilde" unicode="&#xf1;" horiz-adv-x="1192" 
d="M461 360q51 -151 84 -336q-62 -44 -187 -44q-69 0 -142 23t-109 63q20 115 34.5 176.5t35.5 125.5q-23 54 -59 204t-64 298t-28 184l1 7q33 56 121.5 87.5t178.5 31.5q104 0 145 -37l-73 -626l16 -3q16 53 34.5 121t26.5 99q37 142 66 239.5t69 191.5q47 15 133 15
q105 0 196 -33.5t155 -108.5q0 -85 -21.5 -214.5t-59 -267t-81.5 -245.5l170 89l89 -121q-23 -68 -67 -137.5t-99 -115.5t-109 -46q-46 0 -99.5 26t-90.5 66q-36 38 -49.5 70t-11.5 79l25 551l-29 9q-117 -258 -201 -421zM583 1302.5q93 -46.5 146 -46.5q66 0 128.5 51.5
t106.5 124.5t57 132l-99 92l-142 -125q-21 9 -51.5 27t-37.5 22q-73 44 -122.5 67.5t-88.5 23.5q-66 0 -131 -53t-111 -128t-59 -133l99 -92l151 131q61 -47 154 -93.5z" />
    <glyph glyph-name="ograve" unicode="&#xf2;" horiz-adv-x="1083" 
d="M1019.5 894.5q3.5 -48.5 3.5 -135.5q0 -140 -24.5 -318.5t-52.5 -280.5q-17 -21 -66 -52t-98 -56q-66 -33 -114 -50t-96 -22q-68 6 -160 30t-171.5 57.5t-114.5 68.5q-31 198 -47.5 342t-16.5 280q0 125 18 248q28 35 114 78.5t183 78t149 41.5q83 -8 179 -40t177.5 -79
t124.5 -98q9 -44 12.5 -92.5zM414 593q0 -160 14 -301q82 -54 166 -72l55 38q8 83 8 222q0 157 -17 320l-154 63l-60 -29q-12 -120 -12 -241zM380.5 1327.5q128.5 -60.5 229.5 -80.5q25 21 53.5 64.5t45.5 90.5q-70 59 -121.5 114.5t-133.5 152.5l-53 63q-58 -20 -107 -66.5
t-78.5 -105t-29.5 -114.5q66 -58 194.5 -118.5z" />
    <glyph glyph-name="oacute" unicode="&#xf3;" horiz-adv-x="1083" 
d="M1019.5 894.5q3.5 -48.5 3.5 -135.5q0 -140 -24.5 -318.5t-52.5 -280.5q-17 -21 -66 -52t-98 -56q-66 -33 -114 -50t-96 -22q-68 6 -160 30t-171.5 57.5t-114.5 68.5q-31 198 -47.5 342t-16.5 280q0 125 18 248q28 35 114 78.5t183 78t149 41.5q83 -8 179 -40t177.5 -79
t124.5 -98q9 -44 12.5 -92.5zM414 593q0 -160 14 -301q82 -54 166 -72l55 38q8 83 8 222q0 157 -17 320l-154 63l-60 -29q-12 -120 -12 -241zM417.5 1311.5q28.5 -43.5 53.5 -64.5q101 20 229.5 80.5t194.5 118.5q0 56 -29.5 114.5t-78.5 105t-107 66.5l-53 -63
q-82 -97 -133.5 -152.5t-121.5 -114.5q17 -47 45.5 -90.5z" />
    <glyph glyph-name="ocircumflex" unicode="&#xf4;" horiz-adv-x="1083" 
d="M1019.5 894.5q3.5 -48.5 3.5 -135.5q0 -140 -24.5 -318.5t-52.5 -280.5q-17 -21 -66 -52t-98 -56q-66 -33 -114 -50t-96 -22q-68 6 -160 30t-171.5 57.5t-114.5 68.5q-31 198 -47.5 342t-16.5 280q0 125 18 248q28 35 114 78.5t183 78t149 41.5q83 -8 179 -40t177.5 -79
t124.5 -98q9 -44 12.5 -92.5zM414 593q0 -160 14 -301q82 -54 166 -72l55 38q8 83 8 222q0 157 -17 320l-154 63l-60 -29q-12 -120 -12 -241zM223 1299q-36 32 -57 69q52 53 90 107.5t89 136.5l21 35q29 25 103 42.5t143 17.5q33 0 53 -4l231 -312q-17 -42 -57.5 -87.5
t-85.5 -57.5q-75 41 -133.5 82.5t-131.5 106.5q-48 -68 -85.5 -107.5t-95.5 -81.5q-48 21 -84 53z" />
    <glyph glyph-name="otilde" unicode="&#xf5;" horiz-adv-x="1083" 
d="M1019.5 894.5q3.5 -48.5 3.5 -135.5q0 -140 -24.5 -318.5t-52.5 -280.5q-17 -21 -66 -52t-98 -56q-66 -33 -114 -50t-96 -22q-68 6 -160 30t-171.5 57.5t-114.5 68.5q-31 198 -47.5 342t-16.5 280q0 125 18 248q28 35 114 78.5t183 78t149 41.5q83 -8 179 -40t177.5 -79
t124.5 -98q9 -44 12.5 -92.5zM414 593q0 -160 14 -301q82 -54 166 -72l55 38q8 83 8 222q0 157 -17 320l-154 63l-60 -29q-12 -120 -12 -241zM517 1302.5q93 -46.5 146 -46.5q66 0 128.5 51.5t106.5 124.5t57 132l-99 92l-142 -125q-21 9 -51.5 27t-37.5 22
q-73 44 -122.5 67.5t-88.5 23.5q-66 0 -131 -53t-111 -128t-59 -133l99 -92l151 131q61 -47 154 -93.5z" />
    <glyph glyph-name="odieresis" unicode="&#xf6;" horiz-adv-x="1083" 
d="M1019.5 894.5q3.5 -48.5 3.5 -135.5q0 -140 -24.5 -318.5t-52.5 -280.5q-17 -21 -66 -52t-98 -56q-66 -33 -114 -50t-96 -22q-68 6 -160 30t-171.5 57.5t-114.5 68.5q-31 198 -47.5 342t-16.5 280q0 125 18 248q28 35 114 78.5t183 78t149 41.5q83 -8 179 -40t177.5 -79
t124.5 -98q9 -44 12.5 -92.5zM414 593q0 -160 14 -301q82 -54 166 -72l55 38q8 83 8 222q0 157 -17 320l-154 63l-60 -29q-12 -120 -12 -241zM159.5 1328.5q33.5 -32.5 80.5 -55.5t94 -26q62 27 117.5 87t85.5 130q-25 116 -113.5 166.5t-197.5 50.5q-15 -50 -32 -95
t-29.5 -76.5t-18.5 -45.5l-29 -72q9 -31 42.5 -63.5zM627.5 1328.5q33.5 -32.5 80.5 -55.5t94 -26q62 27 117.5 87t85.5 130q-25 116 -113.5 166.5t-197.5 50.5q-15 -50 -32 -95t-29.5 -76.5t-18.5 -45.5l-29 -72q9 -31 42.5 -63.5z" />
    <glyph glyph-name="divide" unicode="&#xf7;" horiz-adv-x="999" 
d="M408 1136q-40 -45 -75 -91.5t-40 -64.5q38 -114 180 -175q38 12 87 45.5t88 79.5t50 93q-42 59 -102 105.5t-129 65.5q-19 -13 -59 -58zM88 496q0 56 14 98.5t45 94.5l758 65q7 -28 7 -61q0 -105 -75 -252l-746 -1q-3 30 -3 56zM408 311q-40 -45 -75 -91.5t-40 -64.5
q38 -114 180 -175q38 12 87 45.5t88 79.5t50 93q-42 59 -102 105.5t-129 65.5q-19 -13 -59 -58z" />
    <glyph glyph-name="oslash" unicode="&#xf8;" horiz-adv-x="1083" 
d="M1019.5 894.5q3.5 -48.5 3.5 -135.5q0 -140 -24.5 -318.5t-52.5 -280.5q-17 -21 -66 -52t-98 -56q-66 -33 -114 -50t-96 -22q-65 6 -145 26l-108 -238q-61 3 -102.5 25t-74.5 77l78 207q-64 29 -94 59q-31 198 -47.5 342t-16.5 280q0 125 18 248q28 35 114 78.5t183 78
t149 41.5q77 -8 151 -31l109 275q74 -21 114.5 -53t76.5 -104l-95 -206q84 -48 125 -98q9 -44 12.5 -92.5zM657 480q0 157 -17 320l-154 63l-60 -29q-12 -120 -12 -241q0 -160 14 -301q82 -54 166 -72l55 38q8 83 8 222z" />
    <glyph glyph-name="ugrave" unicode="&#xf9;" horiz-adv-x="1164" 
d="M458.5 639.5q-11.5 -134.5 -39.5 -264.5l30 -14q35 34 80.5 114t83.5 164.5t49 124.5q-29 346 -29 390q17 11 65 19.5t103 8.5q91 0 157.5 -29t119.5 -92v-11q0 -50 -24.5 -190t-64.5 -294.5t-83 -257.5l173 92l85 -121q-57 -132 -130.5 -215.5t-154.5 -83.5
q-47 0 -100.5 27.5t-94.5 72.5q-4 4 -19.5 20t-24 39t-8.5 54q0 8 2 28q14 139 34 269l-15 7q-76 -193 -165.5 -355t-160.5 -162q-25 0 -49.5 12.5t-60.5 38.5l-35 23q-51 33 -77.5 56.5t-26.5 51.5l84 411l-155 431q26 64 84 106t128 61.5t137 19.5q68 0 104 -17
q10 -106 10 -243q0 -157 -11.5 -291.5zM401.5 1327.5q128.5 -60.5 229.5 -80.5q25 21 53.5 64.5t45.5 90.5q-70 59 -121.5 114.5t-133.5 152.5l-53 63q-58 -20 -107 -66.5t-78.5 -105t-29.5 -114.5q66 -58 194.5 -118.5z" />
    <glyph glyph-name="uacute" unicode="&#xfa;" horiz-adv-x="1164" 
d="M458.5 639.5q-11.5 -134.5 -39.5 -264.5l30 -14q35 34 80.5 114t83.5 164.5t49 124.5q-29 346 -29 390q17 11 65 19.5t103 8.5q91 0 157.5 -29t119.5 -92v-11q0 -50 -24.5 -190t-64.5 -294.5t-83 -257.5l173 92l85 -121q-57 -132 -130.5 -215.5t-154.5 -83.5
q-47 0 -100.5 27.5t-94.5 72.5q-4 4 -19.5 20t-24 39t-8.5 54q0 8 2 28q14 139 34 269l-15 7q-76 -193 -165.5 -355t-160.5 -162q-25 0 -49.5 12.5t-60.5 38.5l-35 23q-51 33 -77.5 56.5t-26.5 51.5l84 411l-155 431q26 64 84 106t128 61.5t137 19.5q68 0 104 -17
q10 -106 10 -243q0 -157 -11.5 -291.5zM438.5 1311.5q28.5 -43.5 53.5 -64.5q101 20 229.5 80.5t194.5 118.5q0 56 -29.5 114.5t-78.5 105t-107 66.5l-53 -63q-82 -97 -133.5 -152.5t-121.5 -114.5q17 -47 45.5 -90.5z" />
    <glyph glyph-name="ucircumflex" unicode="&#xfb;" horiz-adv-x="1164" 
d="M458.5 639.5q-11.5 -134.5 -39.5 -264.5l30 -14q35 34 80.5 114t83.5 164.5t49 124.5q-29 346 -29 390q17 11 65 19.5t103 8.5q91 0 157.5 -29t119.5 -92v-11q0 -50 -24.5 -190t-64.5 -294.5t-83 -257.5l173 92l85 -121q-57 -132 -130.5 -215.5t-154.5 -83.5
q-47 0 -100.5 27.5t-94.5 72.5q-4 4 -19.5 20t-24 39t-8.5 54q0 8 2 28q14 139 34 269l-15 7q-76 -193 -165.5 -355t-160.5 -162q-25 0 -49.5 12.5t-60.5 38.5l-35 23q-51 33 -77.5 56.5t-26.5 51.5l84 411l-155 431q26 64 84 106t128 61.5t137 19.5q68 0 104 -17
q10 -106 10 -243q0 -157 -11.5 -291.5zM244 1299q-36 32 -57 69q52 53 90 107.5t89 136.5l21 35q29 25 103 42.5t143 17.5q33 0 53 -4l231 -312q-17 -42 -57.5 -87.5t-85.5 -57.5q-75 41 -133.5 82.5t-131.5 106.5q-48 -68 -85.5 -107.5t-95.5 -81.5q-48 21 -84 53z" />
    <glyph glyph-name="udieresis" unicode="&#xfc;" horiz-adv-x="1164" 
d="M458.5 639.5q-11.5 -134.5 -39.5 -264.5l30 -14q35 34 80.5 114t83.5 164.5t49 124.5q-29 346 -29 390q17 11 65 19.5t103 8.5q91 0 157.5 -29t119.5 -92v-11q0 -50 -24.5 -190t-64.5 -294.5t-83 -257.5l173 92l85 -121q-57 -132 -130.5 -215.5t-154.5 -83.5
q-47 0 -100.5 27.5t-94.5 72.5q-4 4 -19.5 20t-24 39t-8.5 54q0 8 2 28q14 139 34 269l-15 7q-76 -193 -165.5 -355t-160.5 -162q-25 0 -49.5 12.5t-60.5 38.5l-35 23q-51 33 -77.5 56.5t-26.5 51.5l84 411l-155 431q26 64 84 106t128 61.5t137 19.5q68 0 104 -17
q10 -106 10 -243q0 -157 -11.5 -291.5zM180.5 1328.5q33.5 -32.5 80.5 -55.5t94 -26q62 27 117.5 87t85.5 130q-25 116 -113.5 166.5t-197.5 50.5q-15 -50 -32 -95t-29.5 -76.5t-18.5 -45.5l-29 -72q9 -31 42.5 -63.5zM648.5 1328.5q33.5 -32.5 80.5 -55.5t94 -26
q62 27 117.5 87t85.5 130q-25 116 -113.5 166.5t-197.5 50.5q-15 -50 -32 -95t-29.5 -76.5t-18.5 -45.5l-29 -72q9 -31 42.5 -63.5z" />
    <glyph glyph-name="yacute" unicode="&#xfd;" horiz-adv-x="1115" 
d="M1080 1049l-4 -20q-13 -67 -35 -129.5t-80 -168.5l138 -793q-21 -81 -76 -155.5t-133 -131t-166 -86.5q-21 -3 -43 -3q-70 0 -149 27t-141.5 65t-85.5 68q-1 13 -1 35q0 36 5.5 62t20.5 75q75 -17 201.5 -32.5t194.5 -15.5q2 33 2 108q0 119 -7 290q-6 186 -6 258v30
l-10 3q-29 -75 -86 -186.5t-119 -208.5t-107 -135q-32 -25 -60 -25q-44 0 -116 51l-35 23q-51 33 -77.5 56.5t-26.5 51.5l84 411l-155 431q26 64 84 106t128 61.5t137 19.5q68 0 104 -17q10 -106 10 -243q0 -108 -6 -218q-5 -93 -15.5 -171t-29.5 -167l30 -14q35 34 81 109
t84 153t48 116q-29 346 -29 415q17 11 65 19.5t103 8.5q91 0 157.5 -29t119.5 -92q0 -7 -3 -16zM438.5 1311.5q28.5 -43.5 53.5 -64.5q101 20 229.5 80.5t194.5 118.5q0 56 -29.5 114.5t-78.5 105t-107 66.5l-53 -63q-82 -97 -133.5 -152.5t-121.5 -114.5q17 -47 45.5 -90.5
z" />
    <glyph glyph-name="thorn" unicode="&#xfe;" horiz-adv-x="1129" 
d="M578 -132l32 -163q-24 -35 -69 -68t-97 -54t-95 -21q-36 0 -76 17.5t-77 43.5q-31 22 -47 38t-26 42.5t-10 69.5l-1 739l4 15q-22 132 -45 330t-38.5 372t-15.5 224q0 11 1 13q51 63 142.5 105t180.5 42q94 0 152 -47q-9 -166 -28 -334.5t-55 -435.5q-23 -169 -35 -271
l252 640q8 2 25 7t38 8.5t47 3.5q42 0 103 -16t127.5 -49t121.5 -81q-14 -241 -65.5 -489t-156.5 -554q-52 -15 -98 -15q-97 0 -193.5 25t-148.5 54q-13 -80 -41 -191h192zM533.5 521q-84.5 -167 -109.5 -221q37 -32 104 -57t107 -28q17 118 36.5 294.5t24.5 267.5l-27 8
q-51 -97 -135.5 -264z" />
    <glyph glyph-name="ydieresis" unicode="&#xff;" horiz-adv-x="1115" 
d="M1080 1049l-4 -20q-13 -67 -35 -129.5t-80 -168.5l138 -793q-21 -81 -76 -155.5t-133 -131t-166 -86.5q-21 -3 -43 -3q-70 0 -149 27t-141.5 65t-85.5 68q-1 13 -1 35q0 36 5.5 62t20.5 75q75 -17 201.5 -32.5t194.5 -15.5q2 33 2 108q0 119 -7 290q-6 186 -6 258v30
l-10 3q-29 -75 -86 -186.5t-119 -208.5t-107 -135q-32 -25 -60 -25q-44 0 -116 51l-35 23q-51 33 -77.5 56.5t-26.5 51.5l84 411l-155 431q26 64 84 106t128 61.5t137 19.5q68 0 104 -17q10 -106 10 -243q0 -108 -6 -218q-5 -93 -15.5 -171t-29.5 -167l30 -14q35 34 81 109
t84 153t48 116q-29 346 -29 415q17 11 65 19.5t103 8.5q91 0 157.5 -29t119.5 -92q0 -7 -3 -16zM180.5 1328.5q33.5 -32.5 80.5 -55.5t94 -26q62 27 117.5 87t85.5 130q-25 116 -113.5 166.5t-197.5 50.5q-15 -50 -32 -95t-29.5 -76.5t-18.5 -45.5l-29 -72q9 -31 42.5 -63.5
zM648.5 1328.5q33.5 -32.5 80.5 -55.5t94 -26q62 27 117.5 87t85.5 130q-25 116 -113.5 166.5t-197.5 50.5q-15 -50 -32 -95t-29.5 -76.5t-18.5 -45.5l-29 -72q9 -31 42.5 -63.5z" />
    <glyph glyph-name="Amacron" unicode="&#x100;" horiz-adv-x="1272" 
d="M1203.5 434.5q43.5 -262.5 43.5 -352.5q0 -18 -2 -48q-87 -54 -209 -54q-76 0 -142.5 22t-101.5 59l81 272l-19 87h-54q-124 7 -254 18q-18 -149 -40 -240t-77.5 -154.5t-156.5 -63.5q-88 0 -163 43t-103 117l45 163l132 -11l174 875q-159 22 -230 49q3 87 36.5 184
t91.5 149q369 -61 770 -183q135 -669 178.5 -931.5zM802 655l-104 476l-86 7q-5 -87 -16.5 -227t-26.5 -278zM1032 1928q8 -31 8 -75q0 -49 -12 -99.5t-36 -96.5q-93 -7 -293 -7q-178 0 -364 7q-3 26 -3 52q0 58 13 111.5t36 93.5z" />
    <glyph glyph-name="amacron" unicode="&#x101;" horiz-adv-x="1201" 
d="M1201 278q-58 -133 -131.5 -216t-155.5 -83q-46 0 -99 28t-94 72q-4 4 -19 20t-23.5 39t-8.5 54q0 18 1 28q14 139 34 269l-15 7q-157 -402 -260 -492q-31 -24 -60 -24q-24 0 -48 12.5t-59 37.5q-13 9 -45 27q-44 25 -65.5 44t-22.5 45q0 28 1 50q2 64 2 104
q0 131 -20.5 305.5t-55.5 288.5q-12 41 -12 55q0 12 5.5 24t19.5 31q55 71 129 114.5t135 61.5t98 23q73 -50 132 -125.5t114 -170.5q-1 61 -6 179l-2 67q17 11 65 19.5t103 8.5q91 0 157.5 -29t119.5 -92q4 -34 -20 -176.5t-65 -305.5t-87 -271l173 92zM573.5 498
q64.5 112 103.5 195q2 24 2 27v53q-56 13 -129 28l-85 18l1 -107v-33q0 -152 -35 -327l30 -14q48 48 112.5 160zM963 1608q8 -31 8 -75q0 -49 -12 -99.5t-36 -96.5q-93 -7 -293 -7q-178 0 -364 7q-3 26 -3 52q0 58 13 111.5t36 93.5z" />
    <glyph glyph-name="Abreve" unicode="&#x102;" horiz-adv-x="1272" 
d="M1203.5 434.5q43.5 -262.5 43.5 -352.5q0 -18 -2 -48q-87 -54 -209 -54q-76 0 -142.5 22t-101.5 59l81 272l-19 87h-54q-124 7 -254 18q-18 -149 -40 -240t-77.5 -154.5t-156.5 -63.5q-88 0 -163 43t-103 117l45 163l132 -11l174 875q-159 22 -230 49q3 87 36.5 184
t91.5 149q369 -61 770 -183q135 -669 178.5 -931.5zM802 655l-104 476l-86 7q-5 -87 -16.5 -227t-26.5 -278zM829 1656.5q81 37.5 140.5 103t81.5 146.5l-110 94q-39 -47 -81 -73.5t-74.5 -36t-51.5 -9.5q-135 0 -200 138q-62 -10 -126.5 -55.5t-108.5 -116.5
q16 -74 71 -125.5t133 -77t162 -25.5q83 0 164 37.5z" />
    <glyph glyph-name="abreve" unicode="&#x103;" horiz-adv-x="1201" 
d="M1201 278q-58 -133 -131.5 -216t-155.5 -83q-46 0 -99 28t-94 72q-4 4 -19 20t-23.5 39t-8.5 54q0 18 1 28q14 139 34 269l-15 7q-157 -402 -260 -492q-31 -24 -60 -24q-24 0 -48 12.5t-59 37.5q-13 9 -45 27q-44 25 -65.5 44t-22.5 45q0 28 1 50q2 64 2 104
q0 131 -20.5 305.5t-55.5 288.5q-12 41 -12 55q0 12 5.5 24t19.5 31q55 71 129 114.5t135 61.5t98 23q73 -50 132 -125.5t114 -170.5q-1 61 -6 179l-2 67q17 11 65 19.5t103 8.5q91 0 157.5 -29t119.5 -92q4 -34 -20 -176.5t-65 -305.5t-87 -271l173 92zM573.5 498
q64.5 112 103.5 195q2 24 2 27v53q-56 13 -129 28l-85 18l1 -107v-33q0 -152 -35 -327l30 -14q48 48 112.5 160zM760.5 1323.5q80.5 43.5 140.5 115.5t81 153l-110 94q-86 -87 -127.5 -115.5t-54.5 -28.5q-57 0 -119 35.5t-106 127.5q-62 -10 -126.5 -55.5t-108.5 -116.5
q16 -75 72 -132.5t135 -89t161 -31.5t162.5 43.5z" />
    <glyph glyph-name="Aogonek" unicode="&#x104;" horiz-adv-x="1272" 
d="M1177 -12q-76 -49 -123.5 -85.5t-66.5 -72.5l14 -13l196 67l47 -127q-51 -100 -113.5 -147.5t-148.5 -47.5q-48 0 -106.5 33.5t-99.5 83.5t-41 96q0 55 55 109t141 108q-94 21 -139 69l81 272l-19 87h-54q-124 7 -254 18q-18 -149 -40 -240t-77.5 -154.5t-156.5 -63.5
q-88 0 -163 43t-103 117l45 163l132 -11l174 875q-159 22 -230 49q3 87 36.5 184t91.5 149q369 -61 770 -183q135 -669 178.5 -931.5t43.5 -352.5q0 -18 -2 -48q-19 -14 -68 -46zM802 655l-104 476l-86 7q-5 -87 -16.5 -227t-26.5 -278z" />
    <glyph glyph-name="aogonek" unicode="&#x105;" horiz-adv-x="1194" 
d="M1147 -116l47 -127q-51 -100 -113.5 -147.5t-148.5 -47.5q-48 0 -106.5 33.5t-99.5 83.5t-41 96q0 100 155 217q-33 13 -66 35.5t-60 51.5q-4 4 -19 20t-23.5 39t-8.5 54q0 18 1 28q14 139 34 269l-15 7q-56 -144 -131 -291t-139 -201q-31 -24 -60 -24q-24 0 -48 12.5
t-58 37.5q-17 12 -44 27q-44 25 -65.5 44t-21.5 45l2 61q4 74 4 112q0 135 -17 300.5t-49 274.5q-11 37 -11 55q0 12 6 24t20 31q56 71 130.5 114.5t136 61.5t98.5 23q70 -49 121 -118.5t114 -177.5q-1 61 -6 179l-2 67q17 11 65 19.5t103 8.5q91 0 157.5 -29t119.5 -92
q4 -34 -20 -176.5t-65 -305.5t-87 -271l173 92l85 -121q-43 -100 -95 -171q-37 -60 -86 -143.5t-76 -133.5l14 -13zM672 720v53q-43 11 -128 28l-82 18v-107q0 -165 -42 -360l30 -14q49 48 116 162t104 193q2 24 2 27z" />
    <glyph glyph-name="Cacute" unicode="&#x106;" horiz-adv-x="1011" 
d="M515 1032q0 -155 -14.5 -366t-30.5 -346q38 5 91 24t177 67q106 41 160 61l75 -167q-37 -63 -114 -134t-180.5 -125t-213.5 -66q-47 0 -110.5 35t-121.5 80q-33 26 -48 48.5t-19 48.5q-12 241 -24 421q-27 422 -53 558q-6 34 -6 115q12 46 57.5 99t107.5 97.5t121 66.5
q47 -9 130.5 -38t128.5 -52l316 22q13 -62 13 -122q0 -88 -24.5 -163.5t-58 -124.5t-59.5 -61q-144 60 -281 182l-24 -22q5 -62 5 -138zM377 1629q32 -5 65 -5q97 0 221 32t218 82q-8 80 -55.5 157.5t-124.5 124.5q-111 -78 -190.5 -126.5t-197.5 -107.5q15 -103 64 -157z
" />
    <glyph glyph-name="cacute" unicode="&#x107;" horiz-adv-x="902" 
d="M52.5 896q-7.5 22 -7.5 34q0 38 61.5 93.5t117.5 88.5q52 31 123.5 61.5t113.5 30.5q29 0 72 -18.5t110 -53.5l48 -25l186 -48q5 -37 5 -64q0 -91 -34.5 -171t-79.5 -131.5t-72 -59.5q-58 34 -103.5 86t-102.5 131l-28 39q9 -75 9 -187q0 -106 -9 -213t-26 -189l19 -16
q36 15 135 64.5t183 94.5l101 -153q-25 -47 -105.5 -122t-175.5 -131.5t-167 -56.5q-39 0 -92 29t-86.5 54.5t-80.5 63.5q-32 28 -43.5 47t-11.5 41q0 10 1 19t2 16q6 36 6 69q0 150 -16 309.5t-44 240.5q-1 5 -8.5 27zM352.5 1311.5q28.5 -43.5 53.5 -64.5
q101 20 229.5 80.5t194.5 118.5q0 56 -29.5 114.5t-78.5 105t-107 66.5l-53 -63q-82 -97 -133.5 -152.5t-121.5 -114.5q17 -47 45.5 -90.5z" />
    <glyph glyph-name="Ccircumflex" unicode="&#x108;" horiz-adv-x="1011" 
d="M515 1032q0 -155 -14.5 -366t-30.5 -346q38 5 91 24t177 67q106 41 160 61l75 -167q-37 -63 -114 -134t-180.5 -125t-213.5 -66q-47 0 -110.5 35t-121.5 80q-33 26 -48 48.5t-19 48.5q-12 241 -24 421q-27 422 -53 558q-6 34 -6 115q12 46 57.5 99t107.5 97.5t121 66.5
q47 -9 130.5 -38t128.5 -52l316 22q13 -62 13 -122q0 -88 -24.5 -163.5t-58 -124.5t-59.5 -61q-144 60 -281 182l-24 -22q5 -62 5 -138zM268 1662q-36 32 -57 69q65 61 101 104.5t78 111.5q27 24 113 42t157 18q33 0 53 -4l208 -249q-17 -42 -57.5 -87.5t-85.5 -57.5
q-52 19 -102 52.5t-122 89.5l-31 24q-62 -71 -98.5 -108t-72.5 -58q-48 21 -84 53z" />
    <glyph glyph-name="ccircumflex" unicode="&#x109;" horiz-adv-x="902" 
d="M52.5 896q-7.5 22 -7.5 34q0 38 61.5 93.5t117.5 88.5q52 31 123.5 61.5t113.5 30.5q29 0 72 -18.5t110 -53.5l48 -25l186 -48q5 -37 5 -64q0 -91 -34.5 -171t-79.5 -131.5t-72 -59.5q-58 34 -103.5 86t-102.5 131l-28 39q9 -75 9 -187q0 -106 -9 -213t-26 -189l19 -16
q36 15 135 64.5t183 94.5l101 -153q-25 -47 -105.5 -122t-175.5 -131.5t-167 -56.5q-39 0 -92 29t-86.5 54.5t-80.5 63.5q-32 28 -43.5 47t-11.5 41q0 10 1 19t2 16q6 36 6 69q0 150 -16 309.5t-44 240.5q-1 5 -8.5 27zM158 1299q-36 32 -57 69q52 53 90 107.5t89 136.5
l21 35q29 25 103 42.5t143 17.5q33 0 53 -4l231 -312q-17 -42 -57.5 -87.5t-85.5 -57.5q-75 41 -133.5 82.5t-131.5 106.5q-48 -68 -85.5 -107.5t-95.5 -81.5q-48 21 -84 53z" />
    <glyph glyph-name="Cdotaccent" unicode="&#x10a;" horiz-adv-x="1011" 
d="M515 1032q0 -155 -14.5 -366t-30.5 -346q38 5 91 24t177 67q106 41 160 61l75 -167q-37 -63 -114 -134t-180.5 -125t-213.5 -66q-47 0 -110.5 35t-121.5 80q-33 26 -48 48.5t-19 48.5q-12 241 -24 421q-27 422 -53 558q-6 34 -6 115q12 46 57.5 99t107.5 97.5t121 66.5
q47 -9 130.5 -38t128.5 -52l316 22q13 -62 13 -122q0 -88 -24.5 -163.5t-58 -124.5t-59.5 -61q-144 60 -281 182l-24 -22q5 -62 5 -138zM381.5 1647.5q33.5 -32.5 80.5 -55.5t94 -26q67 29 134 90t95 127q-17 79 -71.5 127.5t-125 69t-140.5 20.5q-15 -50 -32 -95
t-29.5 -76.5t-18.5 -45.5l-29 -72q9 -31 42.5 -63.5z" />
    <glyph glyph-name="cdotaccent" unicode="&#x10b;" horiz-adv-x="902" 
d="M52.5 896q-7.5 22 -7.5 34q0 38 61.5 93.5t117.5 88.5q52 31 123.5 61.5t113.5 30.5q29 0 72 -18.5t110 -53.5l48 -25l186 -48q5 -37 5 -64q0 -91 -34.5 -171t-79.5 -131.5t-72 -59.5q-58 34 -103.5 86t-102.5 131l-28 39q9 -75 9 -187q0 -106 -9 -213t-26 -189l19 -16
q36 15 135 64.5t183 94.5l101 -153q-25 -47 -105.5 -122t-175.5 -131.5t-167 -56.5q-39 0 -92 29t-86.5 54.5t-80.5 63.5q-32 28 -43.5 47t-11.5 41q0 10 1 19t2 16q6 36 6 69q0 150 -16 309.5t-44 240.5q-1 5 -8.5 27zM296.5 1328.5q33.5 -32.5 80.5 -55.5t94 -26
q67 29 134 90t95 127q-17 79 -71.5 127.5t-125 69t-140.5 20.5q-15 -50 -32 -95t-29.5 -76.5t-18.5 -45.5l-29 -72q9 -31 42.5 -63.5z" />
    <glyph glyph-name="Ccaron" unicode="&#x10c;" horiz-adv-x="1011" 
d="M515 1032q0 -155 -14.5 -366t-30.5 -346q38 5 91 24t177 67q106 41 160 61l75 -167q-37 -63 -114 -134t-180.5 -125t-213.5 -66q-47 0 -110.5 35t-121.5 80q-33 26 -48 48.5t-19 48.5q-12 241 -24 421q-27 422 -53 558q-6 34 -6 115q12 46 57.5 99t107.5 97.5t121 66.5
q47 -9 130.5 -38t128.5 -52l316 22q13 -62 13 -122q0 -88 -24.5 -163.5t-58 -124.5t-59.5 -61q-144 60 -281 182l-24 -22q5 -62 5 -138zM590.5 1613q-54.5 -4 -101.5 -4q-46 0 -73 5l-225 190q2 36 40 85t90.5 82.5t95.5 30.5l168 -198q53 78 95.5 123t109.5 93
q38 -17 81 -57t60 -75l-259 -266q-27 -5 -81.5 -9z" />
    <glyph glyph-name="ccaron" unicode="&#x10d;" horiz-adv-x="902" 
d="M52.5 896q-7.5 22 -7.5 34q0 38 61.5 93.5t117.5 88.5q52 31 123.5 61.5t113.5 30.5q29 0 72 -18.5t110 -53.5l48 -25l186 -48q5 -37 5 -64q0 -91 -34.5 -171t-79.5 -131.5t-72 -59.5q-58 34 -103.5 86t-102.5 131l-28 39q9 -75 9 -187q0 -106 -9 -213t-26 -189l19 -16
q36 15 135 64.5t183 94.5l101 -153q-25 -47 -105.5 -122t-175.5 -131.5t-167 -56.5q-39 0 -92 29t-86.5 54.5t-80.5 63.5q-32 28 -43.5 47t-11.5 41q0 10 1 19t2 16q6 36 6 69q0 150 -16 309.5t-44 240.5q-1 5 -8.5 27zM481 1269q-73 0 -123 10l-251 195q2 36 46.5 90
t103.5 93t102 36l145 -198q73 90 112.5 130.5t105.5 85.5q36 -16 74.5 -55.5t56.5 -76.5l-286 -304q-32 -6 -86 -6z" />
    <glyph glyph-name="Dcaron" unicode="&#x10e;" horiz-adv-x="1334" 
d="M1251.5 1126.5q2.5 -39.5 2.5 -130.5q0 -78 -14 -249t-35 -332.5t-39 -224.5q-10 -36 -84 -83t-168.5 -84t-158.5 -44q-73 40 -135 104t-86 117q-55 -94 -112 -154.5t-134 -65.5q-41 20 -87 75t-79 122t-37 122l89 124q38 14 97 14h33q-32 188 -49.5 341.5t-33.5 340.5
l-8 91l-183 16q8 111 36.5 193t98.5 130l712 -60q94 -44 195.5 -115.5t169.5 -147.5q7 -60 9.5 -99.5zM838 1129l-242 51l-36 -783l17 -3l271 -82q7 142 7 274q0 363 -17 543zM711.5 1613q-54.5 -4 -101.5 -4q-46 0 -73 5l-225 190q2 36 40 85t90.5 82.5t95.5 30.5l168 -198
q53 78 95.5 123t109.5 93q38 -17 81 -57t60 -75l-259 -266q-27 -5 -81.5 -9z" />
    <glyph glyph-name="dcaron" unicode="&#x10f;" horiz-adv-x="1444" 
d="M1193 1609l-55 -621l158 -52q86 129 152 283t106 303q-47 50 -115.5 75.5t-141.5 25.5q-56 0 -104 -14zM1262 310q-34 -81 -92.5 -157.5t-124 -124.5t-121.5 -48q-46 0 -99.5 28t-95.5 72q-3 3 -19 19.5t-25 40.5t-9 56q0 16 1 25q4 45 16 235l3 39l-5 2
q-55 -146 -127 -292t-135 -200q-29 -25 -59 -25q-23 0 -46.5 12.5t-60.5 38.5q-17 12 -44 27q-43 24 -65.5 43.5t-23.5 45.5l-1 83q-2 145 -6.5 240.5t-19.5 207t-46 217.5q-12 41 -12 55q0 12 5.5 24t19.5 31q54 71 128 114.5t135 61.5t98 23q71 -49 123.5 -118.5
t117.5 -177.5l5 2q-9 114 -32.5 294.5t-27.5 212.5q-16 122 -18 142q18 22 75.5 38t127.5 16q76 0 146 -21.5t120 -67.5q1 -5 1 -33q0 -104 -15.5 -344t-43 -479t-63.5 -360l227 123zM572.5 500.5q64.5 113.5 101.5 193.5l2 24l-1 56q-39 10 -128 28l-83 18l2 -107
q3 -165 -36 -360l30 -14q48 48 112.5 161.5z" />
    <glyph glyph-name="Dcroat" unicode="&#x110;" horiz-adv-x="1334" 
d="M1251.5 1126.5q2.5 -39.5 2.5 -130.5q0 -78 -14 -249t-35 -332.5t-39 -224.5q-10 -36 -84 -83t-168.5 -84t-158.5 -44q-73 40 -135 104t-86 117q-55 -94 -112 -154.5t-134 -65.5q-41 20 -87 75t-79 122t-37 122l89 124q38 14 97 14h33q-19 109 -33 207q-50 1 -182 5
q-22 59 -22 113q0 37 8 72l169 33q-11 103 -22 234l-9 109l-183 16q8 111 36.5 193t98.5 130l712 -60q94 -44 195.5 -115.5t169.5 -147.5q7 -60 9.5 -99.5zM838 1129l-242 51l-12 -272l149 14q25 -47 25 -115q0 -43 -11 -84t-30 -68q-51 -4 -145 -8l-12 -250l17 -3l271 -82
q7 142 7 274q0 363 -17 543z" />
    <glyph glyph-name="dcroat" unicode="&#x111;" horiz-adv-x="1211" 
d="M1206 279q-56 -133 -128 -216t-154 -83q-46 0 -99.5 28t-95.5 72q-3 3 -19 19.5t-25 40.5t-9 56q0 16 1 25q4 45 16 235l3 39l-5 2q-55 -146 -127 -292t-135 -200q-29 -25 -59 -25q-23 0 -46.5 12.5t-60.5 38.5q-17 12 -44 27q-43 24 -65.5 43.5t-23.5 45.5l-1 74
q-1 122 -5.5 205t-19.5 179.5t-47 205.5q-12 41 -12 55q0 12 5.5 24t19.5 31q54 71 128 114.5t135 61.5t98 23q71 -49 123.5 -118.5t117.5 -177.5l21 2q-12 131 -35 316q-101 2 -204 6q-22 59 -22 123q0 37 8 72l191 16q-23 175 -25 200q18 22 72.5 38t123.5 16
q73 0 134 -21t112 -68q2 -14 2 -53l-1 -72l120 12q25 -47 25 -115q0 -43 -11 -84t-30 -68q-23 -2 -112 -4q-13 -258 -36 -486.5t-58 -345.5l171 92zM675 690q-39 10 -128 28l-83 18l2 -23q3 -165 -36 -360l30 -14q49 48 115 160t99 185z" />
    <glyph glyph-name="Emacron" unicode="&#x112;" horiz-adv-x="1110" 
d="M974 1463q24 -59 24 -132q0 -82 -28.5 -157t-76.5 -112q-74 7 -159.5 27.5t-265.5 69.5l-44 12l39 -320q114 13 189 26t185 36q3 1 79 17q40 -61 40 -152q0 -61 -16 -117.5t-35 -76.5q-30 -3 -60 -3q-103 0 -200.5 20t-173.5 63l-14 -355l287 -10l82 190l180 -15
q15 -41 26.5 -126.5t11.5 -154.5q-40 -81 -104.5 -136.5t-146.5 -76.5q-130 4 -319.5 31.5t-300.5 56.5q-79 94 -93 196l158 417l-243 584q0 65 49 141.5t114 121.5l333 -73l412 94q47 -27 71 -86zM884 1928q8 -31 8 -75q0 -49 -12 -99.5t-36 -96.5q-93 -7 -293 -7
q-178 0 -364 7q-3 26 -3 52q0 58 13 111.5t36 93.5z" />
    <glyph glyph-name="emacron" unicode="&#x113;" horiz-adv-x="949" 
d="M472 284q30 6 74.5 27t124.5 62q62 33 127 65l85 -139q-44 -59 -133.5 -134.5t-192 -130t-185.5 -54.5q-26 0 -51 13.5t-55 44.5q-26 26 -39 37q-21 19 -39.5 33.5t-23.5 18.5q-31 28 -42.5 51.5t-11.5 50.5q0 18 3 40q4 38 4 69q0 140 -19.5 300t-40.5 230
q-12 41 -12 54q0 40 59.5 96t115.5 91q55 34 131 64.5t126 30.5q35 -2 78 -30q96 -65 150.5 -91.5t133.5 -54.5l28 -10q12 -5 17 -10t9.5 -18.5t9.5 -43.5q6 -36 6 -77q0 -80 -21 -119q-9 -16 -86 -101.5t-177 -188t-182 -176.5h29zM449 831q0 -55 -7 -199t-16 -212l-1 -3
l28 40q66 96 112.5 169.5t77.5 147.5q-54 12 -194 57zM836 1608q8 -31 8 -75q0 -49 -12 -99.5t-36 -96.5q-93 -7 -293 -7q-178 0 -364 7q-3 26 -3 52q0 58 13 111.5t36 93.5z" />
    <glyph glyph-name="Ebreve" unicode="&#x114;" horiz-adv-x="1110" 
d="M974 1463q24 -59 24 -132q0 -82 -28.5 -157t-76.5 -112q-74 7 -159.5 27.5t-265.5 69.5l-44 12l39 -320q114 13 189 26t185 36q3 1 79 17q40 -61 40 -152q0 -61 -16 -117.5t-35 -76.5q-30 -3 -60 -3q-103 0 -200.5 20t-173.5 63l-14 -355l287 -10l82 190l180 -15
q15 -41 26.5 -126.5t11.5 -154.5q-40 -81 -104.5 -136.5t-146.5 -76.5q-130 4 -319.5 31.5t-300.5 56.5q-79 94 -93 196l158 417l-243 584q0 65 49 141.5t114 121.5l333 -73l412 94q47 -27 71 -86zM681 1656.5q81 37.5 140.5 103t81.5 146.5l-110 94q-39 -47 -81 -73.5
t-74.5 -36t-51.5 -9.5q-135 0 -200 138q-62 -10 -126.5 -55.5t-108.5 -116.5q16 -74 71 -125.5t133 -77t162 -25.5q83 0 164 37.5z" />
    <glyph glyph-name="ebreve" unicode="&#x115;" horiz-adv-x="949" 
d="M472 284q30 6 74.5 27t124.5 62q62 33 127 65l85 -139q-44 -59 -133.5 -134.5t-192 -130t-185.5 -54.5q-26 0 -51 13.5t-55 44.5q-26 26 -39 37q-21 19 -39.5 33.5t-23.5 18.5q-31 28 -42.5 51.5t-11.5 50.5q0 18 3 40q4 38 4 69q0 140 -19.5 300t-40.5 230
q-12 41 -12 54q0 40 59.5 96t115.5 91q55 34 131 64.5t126 30.5q35 -2 78 -30q96 -65 150.5 -91.5t133.5 -54.5l28 -10q12 -5 17 -10t9.5 -18.5t9.5 -43.5q6 -36 6 -77q0 -80 -21 -119q-9 -16 -86 -101.5t-177 -188t-182 -176.5h29zM449 831q0 -55 -7 -199t-16 -212l-1 -3
l28 40q66 96 112.5 169.5t77.5 147.5q-54 12 -194 57zM633.5 1323.5q80.5 43.5 140.5 115.5t81 153l-110 94q-86 -87 -127.5 -115.5t-54.5 -28.5q-57 0 -119 35.5t-106 127.5q-62 -10 -126.5 -55.5t-108.5 -116.5q16 -75 72 -132.5t135 -89t161 -31.5t162.5 43.5z" />
    <glyph glyph-name="Edotaccent" unicode="&#x116;" horiz-adv-x="1110" 
d="M974 1463q24 -59 24 -132q0 -82 -28.5 -157t-76.5 -112q-74 7 -159.5 27.5t-265.5 69.5l-44 12l39 -320q114 13 189 26t185 36q3 1 79 17q40 -61 40 -152q0 -61 -16 -117.5t-35 -76.5q-30 -3 -60 -3q-103 0 -200.5 20t-173.5 63l-14 -355l287 -10l82 190l180 -15
q15 -41 26.5 -126.5t11.5 -154.5q-40 -81 -104.5 -136.5t-146.5 -76.5q-130 4 -319.5 31.5t-300.5 56.5q-79 94 -93 196l158 417l-243 584q0 65 49 141.5t114 121.5l333 -73l412 94q47 -27 71 -86zM350.5 1647.5q33.5 -32.5 80.5 -55.5t94 -26q67 29 134 90t95 127
q-17 79 -71.5 127.5t-125 69t-140.5 20.5q-15 -50 -32 -95t-29.5 -76.5t-18.5 -45.5l-29 -72q9 -31 42.5 -63.5z" />
    <glyph glyph-name="edotaccent" unicode="&#x117;" horiz-adv-x="949" 
d="M472 284q30 6 74.5 27t124.5 62q62 33 127 65l85 -139q-44 -59 -133.5 -134.5t-192 -130t-185.5 -54.5q-26 0 -51 13.5t-55 44.5q-26 26 -39 37q-21 19 -39.5 33.5t-23.5 18.5q-31 28 -42.5 51.5t-11.5 50.5q0 18 3 40q4 38 4 69q0 140 -19.5 300t-40.5 230
q-12 41 -12 54q0 40 59.5 96t115.5 91q55 34 131 64.5t126 30.5q35 -2 78 -30q96 -65 150.5 -91.5t133.5 -54.5l28 -10q12 -5 17 -10t9.5 -18.5t9.5 -43.5q6 -36 6 -77q0 -80 -21 -119q-9 -16 -86 -101.5t-177 -188t-182 -176.5h29zM449 831q0 -55 -7 -199t-16 -212l-1 -3
l28 40q66 96 112.5 169.5t77.5 147.5q-54 12 -194 57zM302.5 1328.5q33.5 -32.5 80.5 -55.5t94 -26q67 29 134 90t95 127q-17 79 -71.5 127.5t-125 69t-140.5 20.5q-15 -50 -32 -95t-29.5 -76.5t-18.5 -45.5l-29 -72q9 -31 42.5 -63.5z" />
    <glyph glyph-name="Eogonek" unicode="&#x118;" horiz-adv-x="1110" 
d="M713.5 -98q-52.5 -40 -70.5 -72l14 -13l196 67l47 -127q-51 -100 -113.5 -147.5t-148.5 -47.5q-48 0 -106.5 33.5t-99.5 83.5t-41 96q0 56 57 111.5t145 109.5q-115 13 -231 32.5t-189 39.5q-79 94 -93 196l158 417l-243 584q0 65 49 141.5t114 121.5l333 -73l412 94
q47 -27 71 -86t24 -132q0 -82 -28.5 -157t-76.5 -112q-74 7 -159.5 27.5t-265.5 69.5l-44 12l39 -320q114 13 189 26t185 36q3 1 79 17q40 -61 40 -152q0 -61 -16 -117.5t-35 -76.5q-30 -3 -60 -3q-103 0 -200.5 20t-173.5 63l-14 -355l287 -10l82 190l180 -15
q15 -41 26.5 -126.5t11.5 -154.5q-32 -65 -80 -114t-108 -77q-90 -60 -142.5 -100z" />
    <glyph glyph-name="eogonek" unicode="&#x119;" horiz-adv-x="949" 
d="M802 648.5q-77 -85.5 -177 -188t-182 -176.5h29q30 6 74.5 27t124.5 62q62 33 127 65l85 -139q-60 -102 -91 -153q-117 -192 -182 -316l14 -13l196 67l47 -127q-51 -100 -113.5 -147.5t-148.5 -47.5q-47 0 -105.5 34t-100 82t-41.5 87q0 54 59 116t164 146l35 28l-11 6
q-136 -81 -233 -81q-26 0 -51 13.5t-55 44.5q-26 26 -39 37q-21 19 -39.5 33.5t-23.5 18.5q-31 28 -42.5 51.5t-11.5 50.5q0 18 3 40q4 38 4 69q0 140 -19.5 300t-40.5 230q-12 41 -12 54q0 40 59.5 96t115.5 91q55 34 131 64.5t126 30.5q35 -2 78 -30q96 -65 150.5 -91.5
t133.5 -54.5l28 -10q12 -5 17 -10t9.5 -18.5t9.5 -43.5q6 -36 6 -77q0 -80 -21 -119q-9 -16 -86 -101.5zM453 457q66 96 112.5 169.5t77.5 147.5q-54 12 -194 57q0 -55 -7 -199t-16 -212l-1 -3z" />
    <glyph glyph-name="Ecaron" unicode="&#x11a;" horiz-adv-x="1110" 
d="M974 1463q24 -59 24 -132q0 -82 -28.5 -157t-76.5 -112q-74 7 -159.5 27.5t-265.5 69.5l-44 12l39 -320q114 13 189 26t185 36q3 1 79 17q40 -61 40 -152q0 -61 -16 -117.5t-35 -76.5q-30 -3 -60 -3q-103 0 -200.5 20t-173.5 63l-14 -355l287 -10l82 190l180 -15
q15 -41 26.5 -126.5t11.5 -154.5q-40 -81 -104.5 -136.5t-146.5 -76.5q-130 4 -319.5 31.5t-300.5 56.5q-79 94 -93 196l158 417l-243 584q0 65 49 141.5t114 121.5l333 -73l412 94q47 -27 71 -86zM559.5 1613q-54.5 -4 -101.5 -4q-46 0 -73 5l-225 190q2 36 40 85
t90.5 82.5t95.5 30.5l168 -198q53 78 95.5 123t109.5 93q38 -17 81 -57t60 -75l-259 -266q-27 -5 -81.5 -9z" />
    <glyph glyph-name="ecaron" unicode="&#x11b;" horiz-adv-x="949" 
d="M472 284q30 6 74.5 27t124.5 62q62 33 127 65l85 -139q-44 -59 -133.5 -134.5t-192 -130t-185.5 -54.5q-26 0 -51 13.5t-55 44.5q-26 26 -39 37q-21 19 -39.5 33.5t-23.5 18.5q-31 28 -42.5 51.5t-11.5 50.5q0 18 3 40q4 38 4 69q0 140 -19.5 300t-40.5 230
q-12 41 -12 54q0 40 59.5 96t115.5 91q55 34 131 64.5t126 30.5q35 -2 78 -30q96 -65 150.5 -91.5t133.5 -54.5l28 -10q12 -5 17 -10t9.5 -18.5t9.5 -43.5q6 -36 6 -77q0 -80 -21 -119q-9 -16 -86 -101.5t-177 -188t-182 -176.5h29zM449 831q0 -55 -7 -199t-16 -212l-1 -3
l28 40q66 96 112.5 169.5t77.5 147.5q-54 12 -194 57zM487 1269q-73 0 -123 10l-251 195q2 36 46.5 90t103.5 93t102 36l145 -198q73 90 112.5 130.5t105.5 85.5q36 -16 74.5 -55.5t56.5 -76.5l-286 -304q-32 -6 -86 -6z" />
    <glyph glyph-name="Gcircumflex" unicode="&#x11c;" horiz-adv-x="1171" 
d="M1050 499l64 -476q-24 -17 -66.5 -30t-82.5 -13q-69 1 -127 17t-93 51q4 52 19 159l17 129l-24 11q-58 -133 -142.5 -250t-168.5 -117q-42 0 -87 32q-55 29 -126 83q-33 26 -48 48.5t-19 48.5q-12 241 -24 421q-19 294 -49 558q-3 30 -6 62.5t-4 52.5q12 46 57.5 99
t107.5 97.5t121 66.5q49 -7 163.5 -41.5t158.5 -57.5l343 31q13 -62 13 -122q0 -88 -24.5 -163.5t-58 -124.5t-59.5 -61q-78 16 -190 68t-181 114l-24 -22q5 -62 5 -138q0 -155 -14.5 -366t-30.5 -346l-1 -37l3 -1q28 -1 94 49.5t161 133.5l37 32q-35 103 -48 187t-13 131
q19 10 66.5 18.5t101.5 8.5q92 0 158.5 -29.5t118.5 -92.5zM348 1662q-36 32 -57 69q65 61 101 104.5t78 111.5q27 24 113 42t157 18q33 0 53 -4l208 -249q-17 -42 -57.5 -87.5t-85.5 -57.5q-52 19 -102 52.5t-122 89.5l-31 24q-62 -71 -98.5 -108t-72.5 -58q-48 21 -84 53z
" />
    <glyph glyph-name="gcircumflex" unicode="&#x11d;" horiz-adv-x="1143" 
d="M1108 1060l-4 -20q-11 -51 -22.5 -92t-38.5 -104t-76 -148l132 -758q-21 -81 -76 -155.5t-133 -131t-166 -86.5q-21 -3 -43 -3q-70 0 -149 27t-141.5 65t-85.5 68q-1 13 -1 35q0 36 5.5 62t20.5 75q75 -17 201.5 -32.5t194.5 -15.5q2 60 2 96q0 94 -8 296q-9 195 -8 290
l-13 9q-62 -178 -139.5 -325.5t-146.5 -206.5q-31 -24 -60 -24q-24 0 -48 12.5t-58 37.5q-17 12 -44 27q-44 25 -65.5 44t-21.5 45l2 61q4 74 4 112q0 135 -17 300.5t-49 274.5q-11 37 -11 55q0 12 6 24t20 31q56 71 130.5 114.5t136 61.5t98.5 23q70 -49 121 -118.5
t114 -177.5q-1 61 -6 179l-2 67q17 11 65 19.5t103 8.5q91 0 157.5 -29t119.5 -92l-1 -1h1zM566 501q67 114 104 193q2 24 2 27v53q-43 11 -128 28l-82 18v-107q0 -165 -42 -360l30 -14q49 48 116 162zM231 1299q-36 32 -57 69q52 53 90 107.5t89 136.5l21 35
q29 25 103 42.5t143 17.5q33 0 53 -4l231 -312q-17 -42 -57.5 -87.5t-85.5 -57.5q-75 41 -133.5 82.5t-131.5 106.5q-48 -68 -85.5 -107.5t-95.5 -81.5q-48 21 -84 53z" />
    <glyph glyph-name="Gbreve" unicode="&#x11e;" horiz-adv-x="1171" 
d="M1050 499l64 -476q-24 -17 -66.5 -30t-82.5 -13q-69 1 -127 17t-93 51q4 52 19 159l17 129l-24 11q-58 -133 -142.5 -250t-168.5 -117q-42 0 -87 32q-55 29 -126 83q-33 26 -48 48.5t-19 48.5q-12 241 -24 421q-19 294 -49 558q-3 30 -6 62.5t-4 52.5q12 46 57.5 99
t107.5 97.5t121 66.5q49 -7 163.5 -41.5t158.5 -57.5l343 31q13 -62 13 -122q0 -88 -24.5 -163.5t-58 -124.5t-59.5 -61q-78 16 -190 68t-181 114l-24 -22q5 -62 5 -138q0 -155 -14.5 -366t-30.5 -346l-1 -37l3 -1q28 -1 94 49.5t161 133.5l37 32q-35 103 -48 187t-13 131
q19 10 66.5 18.5t101.5 8.5q92 0 158.5 -29.5t118.5 -92.5zM792 1656.5q81 37.5 140.5 103t81.5 146.5l-110 94q-39 -47 -81 -73.5t-74.5 -36t-51.5 -9.5q-135 0 -200 138q-62 -10 -126.5 -55.5t-108.5 -116.5q16 -74 71 -125.5t133 -77t162 -25.5q83 0 164 37.5z" />
    <glyph glyph-name="gbreve" unicode="&#x11f;" horiz-adv-x="1143" 
d="M1108 1060l-4 -20q-11 -51 -22.5 -92t-38.5 -104t-76 -148l132 -758q-21 -81 -76 -155.5t-133 -131t-166 -86.5q-21 -3 -43 -3q-70 0 -149 27t-141.5 65t-85.5 68q-1 13 -1 35q0 36 5.5 62t20.5 75q75 -17 201.5 -32.5t194.5 -15.5q2 60 2 96q0 94 -8 296q-9 195 -8 290
l-13 9q-62 -178 -139.5 -325.5t-146.5 -206.5q-31 -24 -60 -24q-24 0 -48 12.5t-58 37.5q-17 12 -44 27q-44 25 -65.5 44t-21.5 45l2 61q4 74 4 112q0 135 -17 300.5t-49 274.5q-11 37 -11 55q0 12 6 24t20 31q56 71 130.5 114.5t136 61.5t98.5 23q70 -49 121 -118.5
t114 -177.5q-1 61 -6 179l-2 67q17 11 65 19.5t103 8.5q91 0 157.5 -29t119.5 -92l-1 -1h1zM566 501q67 114 104 193q2 24 2 27v53q-43 11 -128 28l-82 18v-107q0 -165 -42 -360l30 -14q49 48 116 162zM700.5 1323.5q80.5 43.5 140.5 115.5t81 153l-110 94
q-86 -87 -127.5 -115.5t-54.5 -28.5q-57 0 -119 35.5t-106 127.5q-62 -10 -126.5 -55.5t-108.5 -116.5q16 -75 72 -132.5t135 -89t161 -31.5t162.5 43.5z" />
    <glyph glyph-name="Gdotaccent" unicode="&#x120;" horiz-adv-x="1171" 
d="M1050 499l64 -476q-24 -17 -66.5 -30t-82.5 -13q-69 1 -127 17t-93 51q4 52 19 159l17 129l-24 11q-58 -133 -142.5 -250t-168.5 -117q-42 0 -87 32q-55 29 -126 83q-33 26 -48 48.5t-19 48.5q-12 241 -24 421q-19 294 -49 558q-3 30 -6 62.5t-4 52.5q12 46 57.5 99
t107.5 97.5t121 66.5q49 -7 163.5 -41.5t158.5 -57.5l343 31q13 -62 13 -122q0 -88 -24.5 -163.5t-58 -124.5t-59.5 -61q-78 16 -190 68t-181 114l-24 -22q5 -62 5 -138q0 -155 -14.5 -366t-30.5 -346l-1 -37l3 -1q28 -1 94 49.5t161 133.5l37 32q-35 103 -48 187t-13 131
q19 10 66.5 18.5t101.5 8.5q92 0 158.5 -29.5t118.5 -92.5zM461.5 1647.5q33.5 -32.5 80.5 -55.5t94 -26q67 29 134 90t95 127q-17 79 -71.5 127.5t-125 69t-140.5 20.5q-15 -50 -32 -95t-29.5 -76.5t-18.5 -45.5l-29 -72q9 -31 42.5 -63.5z" />
    <glyph glyph-name="gdotaccent" unicode="&#x121;" horiz-adv-x="1143" 
d="M1108 1060l-4 -20q-11 -51 -22.5 -92t-38.5 -104t-76 -148l132 -758q-21 -81 -76 -155.5t-133 -131t-166 -86.5q-21 -3 -43 -3q-70 0 -149 27t-141.5 65t-85.5 68q-1 13 -1 35q0 36 5.5 62t20.5 75q75 -17 201.5 -32.5t194.5 -15.5q2 60 2 96q0 94 -8 296q-9 195 -8 290
l-13 9q-62 -178 -139.5 -325.5t-146.5 -206.5q-31 -24 -60 -24q-24 0 -48 12.5t-58 37.5q-17 12 -44 27q-44 25 -65.5 44t-21.5 45l2 61q4 74 4 112q0 135 -17 300.5t-49 274.5q-11 37 -11 55q0 12 6 24t20 31q56 71 130.5 114.5t136 61.5t98.5 23q70 -49 121 -118.5
t114 -177.5q-1 61 -6 179l-2 67q17 11 65 19.5t103 8.5q91 0 157.5 -29t119.5 -92l-1 -1h1zM566 501q67 114 104 193q2 24 2 27v53q-43 11 -128 28l-82 18v-107q0 -165 -42 -360l30 -14q49 48 116 162zM369.5 1328.5q33.5 -32.5 80.5 -55.5t94 -26q67 29 134 90t95 127
q-17 79 -71.5 127.5t-125 69t-140.5 20.5q-15 -50 -32 -95t-29.5 -76.5t-18.5 -45.5l-29 -72q9 -31 42.5 -63.5z" />
    <glyph glyph-name="Gcommaaccent" unicode="&#x122;" horiz-adv-x="1171" 
d="M1050 499l64 -476q-24 -17 -66.5 -30t-82.5 -13q-69 1 -127 17t-93 51q4 52 19 159l17 129l-24 11q-58 -133 -142.5 -250t-168.5 -117q-42 0 -87 32q-55 29 -126 83q-33 26 -48 48.5t-19 48.5q-12 241 -24 421q-19 294 -49 558q-3 30 -6 62.5t-4 52.5q12 46 57.5 99
t107.5 97.5t121 66.5q49 -7 163.5 -41.5t158.5 -57.5l343 31q13 -62 13 -122q0 -88 -24.5 -163.5t-58 -124.5t-59.5 -61q-78 16 -190 68t-181 114l-24 -22q5 -62 5 -138q0 -155 -14.5 -366t-30.5 -346l-1 -37l3 -1q28 -1 94 49.5t161 133.5l37 32q-35 103 -48 187t-13 131
q19 10 66.5 18.5t101.5 8.5q92 0 158.5 -29.5t118.5 -92.5zM619 -537q70 61 172.5 177.5t137.5 181.5q-28 47 -115 69t-188 22q-50 0 -81 -4l-68 -389z" />
    <glyph glyph-name="gcommaaccent" unicode="&#x123;" horiz-adv-x="1143" 
d="M686 1760q-70 -61 -172.5 -177.5t-137.5 -181.5q28 -47 115 -69t188 -22q50 0 81 4l68 389zM1108 1060l-4 -20q-11 -51 -22.5 -92t-38.5 -104t-76 -148l132 -758q-21 -81 -76 -155.5t-133 -131t-166 -86.5q-21 -3 -43 -3q-70 0 -149 27t-141.5 65t-85.5 68q-1 13 -1 35
q0 36 5.5 62t20.5 75q75 -17 201.5 -32.5t194.5 -15.5q2 60 2 96q0 94 -8 296q-9 195 -8 290l-13 9q-62 -178 -139.5 -325.5t-146.5 -206.5q-31 -24 -60 -24q-24 0 -48 12.5t-58 37.5q-17 12 -44 27q-44 25 -65.5 44t-21.5 45l2 61q4 74 4 112q0 135 -17 300.5t-49 274.5
q-11 37 -11 55q0 12 6 24t20 31q56 71 130.5 114.5t136 61.5t98.5 23q70 -49 121 -118.5t114 -177.5q-1 61 -6 179l-2 67q17 11 65 19.5t103 8.5q91 0 157.5 -29t119.5 -92l-1 -1h1zM566 501q67 114 104 193q2 24 2 27v53q-43 11 -128 28l-82 18v-107q0 -165 -42 -360
l30 -14q49 48 116 162z" />
    <glyph glyph-name="Hcircumflex" unicode="&#x124;" horiz-adv-x="1335" 
d="M1309 177q-18 -43 -56.5 -89t-93.5 -77t-116 -31q-70 0 -124.5 30t-85.5 86t-32 132q-1 67 6 131.5t23 166.5l9 55q-259 16 -348 28v-2q24 -114 41 -271.5t26 -316.5q-32 -21 -72.5 -30t-94.5 -9q-87 0 -152 21.5t-106 60.5q8 153 34.5 321.5t62.5 272.5
q-37 111 -64.5 253.5t-60.5 347.5l-23 142q19 30 67 60t114.5 50t136.5 20q100 0 166 -40l-59 -689q70 11 168 24t163 20q-35 144 -64 292.5t-44 263.5q20 30 68 60t113.5 50t135.5 20q104 0 169 -40l-78 -1174l136 3zM384 1662q-36 32 -57 69q65 61 101 104.5t78 111.5
q27 24 113 42t157 18q33 0 53 -4l208 -249q-17 -42 -57.5 -87.5t-85.5 -57.5q-52 19 -102 52.5t-122 89.5l-31 24q-62 -71 -98.5 -108t-72.5 -58q-48 21 -84 53z" />
    <glyph glyph-name="hcircumflex" unicode="&#x125;" horiz-adv-x="1199" 
d="M-56 1662q-36 32 -57 69q65 61 101 104.5t78 111.5q27 24 113 42t157 18q33 0 53 -4l208 -249q-17 -42 -57.5 -87.5t-85.5 -57.5q-52 19 -102 52.5t-122 89.5l-31 24q-62 -71 -98.5 -108t-72.5 -58q-48 21 -84 53zM704 100.5q-17 16.5 -26 43t-7 62.5l26 566l-27 9
q-64 -139 -108 -231t-95 -190q34 -100 54 -173.5t30 -162.5q-60 -44 -172 -44q-79 0 -154.5 22.5t-111.5 63.5q19 115 33.5 176.5t36.5 125.5l1 2q-26 53 -66.5 271t-73.5 449.5t-33 282.5l1 8q47 61 135.5 104.5t176.5 43.5q95 0 158 -48q-3 -150 -14.5 -284t-34.5 -350
q-17 -144 -34 -329l13 -3l4 -1q21 66 63 220q44 158 72 248t67 183q71 17 130 17q67 0 164 -35t189 -109q0 -85 -21.5 -214.5t-59 -267t-81.5 -245.5l169 89l91 -121q-18 -70 -61.5 -139.5t-100.5 -114t-113 -45.5q-47 0 -101.5 27.5t-97.5 72.5q-4 4 -21 20.5z" />
    <glyph glyph-name="Hbar" unicode="&#x126;" horiz-adv-x="1348" 
d="M1184 1004l-46 -688l136 3l35 -142q-18 -43 -56.5 -89t-93.5 -77t-116 -31q-70 0 -124.5 30t-85.5 86t-32 132q-1 67 6 131.5t23 166.5l9 55q-259 16 -348 28v-2q24 -114 41 -271.5t26 -316.5q-32 -21 -72.5 -30t-94.5 -9q-87 0 -152 21.5t-106 60.5q8 153 34.5 321.5
t62.5 272.5q-42 125 -80 334l-119 3q-13 37 -18.5 56t-5.5 39q0 26 10 60l103 18q-3 19 -7 43t-8 53l-23 137q19 30 67 60t114.5 50t136.5 20q100 0 166 -40l-23 -271l213 17q-17 98 -26 165q20 30 68 60t113.5 50t135.5 20q104 0 169 -40l-15 -220l127 10q27 -43 27 -102
q0 -79 -46 -169q-29 -2 -125 -5zM804 995q-88 -2 -280 -4l-17 -191q70 11 168 24t163 20q-12 49 -34 151z" />
    <glyph glyph-name="hbar" unicode="&#x127;" horiz-adv-x="1198" 
d="M1198 279q-18 -71 -62 -140.5t-101.5 -114t-113.5 -44.5q-46 0 -100 28t-97 72q-19 21 -29 34.5t-17.5 39.5t-7.5 67q1 110 10 240q8 120 10 170l-27 9q-112 -136 -197 -280q34 -100 54 -173.5t30 -162.5q-60 -44 -171 -44q-79 0 -155 22.5t-112 63.5q19 115 33.5 176.5
t36.5 125.5l1 2q-25 49 -58 262t-62 469q-93 2 -137 4q-24 66 -24 111q0 33 10 67l129 24q-14 143 -11 159q49 64 130 106t169 42q42 0 75.5 -11.5t66.5 -36.5l-14 -200l402 48q24 -38 24 -99q0 -49 -15 -104.5t-38 -100.5q-30 -2 -143.5 -5.5t-247.5 -4.5l-41 -582l13 -3h1
l3 -1q47 152 88 256.5t108 253.5q21 6 57.5 11.5t75.5 5.5q67 0 163.5 -35.5t186.5 -108.5q-17 -132 -55 -282t-101 -304l169 89z" />
    <glyph glyph-name="Itilde" unicode="&#x128;" horiz-adv-x="666" 
d="M149 1459q48 30 114.5 50t136.5 20q100 0 166 -40l-78 -906q25 -119 43.5 -269t26.5 -295q-32 -21 -72.5 -30t-94.5 -9q-87 0 -152 21.5t-106 60.5q8 153 34.5 321.5t62.5 272.5q-37 111 -64.5 253.5t-60.5 347.5l-23 142q19 30 67 60zM311 1651.5q93 -46.5 146 -46.5
q66 0 128.5 51.5t106.5 124.5t57 132l-107 87l-134 -120q-21 9 -51.5 27t-37.5 22q-73 44 -122.5 67.5t-88.5 23.5q-66 0 -131 -53t-111 -128t-59 -133l110 -80l140 119q61 -47 154 -93.5z" />
    <glyph glyph-name="itilde" unicode="&#x129;" horiz-adv-x="615" 
d="M67 246q4 15 27 77q37 99 63 174l-131 521q31 37 83 70.5t114.5 54t122.5 20.5q99 0 165 -58q-5 -30 -13 -107q-20 -188 -41 -343.5t-47 -262.5l-19 -78l150 67l79 -125q-44 -102 -116 -189t-159 -87q-47 0 -115 36.5t-117.5 90.5t-49.5 105q0 19 4 34zM251 1302.5
q93 -46.5 146 -46.5q66 0 128.5 51.5t106.5 124.5t57 132l-99 92l-142 -125q-21 9 -51.5 27t-37.5 22q-73 44 -122.5 67.5t-88.5 23.5q-66 0 -131 -53t-111 -128t-59 -133l99 -92l151 131q61 -47 154 -93.5z" />
    <glyph glyph-name="Imacron" unicode="&#x12a;" horiz-adv-x="666" 
d="M149 1459q48 30 114.5 50t136.5 20q100 0 166 -40l-78 -906q25 -119 43.5 -269t26.5 -295q-32 -21 -72.5 -30t-94.5 -9q-87 0 -152 21.5t-106 60.5q8 153 34.5 321.5t62.5 272.5q-37 111 -64.5 253.5t-60.5 347.5l-23 142q19 30 67 60zM689 1928q8 -31 8 -75
q0 -49 -12 -99.5t-36 -96.5q-93 -7 -293 -7q-178 0 -364 7q-3 26 -3 52q0 58 13 111.5t36 93.5z" />
    <glyph glyph-name="imacron" unicode="&#x12b;" horiz-adv-x="655" 
d="M602 1608q8 -31 8 -75q0 -49 -12 -99.5t-36 -96.5q-93 -7 -240 -7q-144 0 -330 7q-3 26 -3 52q0 58 13 111.5t36 93.5zM87 246q4 15 27 77q37 99 63 174l-131 521q31 37 83 70.5t114.5 54t122.5 20.5q99 0 165 -58q-5 -30 -13 -107q-20 -188 -41 -343.5t-47 -262.5
l-19 -78l150 67l79 -125q-44 -102 -116 -189t-159 -87q-47 0 -115 36.5t-117.5 90.5t-49.5 105q0 19 4 34z" />
    <glyph glyph-name="Ibreve" unicode="&#x12c;" horiz-adv-x="666" 
d="M149 1459q48 30 114.5 50t136.5 20q100 0 166 -40l-78 -906q25 -119 43.5 -269t26.5 -295q-32 -21 -72.5 -30t-94.5 -9q-87 0 -152 21.5t-106 60.5q8 153 34.5 321.5t62.5 272.5q-37 111 -64.5 253.5t-60.5 347.5l-23 142q19 30 67 60zM486 1656.5q81 37.5 140.5 103
t81.5 146.5l-110 94q-39 -47 -81 -73.5t-74.5 -36t-51.5 -9.5q-135 0 -200 138q-62 -10 -126.5 -55.5t-108.5 -116.5q16 -74 71 -125.5t133 -77t162 -25.5q83 0 164 37.5z" />
    <glyph glyph-name="ibreve" unicode="&#x12d;" horiz-adv-x="615" 
d="M67 246q4 15 27 77q37 99 63 174l-131 521q31 37 83 70.5t114.5 54t122.5 20.5q99 0 165 -58q-5 -30 -13 -107q-20 -188 -41 -343.5t-47 -262.5l-19 -78l150 67l79 -125q-44 -102 -116 -189t-159 -87q-47 0 -115 36.5t-117.5 90.5t-49.5 105q0 19 4 34zM426.5 1323.5
q80.5 43.5 140.5 115.5t81 153l-110 94q-86 -87 -127.5 -115.5t-54.5 -28.5q-57 0 -119 35.5t-106 127.5q-62 -10 -126.5 -55.5t-108.5 -116.5q16 -75 72 -132.5t135 -89t161 -31.5t162.5 43.5z" />
    <glyph glyph-name="Iogonek" unicode="&#x12e;" horiz-adv-x="666" 
d="M585 -243q-51 -100 -113.5 -147.5t-148.5 -47.5q-48 0 -106.5 33.5t-99.5 83.5t-41 96q0 96 197 217q-89 21 -140 70q8 153 34.5 321.5t62.5 272.5q-37 111 -64.5 253.5t-60.5 347.5l-23 142q19 30 67 60t114.5 50t136.5 20q100 0 166 -40l-78 -906q25 -119 43.5 -269
t26.5 -295l-2 -1q-15 -10 -21 -13q-76 -49 -130 -91t-77 -84l14 -13l196 67z" />
    <glyph glyph-name="iogonek" unicode="&#x12f;" horiz-adv-x="615" 
d="M190 1247.5q-64 39.5 -100 82.5q75 169 138 351q121 0 219.5 -50.5t125.5 -166.5q-21 -45 -75 -103.5t-113 -103t-94 -50.5q-37 1 -101 40.5zM564 -116l47 -127q-51 -100 -113.5 -147.5t-148.5 -47.5q-48 0 -106.5 33.5t-99.5 83.5t-41 96q0 103 164 224q-48 20 -95 55
t-77.5 77t-30.5 81q0 19 4 34t27 77q37 99 63 174l-131 521q31 37 83 70.5t114.5 54t122.5 20.5q99 0 165 -58q-5 -30 -13 -107q-20 -188 -41 -343.5t-47 -262.5l-19 -78l150 67l79 -125q-33 -78 -79 -142l-183 -276l-4 -8l14 -13z" />
    <glyph glyph-name="Idotaccent" unicode="&#x130;" horiz-adv-x="666" 
d="M149 1459q48 30 114.5 50t136.5 20q100 0 166 -40l-78 -906q25 -119 43.5 -269t26.5 -295q-32 -21 -72.5 -30t-94.5 -9q-87 0 -152 21.5t-106 60.5q8 153 34.5 321.5t62.5 272.5q-37 111 -64.5 253.5t-60.5 347.5l-23 142q19 30 67 60zM155.5 1647.5
q33.5 -32.5 80.5 -55.5t94 -26q67 29 134 90t95 127q-17 79 -71.5 127.5t-125 69t-140.5 20.5q-15 -50 -32 -95t-29.5 -76.5t-18.5 -45.5l-29 -72q9 -31 42.5 -63.5z" />
    <glyph glyph-name="dotlessi" unicode="&#x131;" horiz-adv-x="615" 
d="M67 246q4 15 27 77q37 99 63 174l-131 521q31 37 83 70.5t114.5 54t122.5 20.5q99 0 165 -58q-5 -30 -13 -107q-20 -188 -41 -343.5t-47 -262.5l-19 -78l150 67l79 -125q-44 -102 -116 -189t-159 -87q-47 0 -115 36.5t-117.5 90.5t-49.5 105q0 19 4 34z" />
    <glyph glyph-name="IJ" unicode="&#x132;" horiz-adv-x="1665" 
d="M149 1459q48 30 114.5 50t136.5 20q100 0 166 -40l-78 -906q25 -119 43.5 -269t26.5 -295q-32 -21 -72.5 -30t-94.5 -9q-87 0 -152 21.5t-106 60.5q8 153 34.5 321.5t62.5 272.5q-37 111 -64.5 253.5t-60.5 347.5l-23 142q19 30 67 60zM1443 1153l-62 -335l161 -602
q-33 -127 -124.5 -228t-220.5 -145q-21 -3 -43 -3q-73 0 -156.5 18t-148.5 46t-87 56q-2 26 -2 37q0 32 13 90t35 111.5t48 77.5q45 -27 130 -84q76 -50 121.5 -78t64.5 -35l-65 647l3 434l-132 16v-216l-166 -36q-31 32 -63.5 92.5t-54 132t-21.5 135.5q0 77 29.5 132.5
t79.5 84t111 28.5q53 0 130 -20.5t151 -52t120 -61.5q38 57 95.5 104t124.5 50q55 -41 90 -125t35 -171q0 -59 -16 -103q-14 -8 -37.5 -12.5t-48.5 -4.5q-62 0 -89 20h-5z" />
    <glyph glyph-name="ij" unicode="&#x133;" horiz-adv-x="1179" 
d="M190 1247.5q64 -39.5 101 -40.5q35 6 94 50.5t113 103t75 103.5q-27 116 -125.5 166.5t-219.5 50.5q-63 -182 -138 -351q36 -43 100 -82.5zM67 246q4 15 27 77q37 99 63 174l-131 521q31 37 83 70.5t114.5 54t122.5 20.5q99 0 165 -58q-5 -30 -13 -107
q-20 -188 -41 -343.5t-47 -262.5l-19 -78l150 67l79 -125q-44 -102 -116 -189t-159 -87q-47 0 -115 36.5t-117.5 90.5t-49.5 105q0 19 4 34zM776 1238.5q64 -39.5 101 -40.5q36 6 95 48t112.5 98.5t74.5 100.5q-27 116 -125.5 166.5t-219.5 50.5q-47 -137 -138 -341
q36 -43 100 -82.5zM1021 373q83 -363 83 -565q0 -43 -2 -62q-4 -29 -46 -73.5t-101.5 -77.5t-116.5 -33q-56 10 -112 38t-99 61t-62 58q-3 37 -3 62q0 28 4 51t13 55q20 -1 59.5 -7t58.5 -8l38 -6l33 699l-127 453q31 37 83 70.5t114.5 54t122.5 20.5q99 0 165 -58l-4 -39
q-49 -449 -93 -638l-8 -35l-4 -22z" />
    <glyph glyph-name="Jcircumflex" unicode="&#x134;" horiz-adv-x="999" 
d="M777 1153l-62 -335l161 -602q-33 -127 -124.5 -228t-220.5 -145q-21 -3 -43 -3q-73 0 -156.5 18t-148.5 46t-87 56q-2 26 -2 37q0 32 13 90t35 111.5t48 77.5q45 -27 130 -84q76 -50 121.5 -78t64.5 -35l-65 647l3 434l-132 16v-216l-166 -36q-31 32 -63.5 92.5t-54 132
t-21.5 135.5q0 77 29.5 132.5t79.5 84t111 28.5q53 0 130 -20.5t151 -52t120 -61.5q38 57 95.5 104t124.5 50q55 -41 90 -125t35 -171q0 -59 -16 -103q-14 -8 -37.5 -12.5t-48.5 -4.5q-62 0 -89 20h-5zM205 1662q-36 32 -57 69q65 61 101 104.5t78 111.5q27 24 113 42
t157 18q33 0 53 -4l208 -249q-17 -42 -57.5 -87.5t-85.5 -57.5q-52 19 -102 52.5t-122 89.5l-31 24q-62 -71 -98.5 -108t-72.5 -58q-48 21 -84 53z" />
    <glyph glyph-name="jcircumflex" unicode="&#x135;" horiz-adv-x="564" 
d="M406 373q83 -363 83 -565q0 -43 -2 -62q-4 -29 -46 -73.5t-101.5 -77.5t-116.5 -33q-56 10 -112 38t-99 61t-62 58q-1 13 -1 35q0 36 5.5 62t20.5 75q58 -13 145 -25l33 699l-127 453q31 37 83 70.5t114.5 54t122.5 20.5q99 0 165 -58l-4 -39q-49 -449 -93 -638l-8 -35
l-4 -22zM-40 1299q-36 32 -57 69q52 53 90 107.5t89 136.5l21 35q29 25 103 42.5t143 17.5q33 0 53 -4l231 -312q-17 -42 -57.5 -87.5t-85.5 -57.5q-75 41 -133.5 82.5t-131.5 106.5q-48 -68 -85.5 -107.5t-95.5 -81.5q-48 21 -84 53z" />
    <glyph glyph-name="Kcommaaccent" unicode="&#x136;" horiz-adv-x="1324" 
d="M1324 350q0 -73 -28 -149.5t-66 -131.5q-30 -44 -76 -66t-103 -22t-122 21q-56 17 -95 69t-69 130q-39 105 -62 261q-116 9 -194 17q47 -261 59 -460q-60 -39 -177 -39q-88 0 -157.5 22t-110.5 60q7 144 38 314t69 280q-37 111 -64.5 253.5t-60.5 347.5l-23 142
q19 30 67 60t114.5 50t136.5 20q100 0 166 -40l-72 -834l106 12q63 119 128.5 274.5t84.5 241.5l-141 50q12 111 56.5 197.5t113.5 118.5q49 0 121 -18t144.5 -58t120.5 -101q-16 -137 -117.5 -329.5t-232.5 -377.5q115 -222 193 -299q57 20 135 86zM642 -517
q70 61 172.5 177.5t137.5 181.5q-28 47 -115 69t-188 22q-50 0 -81 -4l-68 -389z" />
    <glyph glyph-name="kcommaaccent" unicode="&#x137;" horiz-adv-x="1112" 
d="M647 760q-98 80 -151 205q30 63 92 117t135.5 87t137.5 35q45 -43 84.5 -111t62.5 -144t23 -142q-36 -62 -104 -158t-149 -189q14 -20 44.5 -54.5t56.5 -60.5q59 30 118 93l118 -91q0 -81 -8.5 -129.5t-32.5 -100.5q-31 -69 -84 -103t-120 -34q-48 0 -104 17
q-65 20 -109.5 88.5t-71.5 164.5l-20 -22q-90 -96 -146.5 -150.5t-120.5 -97.5q-23 3 -65 22t-83 47t-62 56q4 143 27.5 291t58.5 266q-61 197 -97.5 369.5t-78.5 434.5q50 62 144 104.5t186 42.5q94 0 152 -47q2 -39 2 -126q0 -250 -28 -586.5t-63 -588.5l11 -5
q121 202 245 500zM480 -537q70 61 172.5 177.5t137.5 181.5q-28 47 -115 69t-188 22q-50 0 -81 -4l-68 -389z" />
    <glyph glyph-name="kgreenlandic" unicode="&#x138;" horiz-adv-x="1089" 
d="M102 597q-30 147 -53 294t-23 188q0 8 1 10q24 38 74.5 66t112 42.5t117.5 14.5q48 0 86 -10.5t60 -31.5q-18 -222 -50.5 -468t-65.5 -437l11 -5q67 106 130 228.5t132 271.5l-19 20q-48 48 -76.5 86.5t-48.5 98.5q33 63 96.5 117t138.5 87t139 35q43 -43 80 -111
t58 -144t18 -142q-37 -61 -108.5 -157.5t-156.5 -189.5q13 -20 42.5 -54.5t54.5 -60.5q62 31 121 93l115 -91q-3 -81 -13 -129.5t-36 -100.5q-34 -69 -88 -103t-121 -34q-49 0 -103 17q-117 36 -173 253l-14 -15q-90 -94 -152.5 -152.5t-129.5 -102.5q-23 3 -64 22t-81 47
t-61 56q10 69 36.5 138.5t64.5 152.5q-21 54 -51 201z" />
    <glyph glyph-name="Lacute" unicode="&#x139;" horiz-adv-x="1142" 
d="M1101.5 517.5q9.5 -71.5 9.5 -148.5q0 -168 -55.5 -278.5t-193.5 -110.5q-144 0 -358 170q-94 -161 -246 -170q-41 20 -87 75t-79 122t-37 122l89 124q38 14 97 14h33q-32 185 -49.5 338t-33.5 339q-7 81 -14.5 157t-16.5 128q19 30 67 60t114.5 50t136.5 20
q48 0 87 -9.5t74 -30.5l-105 -1080l13 -1l253 -48l95 289l184 -24q13 -36 22.5 -107.5zM246 1629q32 -5 65 -5q97 0 221 32t218 82q-8 80 -55.5 157.5t-124.5 124.5q-111 -78 -190.5 -126.5t-197.5 -107.5q15 -103 64 -157z" />
    <glyph glyph-name="lacute" unicode="&#x13a;" horiz-adv-x="626" 
d="M102 1629q32 -5 65 -5q97 0 221 32t218 82q-8 80 -55.5 157.5t-124.5 124.5q-111 -78 -190.5 -126.5t-197.5 -107.5q15 -103 64 -157zM83.5 171.5q-7.5 17.5 -7.5 42.5q0 9 4 35l69 357q-28 146 -55 331.5t-43.5 329t-13.5 158.5q49 62 139.5 104.5t179.5 42.5
q92 0 149 -47q-8 -224 -28 -472t-68 -739l143 67l80 -127q-20 -62 -63 -125.5t-100 -106t-116 -42.5q-62 0 -128 47t-120 111q-14 16 -21.5 33.5z" />
    <glyph glyph-name="Lcommaaccent" unicode="&#x13b;" horiz-adv-x="1142" 
d="M1101.5 517.5q9.5 -71.5 9.5 -148.5q0 -168 -55.5 -278.5t-193.5 -110.5q-144 0 -358 170q-94 -161 -246 -170q-41 20 -87 75t-79 122t-37 122l89 124q38 14 97 14h33q-32 185 -49.5 338t-33.5 339q-7 81 -14.5 157t-16.5 128q19 30 67 60t114.5 50t136.5 20
q48 0 87 -9.5t74 -30.5l-105 -1080l13 -1l253 -48l95 289l184 -24q13 -36 22.5 -107.5zM517 -537q70 61 172.5 177.5t137.5 181.5q-28 47 -115 69t-188 22q-50 0 -81 -4l-68 -389z" />
    <glyph glyph-name="lcommaaccent" unicode="&#x13c;" horiz-adv-x="626" 
d="M83.5 171.5q-7.5 17.5 -7.5 42.5q0 9 4 35l69 357q-28 145 -54.5 339.5t-43.5 350t-14 170.5q49 62 139.5 104.5t179.5 42.5q92 0 149 -47q-8 -234 -29.5 -513t-66.5 -739l143 67l80 -127q-20 -62 -63 -125.5t-100 -106t-116 -42.5q-62 0 -128 47t-120 111
q-14 16 -21.5 33.5zM232 -537q70 61 172.5 177.5t137.5 181.5q-28 47 -115 69t-188 22q-50 0 -81 -4l-68 -389z" />
    <glyph glyph-name="Lcaron" unicode="&#x13d;" horiz-adv-x="1142" 
d="M1101.5 517.5q9.5 -71.5 9.5 -148.5q0 -168 -55.5 -278.5t-193.5 -110.5q-144 0 -358 170q-94 -161 -246 -170q-41 20 -87 75t-79 122t-37 122l89 124q38 14 97 14h33q-32 185 -49.5 338t-33.5 339q-7 81 -14.5 157t-16.5 128q19 30 67 60t114.5 50t136.5 20
q48 0 87 -9.5t74 -30.5l-105 -1080l13 -1l253 -48l95 289l184 -24q13 -36 22.5 -107.5zM459.5 1613q-54.5 -4 -101.5 -4q-46 0 -73 5l-225 190q2 36 40 85t90.5 82.5t95.5 30.5l168 -198q53 78 95.5 123t109.5 93q38 -17 81 -57t60 -75l-259 -266q-27 -5 -81.5 -9z" />
    <glyph glyph-name="lcaron" unicode="&#x13e;" horiz-adv-x="877" 
d="M712.5 1613.5q-29.5 -9.5 -70.5 -31.5q-23 -13 -30 -16l-19 -514l154 -28q55 95 92 195.5t79 239.5l18 61q0 27 -20 50.5t-53.5 38t-71.5 14.5q-49 0 -78.5 -9.5zM83.5 171.5q-7.5 17.5 -7.5 42.5q0 18 4 35l69 357q-27 139 -52.5 324.5t-42.5 340t-17 189.5v6
q49 62 137.5 104.5t175.5 42.5q96 0 155 -47q-8 -234 -29.5 -513t-66.5 -739l216 124l87 -124q-19 -59 -82.5 -139t-140.5 -137.5t-136 -57.5q-62 0 -128 47t-120 111q-14 16 -21.5 33.5z" />
    <glyph glyph-name="Ldot" unicode="&#x13f;" horiz-adv-x="1142" 
d="M565 1519.5q-39 9.5 -87 9.5q-66 0 -128.5 -18t-111.5 -46q30 74 45.5 116.5t33.5 99.5q70 0 140.5 -20.5t125 -69t71.5 -127.5q-8 -19 -21 -40l6 65q-35 21 -74 30.5zM1101.5 517.5q9.5 -71.5 9.5 -148.5q0 -168 -55.5 -278.5t-193.5 -110.5q-144 0 -358 170
q-94 -161 -246 -170q-41 20 -87 75t-79 122t-37 122l89 124q38 14 97 14h33q-32 185 -49.5 338t-33.5 339q-7 81 -14.5 157t-16.5 128q23 35 78 66l-30 -73q9 -31 42.5 -63.5t80.5 -55.5t94 -26q56 24 114.5 72.5t93.5 104.5l-99 -1015l13 -1l253 -48l95 289l184 -24
q13 -36 22.5 -107.5z" />
    <glyph glyph-name="ldot" unicode="&#x140;" horiz-adv-x="940" 
d="M83.5 171.5q-7.5 17.5 -7.5 42.5q0 18 4 35l69 357q-27 139 -52.5 324.5t-42.5 340t-17 189.5v6q49 62 137.5 104.5t175.5 42.5q96 0 155 -47q-8 -234 -29.5 -513t-66.5 -739l216 124l87 -124q-19 -59 -82.5 -139t-140.5 -137.5t-136 -57.5q-62 0 -128 47t-120 111
q-14 16 -21.5 33.5zM570.5 657.5q33.5 -32.5 80.5 -55.5t94 -26q67 29 134 90t95 127q-17 79 -71.5 127.5t-125 69t-140.5 20.5q-15 -50 -32 -95t-29.5 -76.5t-18.5 -45.5l-29 -72q9 -31 42.5 -63.5z" />
    <glyph glyph-name="Lslash" unicode="&#x141;" horiz-adv-x="1142" 
d="M1101.5 517.5q9.5 -71.5 9.5 -148.5q0 -168 -55.5 -278.5t-193.5 -110.5q-144 0 -358 170q-94 -161 -246 -170q-41 20 -87 75t-79 122t-37 122l89 124q38 14 97 14h33q-12 65 -25 154l-114 -49q-30 17 -49.5 67.5t-24.5 103.5l161 81q-17 143 -30 316q-7 83 -15 159.5
t-17 129.5q19 30 67 60t114.5 50t136.5 20q48 0 87 -9.5t74 -30.5l-49 -509l261 132q24 -14 35.5 -57t11.5 -100q0 -50 -7 -89l-326 -140l-31 -317l13 -1l253 -48l95 289l184 -24q13 -36 22.5 -107.5z" />
    <glyph glyph-name="lslash" unicode="&#x142;" horiz-adv-x="741" 
d="M475 796q-23 -270 -44 -482l199 104l80 -127q-20 -60 -75 -134t-124 -125.5t-128 -51.5q-62 0 -128 47t-120 111q-14 16 -21.5 33.5t-7.5 42.5q0 9 4 35l73 371l-96 -58q-34 19 -65.5 67.5t-35.5 93.5l173 117q-37 213 -66 410.5t-26 215.5q49 62 139.5 104.5t179.5 42.5
q41 0 72.5 -11t61.5 -36q-7 -215 -25 -498l167 113q29 -18 46.5 -70t17.5 -113q0 -30 -4 -53z" />
    <glyph glyph-name="Nacute" unicode="&#x143;" horiz-adv-x="1371" 
d="M1034 395q-152 882 -152 1035q12 26 50 49t90 36.5t104 13.5q43 0 91 -11.5t77 -31.5l-86 -1138q46 -56 71 -103t37 -114q-32 -77 -102.5 -114.5t-164.5 -37.5q-75 0 -156.5 18.5t-122.5 51.5q-3 17 -3 44q0 40 6.5 82.5t19.5 69.5l-437 925l-5 -2q20 -66 65 -243.5
t86.5 -368.5t53.5 -308q2 -30 2 -45q0 -101 -51.5 -162t-160.5 -61q-90 0 -167 44t-112 118l31 163l111 -9l-8 879q-47 3 -92.5 15.5t-80.5 35.5q0 108 33.5 191t125.5 132q98 -12 227 -53t228 -111l388 -994zM544 1629q32 -5 65 -5q97 0 221 32t218 82q-8 80 -55.5 157.5
t-124.5 124.5q-111 -78 -190.5 -126.5t-197.5 -107.5q15 -103 64 -157z" />
    <glyph glyph-name="nacute" unicode="&#x144;" horiz-adv-x="1192" 
d="M461 360q51 -151 84 -336q-62 -44 -187 -44q-69 0 -142 23t-109 63q20 115 34.5 176.5t35.5 125.5q-23 54 -59 204t-64 298t-28 184l1 7q33 56 121.5 87.5t178.5 31.5q104 0 145 -37l-73 -626l16 -3q16 53 34.5 121t26.5 99q37 142 66 239.5t69 191.5q47 15 133 15
q105 0 196 -33.5t155 -108.5q0 -85 -21.5 -214.5t-59 -267t-81.5 -245.5l170 89l89 -121q-23 -68 -67 -137.5t-99 -115.5t-109 -46q-46 0 -99.5 26t-90.5 66q-36 38 -49.5 70t-11.5 79l25 551l-29 9q-117 -258 -201 -421zM483.5 1311.5q28.5 -43.5 53.5 -64.5
q101 20 229.5 80.5t194.5 118.5q0 56 -29.5 114.5t-78.5 105t-107 66.5l-53 -63q-82 -97 -133.5 -152.5t-121.5 -114.5q17 -47 45.5 -90.5z" />
    <glyph glyph-name="Ncommaaccent" unicode="&#x145;" horiz-adv-x="1371" 
d="M1034 395q-152 882 -152 1035q12 26 50 49t90 36.5t104 13.5q43 0 91 -11.5t77 -31.5l-86 -1138q46 -56 71 -103t37 -114q-32 -77 -102.5 -114.5t-164.5 -37.5q-75 0 -156.5 18.5t-122.5 51.5q-3 17 -3 44q0 40 6.5 82.5t19.5 69.5l-437 925l-5 -2q20 -66 65 -243.5
t86.5 -368.5t53.5 -308q2 -30 2 -45q0 -101 -51.5 -162t-160.5 -61q-90 0 -167 44t-112 118l31 163l111 -9l-8 879q-47 3 -92.5 15.5t-80.5 35.5q0 108 33.5 191t125.5 132q98 -12 227 -53t228 -111l388 -994zM601 -537q70 61 172.5 177.5t137.5 181.5q-28 47 -115 69
t-188 22q-50 0 -81 -4l-68 -389z" />
    <glyph glyph-name="ncommaaccent" unicode="&#x146;" horiz-adv-x="1192" 
d="M461 360q51 -151 84 -336q-62 -44 -187 -44q-69 0 -142 23t-109 63q20 115 34.5 176.5t35.5 125.5q-23 54 -59 204t-64 298t-28 184l1 7q33 56 121.5 87.5t178.5 31.5q104 0 145 -37l-73 -626l16 -3q16 53 34.5 121t26.5 99q37 142 66 239.5t69 191.5q47 15 133 15
q105 0 196 -33.5t155 -108.5q0 -85 -21.5 -214.5t-59 -267t-81.5 -245.5l170 89l89 -121q-23 -68 -67 -137.5t-99 -115.5t-109 -46q-46 0 -99.5 26t-90.5 66q-36 38 -49.5 70t-11.5 79l25 551l-29 9q-117 -258 -201 -421zM528 -537q70 61 172.5 177.5t137.5 181.5
q-28 47 -115 69t-188 22q-50 0 -81 -4l-68 -389z" />
    <glyph glyph-name="Ncaron" unicode="&#x147;" horiz-adv-x="1371" 
d="M1034 395q-152 882 -152 1035q12 26 50 49t90 36.5t104 13.5q43 0 91 -11.5t77 -31.5l-86 -1138q46 -56 71 -103t37 -114q-32 -77 -102.5 -114.5t-164.5 -37.5q-75 0 -156.5 18.5t-122.5 51.5q-3 17 -3 44q0 40 6.5 82.5t19.5 69.5l-437 925l-5 -2q20 -66 65 -243.5
t86.5 -368.5t53.5 -308q2 -30 2 -45q0 -101 -51.5 -162t-160.5 -61q-90 0 -167 44t-112 118l31 163l111 -9l-8 879q-47 3 -92.5 15.5t-80.5 35.5q0 108 33.5 191t125.5 132q98 -12 227 -53t228 -111l388 -994zM757.5 1613q-54.5 -4 -101.5 -4q-46 0 -73 5l-225 190
q2 36 40 85t90.5 82.5t95.5 30.5l168 -198q53 78 95.5 123t109.5 93q38 -17 81 -57t60 -75l-259 -266q-27 -5 -81.5 -9z" />
    <glyph glyph-name="ncaron" unicode="&#x148;" horiz-adv-x="1192" 
d="M461 360q51 -151 84 -336q-62 -44 -187 -44q-69 0 -142 23t-109 63q20 115 34.5 176.5t35.5 125.5q-23 54 -59 204t-64 298t-28 184l1 7q33 56 121.5 87.5t178.5 31.5q104 0 145 -37l-73 -626l16 -3q16 53 34.5 121t26.5 99q37 142 66 239.5t69 191.5q47 15 133 15
q105 0 196 -33.5t155 -108.5q0 -85 -21.5 -214.5t-59 -267t-81.5 -245.5l170 89l89 -121q-23 -68 -67 -137.5t-99 -115.5t-109 -46q-46 0 -99.5 26t-90.5 66q-36 38 -49.5 70t-11.5 79l25 551l-29 9q-117 -258 -201 -421zM612 1269q-73 0 -123 10l-251 195q2 36 46.5 90
t103.5 93t102 36l145 -198q73 90 112.5 130.5t105.5 85.5q36 -16 74.5 -55.5t56.5 -76.5l-286 -304q-32 -6 -86 -6z" />
    <glyph glyph-name="Eng" unicode="&#x14a;" horiz-adv-x="1371" 
d="M1264 60l27 -120q-33 -127 -124.5 -228t-220.5 -145q-21 -3 -43 -3q-71 0 -154.5 27t-151 65t-90.5 68q-2 26 -2 37q0 40 7 75.5t20 79.5q76 -17 198.5 -32.5t190.5 -15.5l-15 127l-113 250l-437 925l-5 -2q20 -66 65 -243.5t86.5 -368.5t53.5 -308q2 -30 2 -45
q0 -101 -51.5 -162t-160.5 -61q-90 0 -167 44t-112 118l31 163l111 -9l-8 879q-47 3 -92.5 15.5t-80.5 35.5q0 108 33.5 191t125.5 132q98 -12 227 -53t228 -111l384 -1084l4 4q-38 221 -93 622.5t-55 502.5q12 26 50 49t90 36.5t104 13.5q42 0 89.5 -11.5t76.5 -31.5
l-80 -1138z" />
    <glyph glyph-name="eng" unicode="&#x14b;" horiz-adv-x="1108" 
d="M437 360q30 -101 47.5 -174t24.5 -162q-63 -44 -173 -44q-80 0 -154.5 22.5t-108.5 63.5q24 115 40.5 176.5t39.5 125.5q-21 54 -51 201t-53 294t-23 188q0 8 1 10q35 56 124.5 87.5t179.5 31.5q104 0 144 -37l-95 -626l16 -3q27 81 69 223q46 152 77 243.5t73 184.5
q48 15 132 15q105 0 195.5 -33.5t152.5 -108.5q-4 -118 -51.5 -314t-113.5 -359q102 -396 102 -589l-1 -30q-3 -29 -43.5 -73.5t-99 -77.5t-115.5 -33q-56 10 -113 38t-101 61t-64 58q-3 27 -3 48q0 28 4 50.5t10 44t8 29.5q58 -13 145 -25l-5 528l27 378l-28 9
q-123 -251 -216 -421z" />
    <glyph glyph-name="Omacron" unicode="&#x14c;" horiz-adv-x="1291" 
d="M1185.5 1192q3.5 -50 3.5 -132q0 -107 -14 -290t-35 -349t-39 -231q-9 -34 -47 -61t-104 -61q-7 -3 -12 -5.5l-9 -4.5q-72 -37 -125 -55.5t-105 -23.5q-75 5 -180 30t-198.5 62.5t-135.5 75.5q-29 184 -56 491.5t-27 454.5q0 85 6.5 149.5t29.5 94.5q34 45 135.5 94
t209.5 83.5t145 34.5q52 0 167.5 -34.5t224.5 -87.5t153 -106q9 -79 12.5 -129zM486 786q0 -297 14 -455q46 -27 111 -55t114 -38l61 42q11 102 11 306q0 146 -5.5 291t-14.5 241l-211 91l-69 -35q-11 -140 -11 -388zM1004 1928q8 -31 8 -75q0 -49 -12 -99.5t-36 -96.5
q-93 -7 -293 -7q-178 0 -364 7q-3 26 -3 52q0 58 13 111.5t36 93.5z" />
    <glyph glyph-name="omacron" unicode="&#x14d;" horiz-adv-x="1083" 
d="M1019.5 894.5q3.5 -48.5 3.5 -135.5q0 -140 -24.5 -318.5t-52.5 -280.5q-17 -21 -66 -52t-98 -56q-66 -33 -114 -50t-96 -22q-68 6 -160 30t-171.5 57.5t-114.5 68.5q-31 198 -47.5 342t-16.5 280q0 125 18 248q28 35 114 78.5t183 78t149 41.5q83 -8 179 -40t177.5 -79
t124.5 -98q9 -44 12.5 -92.5zM414 593q0 -160 14 -301q82 -54 166 -72l55 38q8 83 8 222q0 157 -17 320l-154 63l-60 -29q-12 -120 -12 -241zM895 1608q8 -31 8 -75q0 -49 -12 -99.5t-36 -96.5q-93 -7 -293 -7q-178 0 -364 7q-3 26 -3 52q0 58 13 111.5t36 93.5z" />
    <glyph glyph-name="Obreve" unicode="&#x14e;" horiz-adv-x="1291" 
d="M1185.5 1192q3.5 -50 3.5 -132q0 -107 -14 -290t-35 -349t-39 -231q-9 -34 -47 -61t-104 -61q-7 -3 -12 -5.5l-9 -4.5q-72 -37 -125 -55.5t-105 -23.5q-75 5 -180 30t-198.5 62.5t-135.5 75.5q-29 184 -56 491.5t-27 454.5q0 85 6.5 149.5t29.5 94.5q34 45 135.5 94
t209.5 83.5t145 34.5q52 0 167.5 -34.5t224.5 -87.5t153 -106q9 -79 12.5 -129zM486 786q0 -297 14 -455q46 -27 111 -55t114 -38l61 42q11 102 11 306q0 146 -5.5 291t-14.5 241l-211 91l-69 -35q-11 -140 -11 -388zM801 1656.5q81 37.5 140.5 103t81.5 146.5l-110 94
q-39 -47 -81 -73.5t-74.5 -36t-51.5 -9.5q-135 0 -200 138q-62 -10 -126.5 -55.5t-108.5 -116.5q16 -74 71 -125.5t133 -77t162 -25.5q83 0 164 37.5z" />
    <glyph glyph-name="obreve" unicode="&#x14f;" horiz-adv-x="1083" 
d="M1019.5 894.5q3.5 -48.5 3.5 -135.5q0 -140 -24.5 -318.5t-52.5 -280.5q-17 -21 -66 -52t-98 -56q-66 -33 -114 -50t-96 -22q-68 6 -160 30t-171.5 57.5t-114.5 68.5q-31 198 -47.5 342t-16.5 280q0 125 18 248q28 35 114 78.5t183 78t149 41.5q83 -8 179 -40t177.5 -79
t124.5 -98q9 -44 12.5 -92.5zM414 593q0 -160 14 -301q82 -54 166 -72l55 38q8 83 8 222q0 157 -17 320l-154 63l-60 -29q-12 -120 -12 -241zM692.5 1323.5q80.5 43.5 140.5 115.5t81 153l-110 94q-86 -87 -127.5 -115.5t-54.5 -28.5q-57 0 -119 35.5t-106 127.5
q-62 -10 -126.5 -55.5t-108.5 -116.5q16 -75 72 -132.5t135 -89t161 -31.5t162.5 43.5z" />
    <glyph glyph-name="Ohungarumlaut" unicode="&#x150;" horiz-adv-x="1291" 
d="M1185.5 1192q3.5 -50 3.5 -132q0 -107 -14 -290t-35 -349t-39 -231q-9 -34 -47 -61t-104 -61q-7 -3 -12 -5.5l-9 -4.5q-72 -37 -125 -55.5t-105 -23.5q-75 5 -180 30t-198.5 62.5t-135.5 75.5q-29 184 -56 491.5t-27 454.5q0 85 6.5 149.5t29.5 94.5q34 45 135.5 94
t209.5 83.5t145 34.5q52 0 167.5 -34.5t224.5 -87.5t153 -106q9 -79 12.5 -129zM486 786q0 -297 14 -455q46 -27 111 -55t114 -38l61 42q11 102 11 306q0 146 -5.5 291t-14.5 241l-211 91l-69 -35q-11 -140 -11 -388zM352.5 1667q25.5 -26 56.5 -45.5t53 -23.5
q48 20 109 59.5t115 92t83 108.5q-91 162 -276 162l-175 -304q9 -23 34.5 -49zM782 1635q42 -37 88 -47q51 21 117.5 61.5t127 95.5t91.5 113q-98 162 -275 162l-209 -314q18 -34 60 -71z" />
    <glyph glyph-name="ohungarumlaut" unicode="&#x151;" horiz-adv-x="1083" 
d="M1019.5 894.5q3.5 -48.5 3.5 -135.5q0 -140 -24.5 -318.5t-52.5 -280.5q-17 -21 -66 -52t-98 -56q-66 -33 -114 -50t-96 -22q-68 6 -160 30t-171.5 57.5t-114.5 68.5q-31 198 -47.5 342t-16.5 280q0 125 18 248q28 35 114 78.5t183 78t149 41.5q83 -8 179 -40t177.5 -79
t124.5 -98q9 -44 12.5 -92.5zM414 593q0 -160 14 -301q82 -54 166 -72l55 38q8 83 8 222q0 157 -17 320l-154 63l-60 -29q-12 -120 -12 -241zM240.5 1270q45.5 -32 81.5 -39q41 18 102.5 81t115.5 141t74 135q-58 81 -125.5 108.5t-149.5 27.5q-8 0 -17.5 -0.5t-27.5 -0.5
q-17 -79 -49 -185.5t-68 -203.5q18 -32 63.5 -64zM688.5 1273q43.5 -32 91.5 -42q41 18 101.5 79.5t114 139t75.5 138.5q-56 75 -140 105t-157 30q-3 0 -7.5 -0.5t-24.5 -0.5q-43 -193 -120 -384q23 -33 66.5 -65z" />
    <glyph glyph-name="OE" unicode="&#x152;" horiz-adv-x="1797" 
d="M1720.5 367q10.5 -64 10.5 -128q0 -118 -65.5 -188t-185.5 -70q-261 0 -523 89l-23 -12q-73 -37 -126 -55.5t-105 -23.5q-76 5 -185.5 30.5t-206 62.5t-138.5 75q-28 178 -52.5 486t-24.5 460q0 85 6.5 149.5t29.5 94.5q34 45 137.5 94t214 83.5t147.5 34.5
q56 0 179 -38.5t224 -91.5l188 36l369 94q47 -27 71 -86t24 -132q0 -80 -29 -149.5t-78 -106.5q-153 17 -395 85q2 -58 2 -100q0 -78 -8 -203q121 14 207 29.5t219 43.5q40 -61 40 -152q0 -61 -16 -117.5t-35 -76.5q-30 -3 -60 -3q-98 0 -198 17.5t-173 53.5
q-18 -194 -39 -332l308 -20l82 190l180 -15q17 -44 27.5 -108zM800 384q3 104 3 202q0 146 -5.5 291t-14.5 241l-214 91l-71 -35q-12 -133 -12 -388q0 -301 15 -455q46 -27 112 -55t116 -38l62 -10q6 52 9 156z" />
    <glyph glyph-name="oe" unicode="&#x153;" horiz-adv-x="1488" 
d="M1011 282q30 6 74.5 27t124.5 62q62 33 127 65l85 -139q-44 -59 -133.5 -134.5t-192 -130t-185.5 -54.5q-26 0 -51 13.5t-55 44.5q-26 26 -39 37h-1q-117 -85 -193 -93q-77 7 -181 32.5t-183.5 66t-86.5 88.5q-60 381 -60 623q0 77 6 135t27 86q31 41 120.5 85.5
t183.5 76t128 31.5q42 0 104 -22.5t122 -59.5l7 5q55 34 131 64.5t126 30.5q35 -2 78 -30q96 -65 150.5 -91.5t133.5 -54.5l28 -10q12 -5 17 -10t9.5 -18.5t9.5 -43.5q6 -36 6 -77q0 -80 -21 -119q-9 -17 -87.5 -108.5t-177.5 -198t-180 -179.5h29zM414 593q0 -160 14 -301
q82 -54 166 -72l55 38q8 83 8 222q0 157 -17 320l-154 63l-60 -29q-12 -120 -12 -241zM988 849q0 -57 -7 -210.5t-16 -220.5l-1 -3q155 229 218 377q-54 12 -194 57z" />
    <glyph glyph-name="Racute" unicode="&#x154;" horiz-adv-x="1364" 
d="M1355 350q-3 -73 -33.5 -149.5t-70.5 -131.5q-32 -44 -78 -66.5t-103 -22.5q-54 0 -122 22q-166 53 -207 463l-268 36q28 -66 54.5 -214t35.5 -260q-34 -23 -80 -35t-96 -12q-76 0 -145 24t-105 65q23 112 40 173t42 128q-24 49 -54.5 263.5t-54 450t-23.5 297.5l1 12
q45 61 121 98.5t157 37.5q92 0 164 -49l-95 -497l29 -14l267 562q21 6 57.5 11.5t75.5 5.5q42 0 103.5 -16t128.5 -48.5t123 -79.5q2 -150 -22.5 -334.5t-73.5 -346.5q-58 -86 -152 -165q31 -58 62.5 -105.5t70.5 -86.5q54 19 137 86zM618 894q-94 -153 -128 -222l316 22
q26 169 26 339q0 63 -5 110l-47 8q-68 -104 -162 -257zM488 1629q32 -5 65 -5q97 0 221 32t218 82q-8 80 -55.5 157.5t-124.5 124.5q-111 -78 -190.5 -126.5t-197.5 -107.5q15 -103 64 -157z" />
    <glyph glyph-name="racute" unicode="&#x155;" horiz-adv-x="1027" 
d="M425.5 617.5q8.5 48.5 13.5 77.5q27 167 51.5 283.5t56.5 187.5q63 14 128 14q91 0 168.5 -25t126.5 -59q9 -63 9 -132q0 -113 -18.5 -231.5t-42.5 -215.5q-75 -42 -158 -42q-50 0 -112 15q1 35 1 166q0 96 -1 132l-49 8q-37 -109 -110 -391l-35 -131l183 24l57 -134
q-59 -93 -143 -138.5t-182 -45.5q-56 0 -99 10t-73 38q-17 15 -39.5 46t-40 69.5t-17.5 73.5q0 22 7 40l80 198l-179 608q39 56 108 86.5t147 30.5q82 0 145 -31l-7 -602l11 -2q5 24 13.5 72.5zM364.5 1311.5q28.5 -43.5 53.5 -64.5q101 20 229.5 80.5t194.5 118.5
q0 56 -29.5 114.5t-78.5 105t-107 66.5l-53 -63q-82 -97 -133.5 -152.5t-121.5 -114.5q17 -47 45.5 -90.5z" />
    <glyph glyph-name="Rcommaaccent" unicode="&#x156;" horiz-adv-x="1364" 
d="M1355 350q-3 -73 -33.5 -149.5t-70.5 -131.5q-32 -44 -78 -66.5t-103 -22.5q-54 0 -122 22q-166 53 -207 463l-268 36q28 -66 54.5 -214t35.5 -260q-34 -23 -80 -35t-96 -12q-76 0 -145 24t-105 65q23 112 40 173t42 128q-24 49 -54.5 263.5t-54 450t-23.5 297.5l1 12
q45 61 121 98.5t157 37.5q92 0 164 -49l-95 -497l29 -14l267 562q21 6 57.5 11.5t75.5 5.5q42 0 103.5 -16t128.5 -48.5t123 -79.5q2 -150 -22.5 -334.5t-73.5 -346.5q-58 -86 -152 -165q31 -58 62.5 -105.5t70.5 -86.5q54 19 137 86zM618 894q-94 -153 -128 -222l316 22
q26 169 26 339q0 63 -5 110l-47 8q-68 -104 -162 -257zM653 -537q70 61 172.5 177.5t137.5 181.5q-28 47 -115 69t-188 22q-50 0 -81 -4l-68 -389z" />
    <glyph glyph-name="rcommaaccent" unicode="&#x157;" horiz-adv-x="1027" 
d="M425.5 617.5q8.5 48.5 13.5 77.5q27 167 51.5 283.5t56.5 187.5q63 14 128 14q91 0 168.5 -25t126.5 -59q9 -63 9 -132q0 -113 -18.5 -231.5t-42.5 -215.5q-75 -42 -158 -42q-50 0 -112 15q1 35 1 166q0 96 -1 132l-49 8q-37 -109 -110 -391l-35 -131l183 24l57 -134
q-59 -93 -143 -138.5t-182 -45.5q-56 0 -99 10t-73 38q-17 15 -39.5 46t-40 69.5t-17.5 73.5q0 22 7 40l80 198l-179 608q39 56 108 86.5t147 30.5q82 0 145 -31l-7 -602l11 -2q5 24 13.5 72.5zM325 -537q70 61 172.5 177.5t137.5 181.5q-28 47 -115 69t-188 22
q-50 0 -81 -4l-68 -389z" />
    <glyph glyph-name="Rcaron" unicode="&#x158;" horiz-adv-x="1364" 
d="M1355 350q-3 -73 -33.5 -149.5t-70.5 -131.5q-32 -44 -78 -66.5t-103 -22.5q-54 0 -122 22q-166 53 -207 463l-268 36q28 -66 54.5 -214t35.5 -260q-34 -23 -80 -35t-96 -12q-76 0 -145 24t-105 65q23 112 40 173t42 128q-24 49 -54.5 263.5t-54 450t-23.5 297.5l1 12
q45 61 121 98.5t157 37.5q92 0 164 -49l-95 -497l29 -14l267 562q21 6 57.5 11.5t75.5 5.5q42 0 103.5 -16t128.5 -48.5t123 -79.5q2 -150 -22.5 -334.5t-73.5 -346.5q-58 -86 -152 -165q31 -58 62.5 -105.5t70.5 -86.5q54 19 137 86zM618 894q-94 -153 -128 -222l316 22
q26 169 26 339q0 63 -5 110l-47 8q-68 -104 -162 -257zM701.5 1613q-54.5 -4 -101.5 -4q-46 0 -73 5l-225 190q2 36 40 85t90.5 82.5t95.5 30.5l168 -198q53 78 95.5 123t109.5 93q38 -17 81 -57t60 -75l-259 -266q-27 -5 -81.5 -9z" />
    <glyph glyph-name="rcaron" unicode="&#x159;" horiz-adv-x="1027" 
d="M425.5 617.5q8.5 48.5 13.5 77.5q27 167 51.5 283.5t56.5 187.5q63 14 128 14q91 0 168.5 -25t126.5 -59q9 -63 9 -132q0 -113 -18.5 -231.5t-42.5 -215.5q-75 -42 -158 -42q-50 0 -112 15q1 35 1 166q0 96 -1 132l-49 8q-37 -109 -110 -391l-35 -131l183 24l57 -134
q-59 -93 -143 -138.5t-182 -45.5q-56 0 -99 10t-73 38q-17 15 -39.5 46t-40 69.5t-17.5 73.5q0 22 7 40l80 198l-179 608q39 56 108 86.5t147 30.5q82 0 145 -31l-7 -602l11 -2q5 24 13.5 72.5zM493 1269q-73 0 -123 10l-251 195q2 36 46.5 90t103.5 93t102 36l145 -198
q73 90 112.5 130.5t105.5 85.5q36 -16 74.5 -55.5t56.5 -76.5l-286 -304q-32 -6 -86 -6z" />
    <glyph glyph-name="Sacute" unicode="&#x15a;" horiz-adv-x="1050" 
d="M667 381q0 43 -9 73q-68 19 -187.5 76.5t-223 126t-134.5 122.5q-11 40 -18 115t-15 199q-5 90 -11 151q69 111 158 182.5t209 122.5q56 -17 188 -87l42 -22l320 15q17 -65 17 -130q0 -85 -25.5 -157t-60.5 -118.5t-61 -59.5q-49 10 -117 39.5t-140.5 76t-129.5 102.5
h-13l-38 -210q67 -39 183 -120.5t227.5 -176.5t164.5 -173q1 -8 1 -24q0 -67 -21.5 -164.5t-44.5 -171.5q-65 -65 -126.5 -111.5t-134.5 -76.5q-75 8 -290 32t-208 25q-64 111 -64 217q0 50 11 87t20.5 56.5t11.5 24.5q206 -15 446 -179l60 25q13 67 13 113zM440 1629
q32 -5 65 -5q97 0 221 32t218 82q-8 80 -55.5 157.5t-124.5 124.5q-111 -78 -190.5 -126.5t-197.5 -107.5q15 -103 64 -157z" />
    <glyph glyph-name="sacute" unicode="&#x15b;" horiz-adv-x="900" 
d="M396 727q104 -55 249 -150.5t196 -159.5q1 -12 1 -36q0 -56 -8.5 -112t-24.5 -101q-65 -63 -130 -110t-140 -78q-84 3 -164.5 17.5t-183.5 37.5q-62 15 -94 20q-48 87 -48 165q0 43 11.5 75t23.5 52t15 27q95 -3 183.5 -47.5t193.5 -121.5l49 24q7 38 7 94q0 26 -1 37
q-45 13 -110 37q-116 43 -217.5 96t-138.5 101q-13 50 -17.5 151.5t-4.5 179.5q0 27 32.5 64t74.5 70.5t71 50.5q57 34 133 64t128 30q27 0 60 -13.5t81 -38.5q49 -25 62 -30l161 -54q10 -34 10 -73q0 -76 -39 -156.5t-110 -154.5q-61 25 -142.5 96t-133.5 142l-26 -9z
M317.5 1311.5q28.5 -43.5 53.5 -64.5q101 20 229.5 80.5t194.5 118.5q0 56 -29.5 114.5t-78.5 105t-107 66.5l-53 -63q-82 -97 -133.5 -152.5t-121.5 -114.5q17 -47 45.5 -90.5z" />
    <glyph glyph-name="Scircumflex" unicode="&#x15c;" horiz-adv-x="1050" 
d="M667 381q0 43 -9 73q-68 19 -187.5 76.5t-223 126t-134.5 122.5q-11 40 -18 115t-15 199q-5 90 -11 151q69 111 158 182.5t209 122.5q56 -17 188 -87l42 -22l320 15q17 -65 17 -130q0 -85 -25.5 -157t-60.5 -118.5t-61 -59.5q-49 10 -117 39.5t-140.5 76t-129.5 102.5
h-13l-38 -210q67 -39 183 -120.5t227.5 -176.5t164.5 -173q1 -8 1 -24q0 -67 -21.5 -164.5t-44.5 -171.5q-65 -65 -126.5 -111.5t-134.5 -76.5q-75 8 -290 32t-208 25q-64 111 -64 217q0 50 11 87t20.5 56.5t11.5 24.5q206 -15 446 -179l60 25q13 67 13 113zM331 1662
q-36 32 -57 69q65 61 101 104.5t78 111.5q27 24 113 42t157 18q33 0 53 -4l208 -249q-17 -42 -57.5 -87.5t-85.5 -57.5q-52 19 -102 52.5t-122 89.5l-31 24q-62 -71 -98.5 -108t-72.5 -58q-48 21 -84 53z" />
    <glyph glyph-name="scircumflex" unicode="&#x15d;" horiz-adv-x="900" 
d="M396 727q104 -55 249 -150.5t196 -159.5q1 -12 1 -36q0 -56 -8.5 -112t-24.5 -101q-65 -63 -130 -110t-140 -78q-84 3 -164.5 17.5t-183.5 37.5q-62 15 -94 20q-48 87 -48 165q0 43 11.5 75t23.5 52t15 27q95 -3 183.5 -47.5t193.5 -121.5l49 24q7 38 7 94q0 26 -1 37
q-45 13 -110 37q-116 43 -217.5 96t-138.5 101q-13 50 -17.5 151.5t-4.5 179.5q0 27 32.5 64t74.5 70.5t71 50.5q57 34 133 64t128 30q27 0 60 -13.5t81 -38.5q49 -25 62 -30l161 -54q10 -34 10 -73q0 -76 -39 -156.5t-110 -154.5q-61 25 -142.5 96t-133.5 142l-26 -9z
M123 1299q-36 32 -57 69q52 53 90 107.5t89 136.5l21 35q29 25 103 42.5t143 17.5q33 0 53 -4l231 -312q-17 -42 -57.5 -87.5t-85.5 -57.5q-75 41 -133.5 82.5t-131.5 106.5q-48 -68 -85.5 -107.5t-95.5 -81.5q-48 21 -84 53z" />
    <glyph glyph-name="Scedilla" unicode="&#x15e;" horiz-adv-x="1050" 
d="M601 877.5q116 -81.5 227.5 -176.5t164.5 -173q1 -8 1 -24q0 -67 -21.5 -164.5t-44.5 -171.5q-84 -84 -161 -135l104 -163q-22 -86 -95.5 -157.5t-167.5 -103.5q-18 -2 -30 -2q-49 0 -99 19t-88.5 45t-55.5 48q-1 7 -1 21q0 34 7 74t16 71q62 -15 135.5 -27t117.5 -12
l-66 147l-57 6q-63 7 -192.5 22t-125.5 16q-64 111 -64 217q0 50 11 87t20.5 56.5t11.5 24.5q206 -15 446 -179l60 25q13 67 13 113q0 43 -9 73q-68 19 -187.5 76.5t-223 126t-134.5 122.5q-11 40 -18 115t-15 199q-5 90 -11 151q69 111 158 182.5t209 122.5q56 -17 188 -87
l42 -22l320 15q17 -65 17 -130q0 -85 -25.5 -157t-60.5 -118.5t-61 -59.5q-49 10 -117 39.5t-140.5 76t-129.5 102.5h-13l-38 -210q67 -39 183 -120.5z" />
    <glyph glyph-name="scedilla" unicode="&#x15f;" horiz-adv-x="900" 
d="M645 576.5q145 -95.5 196 -159.5q1 -12 1 -36q0 -56 -8.5 -112t-24.5 -101q-110 -106 -209 -159l88 -139q-22 -86 -95.5 -157.5t-167.5 -103.5q-18 -2 -30 -2q-49 0 -99 19t-88.5 45t-55.5 48q-1 7 -1 21q0 34 7 74t16 71q62 -15 135.5 -27t117.5 -12l-70 155
q-68 12 -171 35q-64 15 -89 19q-48 87 -48 165q0 43 11.5 75t23.5 52t15 27q95 -3 183.5 -47.5t193.5 -121.5l49 24q7 38 7 94q0 26 -1 37q-45 13 -110 37q-116 43 -217.5 96t-138.5 101q-13 50 -17.5 151.5t-4.5 179.5q0 27 32.5 64t74.5 70.5t71 50.5q57 34 133 64t128 30
q27 0 60 -13.5t81 -38.5q49 -25 62 -30l161 -54q10 -34 10 -73q0 -76 -39 -156.5t-110 -154.5q-61 25 -142.5 96t-133.5 142l-26 -9l-9 -186q104 -55 249 -150.5z" />
    <glyph glyph-name="Scaron" unicode="&#x160;" horiz-adv-x="1050" 
d="M667 381q0 43 -9 73q-68 19 -187.5 76.5t-223 126t-134.5 122.5q-11 40 -18 115t-15 199q-5 90 -11 151q69 111 158 182.5t209 122.5q56 -17 188 -87l42 -22l320 15q17 -65 17 -130q0 -85 -25.5 -157t-60.5 -118.5t-61 -59.5q-49 10 -117 39.5t-140.5 76t-129.5 102.5
h-13l-38 -210q67 -39 183 -120.5t227.5 -176.5t164.5 -173q1 -8 1 -24q0 -67 -21.5 -164.5t-44.5 -171.5q-65 -65 -126.5 -111.5t-134.5 -76.5q-75 8 -290 32t-208 25q-64 111 -64 217q0 50 11 87t20.5 56.5t11.5 24.5q206 -15 446 -179l60 25q13 67 13 113zM653.5 1613
q-54.5 -4 -101.5 -4q-46 0 -73 5l-225 190q2 36 40 85t90.5 82.5t95.5 30.5l168 -198q53 78 95.5 123t109.5 93q38 -17 81 -57t60 -75l-259 -266q-27 -5 -81.5 -9z" />
    <glyph glyph-name="scaron" unicode="&#x161;" horiz-adv-x="900" 
d="M396 727q104 -55 249 -150.5t196 -159.5q1 -12 1 -36q0 -56 -8.5 -112t-24.5 -101q-65 -63 -130 -110t-140 -78q-84 3 -164.5 17.5t-183.5 37.5q-62 15 -94 20q-48 87 -48 165q0 43 11.5 75t23.5 52t15 27q95 -3 183.5 -47.5t193.5 -121.5l49 24q7 38 7 94q0 26 -1 37
q-45 13 -110 37q-116 43 -217.5 96t-138.5 101q-13 50 -17.5 151.5t-4.5 179.5q0 27 32.5 64t74.5 70.5t71 50.5q57 34 133 64t128 30q27 0 60 -13.5t81 -38.5q49 -25 62 -30l161 -54q10 -34 10 -73q0 -76 -39 -156.5t-110 -154.5q-61 25 -142.5 96t-133.5 142l-26 -9z
M446 1269q-73 0 -123 10l-251 195q2 36 46.5 90t103.5 93t102 36l145 -198q73 90 112.5 130.5t105.5 85.5q36 -16 74.5 -55.5t56.5 -76.5l-286 -304q-32 -6 -86 -6z" />
    <glyph glyph-name="uni0162" unicode="&#x162;" horiz-adv-x="1103" 
d="M934.5 1102q-73.5 18 -125.5 43l-60 -561l9 -270l220 101l78 -132q-9 -42 -46.5 -102t-90 -113t-106.5 -76l78 -122q-22 -86 -95.5 -157.5t-167.5 -103.5q-18 -2 -30 -2q-49 0 -99 19t-88.5 45t-55.5 48q-1 7 -1 21q0 34 7 74t16 71q62 -15 135.5 -27t117.5 -12l-87 194
q-56 34 -91 82t-40 105q-2 26 -2 39q0 46 7 90t23 118q15 63 22 106h2l-60 639l-111 28l-41 -281q-64 -22 -121 -22t-112 23q-21 64 -37.5 144t-16.5 150q0 84 27 132q52 64 131.5 106.5t152.5 49.5l439 -111l348 111q46 -24 70.5 -83t24.5 -132q0 -77 -27.5 -146.5
t-76.5 -103.5q-46 0 -119.5 18z" />
    <glyph glyph-name="uni0163" unicode="&#x163;" horiz-adv-x="827" 
d="M762.5 236q-47.5 -70 -109 -135t-117.5 -97l85 -134q-22 -86 -95.5 -157.5t-167.5 -103.5q-18 -2 -30 -2q-49 0 -99 19t-88.5 45t-55.5 48q-1 7 -1 21q0 34 7 74t16 71q62 -15 135.5 -27t117.5 -12l-92 205q-61 41 -100.5 91t-40.5 98q0 22 13 76.5t52 179.5l-50 358
l-96 6q-11 30 -16 70t-5 78q0 21 1 29l112 39l61 363q16 8 47.5 13.5t68.5 5.5q51 0 101 -10t87 -30l-11 -281l222 45q41 -70 41 -152q0 -49 -10.5 -86.5t-29.5 -88.5q-114 -9 -233 -14l2 -529l216 178l127 -141q-17 -43 -64.5 -113z" />
    <glyph glyph-name="Tcaron" unicode="&#x164;" horiz-adv-x="1103" 
d="M934.5 1102q-73.5 18 -125.5 43l-60 -561l9 -270l220 101l78 -132q-11 -50 -60.5 -123t-115.5 -127t-127 -54q-73 0 -150 30.5t-130.5 87.5t-60.5 130q-2 26 -2 39q0 46 7 90t23 118q15 63 22 106h2l-60 639l-111 28l-41 -281q-64 -22 -121 -22t-112 23q-21 64 -37.5 144
t-16.5 150q0 84 27 132q52 64 131.5 106.5t152.5 49.5l439 -111l348 111q46 -24 70.5 -83t24.5 -132q0 -77 -27.5 -146.5t-76.5 -103.5q-46 0 -119.5 18zM670.5 1613q-54.5 -4 -101.5 -4q-46 0 -73 5l-225 190q2 36 40 85t90.5 82.5t95.5 30.5l168 -198q53 78 95.5 123
t109.5 93q38 -17 81 -57t60 -75l-259 -266q-27 -5 -81.5 -9z" />
    <glyph glyph-name="tcaron" unicode="&#x165;" horiz-adv-x="857" 
d="M610 1926l-51 -606l150 -40q106 145 242 559q-94 101 -237 101q-56 0 -104 -14zM847 349q-20 -53 -90.5 -143t-153.5 -158t-143 -68q-61 0 -139.5 40t-135 101t-58.5 119q0 22 13 76.5t52 179.5l-50 358l-96 6q-11 30 -16 70t-5 78q0 21 1 29l112 39l61 363q16 9 43.5 14
t59.5 5q44 0 88.5 -9.5t82.5 -30.5l9 -281l282 45q41 -70 41 -152q0 -49 -10.5 -86.5t-29.5 -88.5q-69 -6 -283 -14l2 -529l236 178z" />
    <glyph glyph-name="Tbar" unicode="&#x166;" horiz-adv-x="1103" 
d="M942.5 1101q-74.5 17 -129.5 41l-28 -271l217 15q7 -28 7 -62q0 -106 -75 -253q-33 -3 -96 -3l-82 1l17 -255l220 101l78 -132q-11 -50 -60.5 -123t-115.5 -127t-127 -54q-73 0 -150 30.5t-130.5 87.5t-60.5 130q-1 11 -1 32q0 44 8.5 87.5t24.5 107.5q20 78 27 123
l-234 8q-3 30 -3 57q0 56 14 99.5t45 95.5l156 11l-34 366l-130 33l-41 -281q-64 -22 -121 -22t-112 23q-21 64 -37.5 144t-16.5 150q0 84 27 132q52 64 131.5 106.5t152.5 49.5l439 -111l348 111q46 -24 70.5 -83t24.5 -132q0 -77 -27.5 -146.5t-76.5 -103.5
q-44 0 -118.5 17z" />
    <glyph glyph-name="tbar" unicode="&#x167;" horiz-adv-x="847" 
d="M828 289q-33 -59 -94 -132t-132 -125t-132 -52t-140.5 40.5t-136 101.5t-56.5 118q0 22 13 76.5t52 179.5v1q-82 2 -124 4q-22 59 -22 113q0 37 8 72l115 22l-17 155l-106 6q-11 30 -16 67.5t-5 72.5q0 20 1 28l122 39l51 363q16 8 47.5 13.5t68.5 5.5q51 0 101 -10
t87 -30l-11 -281l222 45q41 -70 41 -145q0 -40 -9 -73.5t-18.5 -57t-12.5 -31.5q-114 -9 -233 -14v-109l230 22q25 -47 25 -115q0 -43 -11 -84t-30 -68q-65 -6 -213 -10l1 -185l221 121z" />
    <glyph glyph-name="Utilde" unicode="&#x168;" horiz-adv-x="1272" 
d="M1199 1060q0 -107 -14 -290t-35 -349t-39 -231q-9 -33 -47.5 -59.5t-103.5 -58.5q-6 -3 -13.5 -6.5t-15.5 -7.5q-73 -37 -126 -55.5t-105 -23.5q-74 4 -173 29.5t-186.5 63t-130.5 75.5q-28 178 -52.5 479.5t-24.5 454.5q0 62 2 98l-140 47q8 106 49.5 190t137.5 133
q121 -15 367 -203l-3 -2l3 1l-25 -171l-1 -388q0 -321 15 -475q113 -66 250 -83q6 52 9 156t3 202q0 151 -6 336.5t-15 278.5l-164 46q9 97 64 180.5t151 121.5q51 -7 149 -48t189 -92l12 -87v-1l3 -26l5 -38q11 -99 11 -197zM619 1651.5q93 -46.5 146 -46.5
q66 0 128.5 51.5t106.5 124.5t57 132l-107 87l-134 -120q-21 9 -51.5 27t-37.5 22q-73 44 -122.5 67.5t-88.5 23.5q-66 0 -131 -53t-111 -128t-59 -133l110 -80l140 119q61 -47 154 -93.5z" />
    <glyph glyph-name="utilde" unicode="&#x169;" horiz-adv-x="1164" 
d="M458.5 639.5q-11.5 -134.5 -39.5 -264.5l30 -14q35 34 80.5 114t83.5 164.5t49 124.5q-29 346 -29 390q17 11 65 19.5t103 8.5q91 0 157.5 -29t119.5 -92v-11q0 -50 -24.5 -190t-64.5 -294.5t-83 -257.5l173 92l85 -121q-57 -132 -130.5 -215.5t-154.5 -83.5
q-47 0 -100.5 27.5t-94.5 72.5q-4 4 -19.5 20t-24 39t-8.5 54q0 8 2 28q14 139 34 269l-15 7q-76 -193 -165.5 -355t-160.5 -162q-25 0 -49.5 12.5t-60.5 38.5l-35 23q-51 33 -77.5 56.5t-26.5 51.5l84 411l-155 431q26 64 84 106t128 61.5t137 19.5q68 0 104 -17
q10 -106 10 -243q0 -157 -11.5 -291.5zM538 1302.5q93 -46.5 146 -46.5q66 0 128.5 51.5t106.5 124.5t57 132l-99 92l-142 -125q-21 9 -51.5 27t-37.5 22q-73 44 -122.5 67.5t-88.5 23.5q-66 0 -131 -53t-111 -128t-59 -133l99 -92l151 131q61 -47 154 -93.5z" />
    <glyph glyph-name="Umacron" unicode="&#x16a;" horiz-adv-x="1272" 
d="M1199 1060q0 -107 -14 -290t-35 -349t-39 -231q-9 -33 -47.5 -59.5t-103.5 -58.5q-6 -3 -13.5 -6.5t-15.5 -7.5q-73 -37 -126 -55.5t-105 -23.5q-74 4 -173 29.5t-186.5 63t-130.5 75.5q-28 178 -52.5 479.5t-24.5 454.5q0 62 2 98l-140 47q8 106 49.5 190t137.5 133
q121 -15 367 -203l-3 -2l3 1l-25 -171l-1 -388q0 -321 15 -475q113 -66 250 -83q6 52 9 156t3 202q0 151 -6 336.5t-15 278.5l-164 46q9 97 64 180.5t151 121.5q51 -7 149 -48t189 -92l12 -87v-1l3 -26l5 -38q11 -99 11 -197zM997 1928q8 -31 8 -75q0 -49 -12 -99.5
t-36 -96.5q-93 -7 -293 -7q-178 0 -364 7q-3 26 -3 52q0 58 13 111.5t36 93.5z" />
    <glyph glyph-name="umacron" unicode="&#x16b;" horiz-adv-x="1164" 
d="M458.5 639.5q-11.5 -134.5 -39.5 -264.5l30 -14q35 34 80.5 114t83.5 164.5t49 124.5q-29 346 -29 390q17 11 65 19.5t103 8.5q91 0 157.5 -29t119.5 -92v-11q0 -50 -24.5 -190t-64.5 -294.5t-83 -257.5l173 92l85 -121q-57 -132 -130.5 -215.5t-154.5 -83.5
q-47 0 -100.5 27.5t-94.5 72.5q-4 4 -19.5 20t-24 39t-8.5 54q0 8 2 28q14 139 34 269l-15 7q-76 -193 -165.5 -355t-160.5 -162q-25 0 -49.5 12.5t-60.5 38.5l-35 23q-51 33 -77.5 56.5t-26.5 51.5l84 411l-155 431q26 64 84 106t128 61.5t137 19.5q68 0 104 -17
q10 -106 10 -243q0 -157 -11.5 -291.5zM916 1608q8 -31 8 -75q0 -49 -12 -99.5t-36 -96.5q-93 -7 -293 -7q-178 0 -364 7q-3 26 -3 52q0 58 13 111.5t36 93.5z" />
    <glyph glyph-name="Ubreve" unicode="&#x16c;" horiz-adv-x="1272" 
d="M1199 1060q0 -107 -14 -290t-35 -349t-39 -231q-9 -33 -47.5 -59.5t-103.5 -58.5q-6 -3 -13.5 -6.5t-15.5 -7.5q-73 -37 -126 -55.5t-105 -23.5q-74 4 -173 29.5t-186.5 63t-130.5 75.5q-28 178 -52.5 479.5t-24.5 454.5q0 62 2 98l-140 47q8 106 49.5 190t137.5 133
q121 -15 367 -203l-3 -2l3 1l-25 -171l-1 -388q0 -321 15 -475q113 -66 250 -83q6 52 9 156t3 202q0 151 -6 336.5t-15 278.5l-164 46q9 97 64 180.5t151 121.5q51 -7 149 -48t189 -92l12 -87v-1l3 -26l5 -38q11 -99 11 -197zM794 1656.5q81 37.5 140.5 103t81.5 146.5
l-110 94q-39 -47 -81 -73.5t-74.5 -36t-51.5 -9.5q-135 0 -200 138q-62 -10 -126.5 -55.5t-108.5 -116.5q16 -74 71 -125.5t133 -77t162 -25.5q83 0 164 37.5z" />
    <glyph glyph-name="ubreve" unicode="&#x16d;" horiz-adv-x="1164" 
d="M458.5 639.5q-11.5 -134.5 -39.5 -264.5l30 -14q35 34 80.5 114t83.5 164.5t49 124.5q-29 346 -29 390q17 11 65 19.5t103 8.5q91 0 157.5 -29t119.5 -92v-11q0 -50 -24.5 -190t-64.5 -294.5t-83 -257.5l173 92l85 -121q-57 -132 -130.5 -215.5t-154.5 -83.5
q-47 0 -100.5 27.5t-94.5 72.5q-4 4 -19.5 20t-24 39t-8.5 54q0 8 2 28q14 139 34 269l-15 7q-76 -193 -165.5 -355t-160.5 -162q-25 0 -49.5 12.5t-60.5 38.5l-35 23q-51 33 -77.5 56.5t-26.5 51.5l84 411l-155 431q26 64 84 106t128 61.5t137 19.5q68 0 104 -17
q10 -106 10 -243q0 -157 -11.5 -291.5zM713.5 1323.5q80.5 43.5 140.5 115.5t81 153l-110 94q-86 -87 -127.5 -115.5t-54.5 -28.5q-57 0 -119 35.5t-106 127.5q-62 -10 -126.5 -55.5t-108.5 -116.5q16 -75 72 -132.5t135 -89t161 -31.5t162.5 43.5z" />
    <glyph glyph-name="Uring" unicode="&#x16e;" horiz-adv-x="1272" 
d="M1199 1060q0 -107 -14 -290t-35 -349t-39 -231q-9 -33 -47.5 -59.5t-103.5 -58.5q-6 -3 -13.5 -6.5t-15.5 -7.5q-73 -37 -126 -55.5t-105 -23.5q-74 4 -173 29.5t-186.5 63t-130.5 75.5q-28 178 -52.5 479.5t-24.5 454.5q0 62 2 98l-140 47q8 106 49.5 190t137.5 133
q121 -15 367 -203l-3 -2l3 1l-25 -171l-1 -388q0 -321 15 -475q113 -66 250 -83q6 52 9 156t3 202q0 151 -6 336.5t-15 278.5l-164 46q9 97 64 180.5t151 121.5q51 -7 149 -48t189 -92l12 -87v-1l3 -26l5 -38q11 -99 11 -197zM617 1527q-85 0 -148 29.5t-97 85t-34 130.5
q0 68 35.5 119.5t88 82t102.5 39.5q42 7 88 7q84 0 147 -29.5t97 -84.5t34 -129q0 -68 -36 -119.5t-88 -82.5t-102 -40q-48 -8 -87 -8zM561 1819q-7 -24 -7 -44q0 -31 12 -48q33 -18 79 -18q33 0 61 9q6 28 6 45q0 25 -9 42q-24 19 -88 19q-32 0 -54 -5z" />
    <glyph glyph-name="uring" unicode="&#x16f;" horiz-adv-x="1164" 
d="M458.5 639.5q-11.5 -134.5 -39.5 -264.5l30 -14q35 34 80.5 114t83.5 164.5t49 124.5q-29 346 -29 390q17 11 65 19.5t103 8.5q91 0 157.5 -29t119.5 -92v-11q0 -50 -24.5 -190t-64.5 -294.5t-83 -257.5l173 92l85 -121q-57 -132 -130.5 -215.5t-154.5 -83.5
q-47 0 -100.5 27.5t-94.5 72.5q-4 4 -19.5 20t-24 39t-8.5 54q0 8 2 28q14 139 34 269l-15 7q-76 -193 -165.5 -355t-160.5 -162q-25 0 -49.5 12.5t-60.5 38.5l-35 23q-51 33 -77.5 56.5t-26.5 51.5l84 411l-155 431q26 64 84 106t128 61.5t137 19.5q68 0 104 -17
q10 -106 10 -243q0 -157 -11.5 -291.5zM535 1228q-85 0 -148 29.5t-97 85t-34 130.5q0 68 35.5 119.5t88 82t102.5 39.5q42 7 88 7q84 0 147 -29.5t97 -84.5t34 -129q0 -68 -36 -119.5t-88 -82.5t-102 -40q-48 -8 -87 -8zM479 1520q-7 -24 -7 -44q0 -31 12 -48
q33 -18 79 -18q32 0 61 9q6 28 6 45q0 26 -9 42q-24 19 -88 19q-32 0 -54 -5z" />
    <glyph glyph-name="Uhungarumlaut" unicode="&#x170;" horiz-adv-x="1272" 
d="M1199 1060q0 -107 -14 -290t-35 -349t-39 -231q-9 -33 -47.5 -59.5t-103.5 -58.5q-6 -3 -13.5 -6.5t-15.5 -7.5q-73 -37 -126 -55.5t-105 -23.5q-74 4 -173 29.5t-186.5 63t-130.5 75.5q-28 178 -52.5 479.5t-24.5 454.5q0 62 2 98l-140 47q8 106 49.5 190t137.5 133
q121 -15 367 -203l-3 -2l3 1l-25 -171l-1 -388q0 -321 15 -475q113 -66 250 -83q6 52 9 156t3 202q0 151 -6 336.5t-15 278.5l-164 46q9 97 64 180.5t151 121.5q51 -7 149 -48t189 -92l12 -87v-1l3 -26l5 -38q11 -99 11 -197zM345.5 1667q25.5 -26 56.5 -45.5t53 -23.5
q48 20 109 59.5t115 92t83 108.5q-91 162 -276 162l-175 -304q9 -23 34.5 -49zM775 1635q42 -37 88 -47q51 21 117.5 61.5t127 95.5t91.5 113q-98 162 -275 162l-209 -314q18 -34 60 -71z" />
    <glyph glyph-name="uhungarumlaut" unicode="&#x171;" horiz-adv-x="1164" 
d="M458.5 639.5q-11.5 -134.5 -39.5 -264.5l30 -14q35 34 80.5 114t83.5 164.5t49 124.5q-29 346 -29 390q17 11 65 19.5t103 8.5q91 0 157.5 -29t119.5 -92v-11q0 -50 -24.5 -190t-64.5 -294.5t-83 -257.5l173 92l85 -121q-57 -132 -130.5 -215.5t-154.5 -83.5
q-47 0 -100.5 27.5t-94.5 72.5q-4 4 -19.5 20t-24 39t-8.5 54q0 8 2 28q14 139 34 269l-15 7q-76 -193 -165.5 -355t-160.5 -162q-25 0 -49.5 12.5t-60.5 38.5l-35 23q-51 33 -77.5 56.5t-26.5 51.5l84 411l-155 431q26 64 84 106t128 61.5t137 19.5q68 0 104 -17
q10 -106 10 -243q0 -157 -11.5 -291.5zM261.5 1270q45.5 -32 81.5 -39q41 18 102.5 81t115.5 141t74 135q-58 81 -125.5 108.5t-149.5 27.5q-8 0 -17.5 -0.5t-27.5 -0.5q-17 -79 -49 -185.5t-68 -203.5q18 -32 63.5 -64zM709.5 1273q43.5 -32 91.5 -42q41 18 101.5 79.5
t114 139t75.5 138.5q-56 75 -140 105t-157 30q-3 0 -7.5 -0.5t-24.5 -0.5q-43 -193 -120 -384q23 -33 66.5 -65z" />
    <glyph glyph-name="Uogonek" unicode="&#x172;" horiz-adv-x="1272" 
d="M1199 1060q0 -107 -14 -290t-35 -349t-39 -231q-9 -33 -47.5 -59.5t-103.5 -58.5q-6 -3 -13.5 -6.5t-15.5 -7.5q-69 -35 -112 -51q-57 -94 -102 -177l14 -13l196 67l47 -127q-51 -100 -113.5 -147.5t-148.5 -47.5q-48 0 -106.5 33.5t-99.5 83.5t-41 96q0 97 151 214
q-115 20 -234 65t-172 93q-28 178 -52.5 479.5t-24.5 454.5q0 62 2 98l-140 47q8 106 49.5 190t137.5 133q121 -15 367 -203l-3 -2l3 1l-25 -171l-1 -388q0 -321 15 -475q113 -66 250 -83q6 52 9 156t3 202q0 151 -6 336.5t-15 278.5l-164 46q9 97 64 180.5t151 121.5
q51 -7 149 -48t189 -92l12 -87v-1l3 -26l5 -38q11 -99 11 -197z" />
    <glyph glyph-name="uogonek" unicode="&#x173;" horiz-adv-x="1164" 
d="M1117 -116l47 -127q-51 -100 -113.5 -147.5t-148.5 -47.5q-48 0 -106.5 33.5t-99.5 83.5t-41 96q0 57 43 111t113 107q-34 12 -67 34.5t-60 52.5q-4 4 -19.5 20t-24 39t-8.5 54q0 8 2 28q14 139 34 269l-15 7q-76 -193 -165.5 -355t-160.5 -162q-25 0 -49.5 12.5
t-60.5 38.5l-35 23q-51 33 -77.5 56.5t-26.5 51.5l84 411l-155 431q26 64 84 106t128 61.5t137 19.5q68 0 104 -17q10 -106 10 -243q0 -157 -11.5 -291.5t-39.5 -264.5l30 -14q35 34 80.5 114t83.5 164.5t49 124.5q-29 346 -29 390q17 11 65 19.5t103 8.5q91 0 157.5 -29
t119.5 -92v-11q0 -50 -24.5 -190t-64.5 -294.5t-83 -257.5l173 92l85 -121q-42 -98 -90 -165q-34 -53 -85.5 -141t-81.5 -143l14 -13z" />
    <glyph glyph-name="Wcircumflex" unicode="&#x174;" horiz-adv-x="1839" 
d="M1745.5 1383q44.5 -101 49.5 -218l-303 -896q38 -82 57 -193q-43 -36 -119.5 -54.5t-164.5 -18.5q-92 0 -171.5 20.5t-117.5 56.5q7 63 23.5 115t40.5 103l-142 492l-130 -518q39 -82 58 -196q-43 -36 -119.5 -54.5t-164.5 -18.5q-92 0 -171.5 20.5t-117.5 56.5
q12 108 61 211l-207 795l-3 11l-173 230q25 52 78 103.5t119 85t126 34.5q48 2 90.5 -15.5t73.5 -54.5h1q13 -28 50 -246.5t71 -471.5t42 -389h7l159 687q-58 51 -98 100.5t-74 125.5q67 111 178.5 179t226.5 82q62 -56 103.5 -173.5t45.5 -236.5l-1 -2q3 -18 32 -113
q57 -193 96.5 -352t47.5 -297h17l99 683l-40 33q-61 51 -98.5 91.5t-64.5 99.5q31 74 98 132t148.5 93.5t156.5 44.5q80 -66 124.5 -167zM617 1662q-36 32 -57 69q65 61 101 104.5t78 111.5q27 24 113 42t157 18q33 0 53 -4l208 -249q-17 -42 -57.5 -87.5t-85.5 -57.5
q-52 19 -102 52.5t-122 89.5l-31 24q-62 -71 -98.5 -108t-72.5 -58q-48 21 -84 53z" />
    <glyph glyph-name="wcircumflex" unicode="&#x175;" horiz-adv-x="1636" 
d="M1547.5 1041q47.5 -106 56.5 -211q-158 -373 -291 -611q40 -73 62 -175q-36 -32 -104.5 -48.5t-148.5 -16.5q-82 0 -152 18t-106 50q5 78 14 125t23 84l-65 233q-33 -113 -58 -192t-53 -147q15 -42 15 -107q-19 -30 -78.5 -46.5t-135.5 -16.5q-78 0 -148 17.5t-105 49.5
q7 103 15 150.5t24 85.5l-153 410l-154 275q0 53 41 102t102 79t117 30q58 0 105 -21.5t70 -64.5q1 -5 28 -151q88 -443 111 -637l13 -1q35 100 66.5 228t41.5 207q-7 6 -46.5 38.5t-70.5 71t-53 83.5q23 66 78 126t124.5 99t133.5 47q71 -57 118.5 -163t56.5 -211l-2 -1
q34 -143 61.5 -283t37.5 -240h15q36 99 68 226t42 207q-7 6 -46.5 38.5t-70.5 71t-53 83.5q23 66 78 126t124.5 99t133.5 47q71 -57 118.5 -163zM489 1299q-36 32 -57 69q52 53 90 107.5t89 136.5l21 35q29 25 103 42.5t143 17.5q33 0 53 -4l231 -312q-17 -42 -57.5 -87.5
t-85.5 -57.5q-75 41 -133.5 82.5t-131.5 106.5q-48 -68 -85.5 -107.5t-95.5 -81.5q-48 21 -84 53z" />
    <glyph glyph-name="Ycircumflex" unicode="&#x176;" horiz-adv-x="1168" 
d="M452 1480l133 -840h45l153 438q-56 49 -96.5 101t-75.5 129q45 107 154 166t235 75q79 -65 119.5 -165t45.5 -219q-52 -134 -145.5 -307t-191.5 -284l-136 -76l31 -191q40 6 117.5 30t128.5 45l75 -146q-25 -58 -89 -118t-141.5 -99t-140.5 -39q-72 0 -141 30.5t-113 87
t-45 130.5q-1 50 5 93t17 100q12 60 15 84l-149 116l-142 510l-120 138q4 106 55.5 164t112 77t105.5 19q110 0 179 -49zM314 1662q-36 32 -57 69q65 61 101 104.5t78 111.5q27 24 113 42t157 18q33 0 53 -4l208 -249q-17 -42 -57.5 -87.5t-85.5 -57.5q-52 19 -102 52.5
t-122 89.5l-31 24q-62 -71 -98.5 -108t-72.5 -58q-48 21 -84 53z" />
    <glyph glyph-name="ycircumflex" unicode="&#x177;" horiz-adv-x="1115" 
d="M1080 1049l-4 -20q-13 -67 -35 -129.5t-80 -168.5l138 -793q-21 -81 -76 -155.5t-133 -131t-166 -86.5q-21 -3 -43 -3q-70 0 -149 27t-141.5 65t-85.5 68q-1 13 -1 35q0 36 5.5 62t20.5 75q75 -17 201.5 -32.5t194.5 -15.5q2 33 2 108q0 119 -7 290q-6 186 -6 258v30
l-10 3q-29 -75 -86 -186.5t-119 -208.5t-107 -135q-32 -25 -60 -25q-44 0 -116 51l-35 23q-51 33 -77.5 56.5t-26.5 51.5l84 411l-155 431q26 64 84 106t128 61.5t137 19.5q68 0 104 -17q10 -106 10 -243q0 -108 -6 -218q-5 -93 -15.5 -171t-29.5 -167l30 -14q35 34 81 109
t84 153t48 116q-29 346 -29 415q17 11 65 19.5t103 8.5q91 0 157.5 -29t119.5 -92q0 -7 -3 -16zM244 1299q-36 32 -57 69q52 53 90 107.5t89 136.5l21 35q29 25 103 42.5t143 17.5q33 0 53 -4l231 -312q-17 -42 -57.5 -87.5t-85.5 -57.5q-75 41 -133.5 82.5t-131.5 106.5
q-48 -68 -85.5 -107.5t-95.5 -81.5q-48 21 -84 53z" />
    <glyph glyph-name="Ydieresis" unicode="&#x178;" horiz-adv-x="1168" 
d="M452 1480l133 -840h45l153 438q-56 49 -96.5 101t-75.5 129q45 107 154 166t235 75q79 -65 119.5 -165t45.5 -219q-52 -134 -145.5 -307t-191.5 -284l-136 -76l31 -191q40 6 117.5 30t128.5 45l75 -146q-25 -58 -89 -118t-141.5 -99t-140.5 -39q-72 0 -141 30.5t-113 87
t-45 130.5q-1 50 5 93t17 100q12 60 15 84l-149 116l-142 510l-120 138q4 106 55.5 164t112 77t105.5 19q110 0 179 -49zM215.5 1667.5q33.5 -32.5 80.5 -55.5t94 -26q62 27 117.5 87t85.5 130q-25 116 -113.5 166.5t-197.5 50.5q-15 -50 -32 -95t-29.5 -76.5t-18.5 -45.5
l-29 -72q9 -31 42.5 -63.5zM683.5 1667.5q33.5 -32.5 80.5 -55.5t94 -26q62 27 117.5 87t85.5 130q-25 116 -113.5 166.5t-197.5 50.5q-15 -50 -32 -95t-29.5 -76.5t-18.5 -45.5l-29 -72q9 -31 42.5 -63.5z" />
    <glyph glyph-name="Zacute" unicode="&#x179;" horiz-adv-x="1208" 
d="M1129 625q13 -36 22.5 -107.5t9.5 -148.5q0 -168 -55.5 -278.5t-193.5 -110.5q-99 0 -222 69t-242 169q-31 -99 -95 -168.5t-147 -69.5q-44 28 -85 93.5t-66.5 144t-25.5 142.5q0 14 1 21q31 42 69 77.5t69 52.5q70 -15 120 -42l365 685l-237 36l-45 -303l-185 -40
q-31 34 -61 104t-48.5 155.5t-18.5 162.5q0 46 7 82q10 52 69.5 97.5t128 73.5t93.5 27q103 -14 228 -48.5t242 -77.5q47 48 95 80t109 46q71 -17 107.5 -85.5t36.5 -161.5q0 -100 -40 -186l-123 4q-68 -110 -223 -344t-247 -357l309 -59l95 289zM471 1629q32 -5 65 -5
q97 0 221 32t218 82q-8 80 -55.5 157.5t-124.5 124.5q-111 -78 -190.5 -126.5t-197.5 -107.5q15 -103 64 -157z" />
    <glyph glyph-name="zacute" unicode="&#x17a;" horiz-adv-x="1027" 
d="M751 1159q48 44 114 47q56 -39 90.5 -124.5t34.5 -173.5q0 -59 -16 -103q-28 -18 -56 -18q-14 0 -49 7l-340 -436l184 -31l100 234l148 -28q13 -35 21.5 -90t8.5 -115q0 -74 -15 -139t-47 -109q-75 -100 -185 -100q-58 0 -128.5 27t-133 66.5t-98.5 76.5
q-37 -64 -61 -96.5t-56 -51t-79 -19.5q-41 25 -76 98.5t-56 164t-21 160.5q23 30 68 56.5t83 39.5q29 -8 60.5 -30t84.5 -68l185 406l-187 23v-216l-166 -36q-31 32 -63.5 92.5t-54 132t-21.5 135.5q0 77 29.5 131t79 81t110.5 27q56 0 136.5 -19.5t157.5 -49.5t123 -60
q43 64 91 108zM394.5 1311.5q28.5 -43.5 53.5 -64.5q101 20 229.5 80.5t194.5 118.5q0 56 -29.5 114.5t-78.5 105t-107 66.5l-53 -63q-82 -97 -133.5 -152.5t-121.5 -114.5q17 -47 45.5 -90.5z" />
    <glyph glyph-name="Zdotaccent" unicode="&#x17b;" horiz-adv-x="1208" 
d="M1129 625q13 -36 22.5 -107.5t9.5 -148.5q0 -168 -55.5 -278.5t-193.5 -110.5q-99 0 -222 69t-242 169q-31 -99 -95 -168.5t-147 -69.5q-44 28 -85 93.5t-66.5 144t-25.5 142.5q0 14 1 21q31 42 69 77.5t69 52.5q70 -15 120 -42l365 685l-237 36l-45 -303l-185 -40
q-31 34 -61 104t-48.5 155.5t-18.5 162.5q0 46 7 82q10 52 69.5 97.5t128 73.5t93.5 27q103 -14 228 -48.5t242 -77.5q47 48 95 80t109 46q71 -17 107.5 -85.5t36.5 -161.5q0 -100 -40 -186l-123 4q-68 -110 -223 -344t-247 -357l309 -59l95 289zM475.5 1647.5
q33.5 -32.5 80.5 -55.5t94 -26q67 29 134 90t95 127q-17 79 -71.5 127.5t-125 69t-140.5 20.5q-15 -50 -32 -95t-29.5 -76.5t-18.5 -45.5l-29 -72q9 -31 42.5 -63.5z" />
    <glyph glyph-name="zdotaccent" unicode="&#x17c;" horiz-adv-x="1027" 
d="M751 1159q48 44 114 47q56 -39 90.5 -124.5t34.5 -173.5q0 -59 -16 -103q-28 -18 -56 -18q-14 0 -49 7l-340 -436l184 -31l100 234l148 -28q13 -35 21.5 -90t8.5 -115q0 -74 -15 -139t-47 -109q-75 -100 -185 -100q-58 0 -128.5 27t-133 66.5t-98.5 76.5
q-37 -64 -61 -96.5t-56 -51t-79 -19.5q-41 25 -76 98.5t-56 164t-21 160.5q23 30 68 56.5t83 39.5q29 -8 60.5 -30t84.5 -68l185 406l-187 23v-216l-166 -36q-31 32 -63.5 92.5t-54 132t-21.5 135.5q0 77 29.5 131t79 81t110.5 27q56 0 136.5 -19.5t157.5 -49.5t123 -60
q43 64 91 108zM338.5 1328.5q33.5 -32.5 80.5 -55.5t94 -26q67 29 134 90t95 127q-17 79 -71.5 127.5t-125 69t-140.5 20.5q-15 -50 -32 -95t-29.5 -76.5t-18.5 -45.5l-29 -72q9 -31 42.5 -63.5z" />
    <glyph glyph-name="Zcaron" unicode="&#x17d;" horiz-adv-x="1208" 
d="M1129 625q13 -36 22.5 -107.5t9.5 -148.5q0 -168 -55.5 -278.5t-193.5 -110.5q-99 0 -222 69t-242 169q-31 -99 -95 -168.5t-147 -69.5q-44 28 -85 93.5t-66.5 144t-25.5 142.5q0 14 1 21q31 42 69 77.5t69 52.5q70 -15 120 -42l365 685l-237 36l-45 -303l-185 -40
q-31 34 -61 104t-48.5 155.5t-18.5 162.5q0 46 7 82q10 52 69.5 97.5t128 73.5t93.5 27q103 -14 228 -48.5t242 -77.5q47 48 95 80t109 46q71 -17 107.5 -85.5t36.5 -161.5q0 -100 -40 -186l-123 4q-68 -110 -223 -344t-247 -357l309 -59l95 289zM684.5 1613
q-54.5 -4 -101.5 -4q-46 0 -73 5l-225 190q2 36 40 85t90.5 82.5t95.5 30.5l168 -198q53 78 95.5 123t109.5 93q38 -17 81 -57t60 -75l-259 -266q-27 -5 -81.5 -9z" />
    <glyph glyph-name="zcaron" unicode="&#x17e;" horiz-adv-x="1027" 
d="M751 1159q48 44 114 47q56 -39 90.5 -124.5t34.5 -173.5q0 -59 -16 -103q-28 -18 -56 -18q-14 0 -49 7l-340 -436l184 -31l100 234l148 -28q13 -35 21.5 -90t8.5 -115q0 -74 -15 -139t-47 -109q-75 -100 -185 -100q-58 0 -128.5 27t-133 66.5t-98.5 76.5
q-37 -64 -61 -96.5t-56 -51t-79 -19.5q-41 25 -76 98.5t-56 164t-21 160.5q23 30 68 56.5t83 39.5q29 -8 60.5 -30t84.5 -68l185 406l-187 23v-216l-166 -36q-31 32 -63.5 92.5t-54 132t-21.5 135.5q0 77 29.5 131t79 81t110.5 27q56 0 136.5 -19.5t157.5 -49.5t123 -60
q43 64 91 108zM523 1269q-73 0 -123 10l-251 195q2 36 46.5 90t103.5 93t102 36l145 -198q73 90 112.5 130.5t105.5 85.5q36 -16 74.5 -55.5t56.5 -76.5l-286 -304q-32 -6 -86 -6z" />
    <glyph glyph-name="florin" unicode="&#x192;" horiz-adv-x="862" 
d="M779 1088q21 -42 21 -118q0 -52 -11.5 -99.5t-34.5 -78.5l-192 2l47 -1008q-4 -31 -26 -67q-20 -32 -61.5 -67t-93 -60.5t-100.5 -29.5q-78 10 -165 54.5t-146 102.5l-1 27q0 41 7 75t23 80q40 -9 132.5 -22t160.5 -16l-123 935l-155 2q-6 30 -6 61q0 39 9.5 76.5
t27.5 67.5l95 12l-32 245q0 11 38.5 81t117 148t198.5 122q111 -25 184 -35t146 -10h34q13 -25 13 -73q0 -51 -13.5 -113.5t-36 -115.5t-47.5 -77q-104 19 -162.5 53.5t-96.5 83.5l21 -286z" />
    </font>
</defs>
</svg>
